<svg xmlns="http://www.w3.org/2000/svg" xml:space="preserve" style="fill-rule:evenodd;clip-rule:evenodd;stroke-linejoin:round;stroke-miterlimit:2" viewBox="0 0 240 240">
  <path d="M1288.03 364.478c-121.3 7.598-290.485-58.047-311.248-104.862-17.236-38.863 83.088-90.286 151.868-111.623 105.36-32.683 197.97-38.227 257.56-32.475 147.19 14.208 244.29 56.896 244.08 80.684-.22 24.477-68.14 151.105-342.26 168.276Z" style="fill:#5d7b1c" transform="matrix(.11477 .01029 -.01263 .1409 9.652 -21.12)"/>
  <path d="M1289.03 375.05c-87.59 5.487-199.45-25.888-265.99-61.868-30.572-16.532-51.612-34.429-58.501-49.963-6.528-14.718-1.006-31.134 14.098-47.253 29.103-31.064 95.183-62.31 145.383-77.883 107.87-33.461 202.71-38.984 263.72-33.095 105.89 10.221 186.43 35.101 225.22 57.304 11.35 6.497 19.41 12.94 24.14 18.758 4.38 5.395 6.25 10.585 6.21 15.228-.08 8.261-6.33 27.086-24.32 49.605-38.53 48.218-131.87 116.759-329.96 129.167Zm-1.99-21.145c185.67-11.63 274.02-74.396 310.12-119.59 14-17.518 20.06-31.762 20.11-38.189.02-1.616-1.56-3.186-3.46-5.115-3.56-3.628-8.93-7.422-15.81-11.366-36.71-21.006-113.14-43.927-213.32-53.597-58.17-5.614-148.55-.049-251.4 31.854-39.78 12.341-90.58 35.026-121.2 59.369-9.31 7.398-16.712 14.878-20.9 22.293-3.207 5.679-4.476 11.217-2.155 16.449 5.569 12.558 23.695 26.135 48.415 39.5 62.47 33.777 167.36 63.543 249.6 58.392Z" style="fill:#5d7b1c" transform="matrix(.11477 .01029 -.01263 .1409 9.652 -21.12)"/>
  <path d="M979.272 77.94c1.934-12.471 5.479-14.55 7.913-4.641s2.839 28.078.906 40.549c-3.127 20.16-5.071 49.143-5.033 76.22.022 15.688.699 30.834 2.479 42.324 1.933 12.473 1.526 30.642-.908 40.547-2.434 9.905-5.98 7.819-7.913-4.654-3.295-21.265-4.881-48.768-4.921-77.804-.056-40.005 2.858-82.755 7.477-112.541Z" style="fill:#493523" transform="matrix(1.59803 0 0 .31186 -1450.803 -19.544)"/>
  <g transform="translate(-166.74 -8.307) scale(.25413)">
    <path d="M826.689 355.803c-91.934 91.579-98.175 408.993-38.941 476.309 60.003 68.191 214.392 123.141 351.382 122.511 155.43-.714 279.95-62.681 322.81-102.788 79.28-74.187 44.83-361.859-3.33-457.476-81.42-161.651-492.873-177.064-631.921-38.556Z" style="fill:#fff"/>
    <clipPath id="a">
      <path d="M826.689 355.803c-91.934 91.579-98.175 408.993-38.941 476.309 60.003 68.191 214.392 123.141 351.382 122.511 155.43-.714 279.95-62.681 322.81-102.788 79.28-74.187 44.83-361.859-3.33-457.476-81.42-161.651-492.873-177.064-631.921-38.556Z"/>
    </clipPath>
    <g clip-path="url(#a)">
      <path d="M928.557 812.936c-8.284.231-68.611 37.543-84.692 33.523-12.61-3.152-10.006 2.831-9.505 4.382 3.966 12.29 76.659 46.159 97.695 53.567 28.099 9.895 49.676 16.817 73.335 22.392 27.54 6.489 43.29 7.867 69.69 10.964 22.82 2.678 145.61-3.364 161.43-6.526 36.19-7.235 50.53-14.584 82.8-24.835 14.12-4.484 40.39-16.479 54-22.072 29.51-12.135 23.51-5.776 40.93-19.184 9.59-7.386-22.36-8.229-47.78-13.834-21.05-4.64-41.35-39.986-45.56-37.357-11.16 6.971-100.24 15.002-185.18 24.439-24.57 2.729-190.46-25.924-207.163-25.459Z" style="fill:#e98800" transform="translate(.002)"/>
      <path d="M770.719 293.412c-7.718 1.385 10.428 88.329 5.854 112.047-1.631 8.456 32.781 13.029 79.604 22.328 16.713 3.319 63.627 6.323 76.903.898 10.356-4.232 6.501-17.895 2.752-33.449-6.61-27.421-25.729-70.469-35.067-80.162-7.813-8.109-39.126 2.667-69.36-4.749-33.36-8.183-52.642-18.356-60.686-16.913Z" style="fill:#e98800" transform="rotate(-116.094 1177.66 255.64)"/>
      <path d="M914.065 293.431c-7.51 15.356-10.279 131.739-9.152 132.561 9.619 7.003 72.91-3.482 97.717-10.138 25.31-6.794 80.28-19.909 75.59-26.444-.25-.358.89-10.037 1.31-21.335.92-24.632 7.04-99.109 2.87-97.978-31.64 8.598-38.95 16.93-78.49 23.02-37.84 5.828-82.375-14.958-89.845.314Z" style="fill:#e98800" transform="rotate(119.041 903.152 363.732) skewX(8.007)"/>
      <path d="M854.913 353.219c.838 4.491 18.641 41.084 23.823 75.199 4.015 26.433.412 75.399 3.848 81.877 3.884 7.322 78.833 13.841 100.013 13.685 5.788-.043 4.262-80.533.614-107.677-4.377-32.563-15.833-47.446-19.804-47.94-8.736-1.088-23.514-6.937-41.421-9.884-31.17-5.131-67.517-7.641-67.073-5.26Z" style="fill:#e98800" transform="matrix(.82904 0 0 .92015 476.93 -41.696)"/>
      <path d="M845.069 368.554c2.977 9.452 19.264 29.101 26.665 57.38 5.372 20.526 8.345 57.125 8.91 58.907 1.013 3.201 82.781 3.918 101.233-2.159 8.087-2.664 4.096-36.397 1.534-64.13-2.872-31.104-16.823-64.596-20.859-64.413-25.008 1.128-45.042 3.882-70.445 6.698-5.559.616-47.524 6.176-47.038 7.717Z" style="fill:#e98800" transform="matrix(.80711 0 0 1.08156 290.889 -100.657)"/>
    </g>
    <path d="M812.804 341.864c86.982-86.644 275.826-117.351 431.626-90.183 106.61 18.592 196.9 64.63 231.75 133.827 34.82 69.125 63.13 235.381 48.64 355.229-6.68 55.218-23.03 100.754-49.44 125.464-44.67 41.804-174.15 107.352-336.16 108.097-142.963.657-303.622-58.023-366.243-129.189-10.991-12.491-20.492-32.192-27.5-57.272-9.433-33.765-14.855-77.945-15.759-125.719-1.341-70.857 7.214-149.67 26.468-213.606 13.552-45.002 32.643-82.766 56.618-106.648Zm27.771 27.879c-20.155 20.076-35.319 52.285-46.711 90.115-18.162 60.311-26.069 134.676-24.804 201.515.833 44.024 5.623 84.761 14.316 115.875 5.077 18.173 11.178 32.816 19.142 41.867 57.387 65.217 205.512 116.436 336.522 115.833 148.85-.684 268.41-59.069 309.46-97.479 10.63-9.945 18.47-24.667 24.57-42.378 10.34-30.07 15.17-68.282 16.15-109.268 2.5-104.574-20.21-227.091-48.18-282.614-30.29-60.127-110.73-96.608-203.37-112.763-143.08-24.95-317.218-.272-397.095 79.297Z" style="fill:#493523"/>
    <path d="M1309.62 824.101c-5.5-3.5-7.12-10.803-3.62-16.298 3.5-5.496 10.8-7.117 16.3-3.618 9.49 6.045 30.34 23.711 55.69 31.341 30.27 9.112 42.15 11.664 68.77 6.933 6.41-1.141 12.54 3.142 13.68 9.556 1.14 6.415-3.14 12.549-9.55 13.689-30.84 5.48-44.65 2.985-79.71-7.57-27.9-8.399-51.11-27.379-61.56-34.033Zm51.02-330.367c-2.55 5.998-9.48 8.802-15.48 6.258-6-2.544-8.8-9.479-6.26-15.477 8.11-19.119 48.51-63.111 83.48-83.507 17.76-10.359 34.61-14.169 46.28-9.955 6.12 2.214 9.3 8.986 7.09 15.114-2.22 6.128-8.99 9.305-15.12 7.091-2.62-.947-5.77-.437-9.28.504-5.28 1.418-11.06 4.133-17.07 7.641-30.58 17.83-66.55 55.617-73.64 72.331Z" style="fill:#493523" transform="translate(.002)"/>
    <path d="M1317.02 438.822c-3.52 5.478-10.84 7.062-16.31 3.536-5.48-3.527-7.07-10.838-3.54-16.316 4.41-6.844 22.6-30.57 48.37-48.746 17.89-12.616 39.35-22.449 62.26-23.101 6.51-.186 11.95 4.951 12.13 11.464.19 6.513-4.95 11.951-11.46 12.136-18.21.518-35.1 8.768-49.32 18.795-22.39 15.789-38.3 36.287-42.13 42.232Z" style="fill:#493523" transform="rotate(11.219 447.359 913.805)"/>
    <path d="M776.921 830.215c-5.405-3.639-6.838-10.981-3.199-16.386 3.638-5.404 10.98-6.838 16.385-3.199 9.629 6.484 30.224 13.14 44.826 13.194 18.514.068 32.227-1.395 43.724-4.574 11.65-3.222 28.521-13.788 38.356-20.417 5.402-3.642 12.745-2.212 16.387 3.19 3.642 5.403 2.212 12.745-3.191 16.387-11.552 7.788-31.574 19.811-45.258 23.595-13.18 3.645-28.882 5.507-50.105 5.428-18.885-.07-45.472-8.834-57.925-17.218Zm176.395-367.316c.757 6.471-3.882 12.339-10.353 13.096-6.471.758-12.34-3.881-13.097-10.352-.481-4.11-3.1-8.117-6.653-12.221-7.231-8.354-18.442-16.343-31.081-23.46-19.859-11.184-43.271-20.077-61.834-24.034-9.853-2.1-17.947-3.392-22.372-1.409-5.946 2.664-12.936 0-15.6-5.945-2.664-5.946-.001-12.936 5.945-15.601 5.783-2.591 15.162-3.491 26.751-1.931 21.693 2.92 52.911 13.828 78.696 28.348 15.262 8.595 28.613 18.492 37.346 28.58 7.092 8.193 11.292 16.724 12.252 24.929Z" style="fill:#493523" transform="translate(.002)"/>
    <path d="M997.831 292.608c-3.514-5.487-1.913-12.794 3.569-16.308 5.49-3.515 12.8-1.914 16.31 3.572 8.71 13.588 20.48 44.642 23.68 63.015 5.48 31.395 7.85 71.567 3.93 92.48-1.2 6.404-7.37 10.629-13.77 9.429-6.41-1.199-10.63-7.372-9.43-13.776 3.56-19.017.99-55.529-3.99-84.078-2.75-15.83-12.8-42.626-20.299-54.334Z" style="fill:#493523" transform="translate(61.091 -14.473)"/>
    <path d="M983.756 293.549c-3.932-5.195-2.907-12.605 2.288-16.537 5.195-3.932 12.605-2.907 16.536 2.288 4.53 5.98 22.11 43.873 27.05 60.607 4.39 14.857 11.4 47.69 14.61 69.775 1.58 10.897 2.08 19.54 1.48 23.287-1.03 6.435-7.08 10.827-13.52 9.803-6.43-1.024-10.82-7.08-9.8-13.514.42-2.609-.42-8.59-1.52-16.179-3.06-21.042-9.71-52.329-13.89-66.484-4.32-14.602-19.285-47.829-23.234-53.046Z" style="fill:#493523" transform="translate(-34.443 -6.426)"/>
    <path d="M981.229 410.088c2.947 5.811.621 12.921-5.19 15.868-5.811 2.946-12.921.621-15.867-5.19-3.33-6.566-10.098-12.583-18.404-18.104-14.272-9.484-33.121-17.047-50.944-21.207-11.463-2.675-22.485-3.963-31.494-3.227-4.526.37-8.442 1.137-11.259 2.901-5.522 3.458-12.812 1.782-16.27-3.739-3.458-5.522-1.783-12.813 3.739-16.271 12.234-7.661 35.636-8.494 60.65-2.656 20.533 4.793 42.205 13.609 58.646 24.536 12.169 8.088 21.515 17.469 26.393 27.089Z" style="fill:#493523" transform="translate(-91.872 190.88)"/>
    <path d="M992.558 304.618c-4.335-4.864-3.905-12.332.959-16.667 4.864-4.335 12.333-3.905 16.663.959 16.78 18.828 24.46 45.174 27.08 71.705 3.63 36.725-2.29 73.531-2.88 86.652-.3 6.508-5.82 11.554-12.33 11.259-6.51-.294-11.55-5.817-11.26-12.326.57-12.608 6.47-47.969 2.98-83.261-2.13-21.48-7.63-43.077-21.212-58.321Z" style="fill:#493523" transform="translate(279.083 -10.652)"/>
    <path d="M992.803 285.498c-2.788-5.052-1.517-11.524 3.217-15.108 5.2-3.932 12.6-2.906 16.54 2.289.31.417 1.95 3.359 3.9 8.25 5.32 13.297 17.45 46.283 20.42 61.645 7.55 39.025 8.72 61.85 3.33 93.286-1.11 6.422-7.21 10.741-13.64 9.639-6.42-1.102-10.74-7.21-9.63-13.632 4.9-28.583 3.62-49.329-3.24-84.812-3.1-16.061-17.139-52.798-20.631-60.952a51.064 51.064 0 0 0-.266-.605Z" style="fill:#493523" transform="translate(174.325 -10.069)"/>
    <path d="M917.803 399.97c23.163-13.365 237.317-14.306 289.407-9.706 24.25 2.141 111.17 9.3 144.38 22.189 19.08 7.406 62.72 54.055 74.98 100.127 10.65 40.02 12.07 98.678 9.5 143.852-3.72 65.484-27.61 129.369-58.76 174.299-3.8 5.482-15.72 19.036-34.32 29.786-25.35 14.649-204.16 16.141-267.9 12.928-57.27-2.887-117.934-8.02-127.528-9.513-25.641-3.99-50.265-7.251-64.439-19.924-17.197-15.376-44.838-90.154-56.537-172.04-7.851-54.947 4.455-136.12 12.641-158.752 15.366-42.482 36.343-88.877 78.576-113.246Z" style="fill:#cebaba" transform="translate(263.553 144.422) scale(.76693)"/>
    <path d="M902.418 373.306c6.349-3.664 22.849-8.17 46.269-10.546 69.903-7.095 218.613-6.925 261.233-3.162 25.68 2.268 117.63 10.505 152.81 24.156 10.29 3.994 26.58 15.564 42.64 33.053 20.9 22.754 42.35 55.532 50.95 87.859 11.36 42.714 13.23 105.299 10.49 153.513-4.06 71.431-30.22 141.083-64.2 190.093-4.93 7.104-20.12 24.969-44.22 38.899-9.37 5.416-35.45 11.112-69.93 13.891-66.53 5.361-169.45 5.421-214.92 3.129-58.7-2.959-120.877-8.31-130.711-9.84-32.227-5.015-62.41-11.466-80.224-27.393-7.106-6.353-16.37-19.522-25.083-38.657-15.631-34.325-32.74-91.285-41.411-151.979-8.586-60.087 5.215-148.828 14.167-173.577 17.712-48.969 43.458-101.349 92.14-129.439Zm426.122 459.995c12.56-7.46 20.86-16.345 23.47-20.111 28.33-40.85 49.94-98.968 53.33-158.506 2.39-42.132 1.41-96.864-8.52-134.19-6.11-22.96-21.96-45.883-36.8-62.044-7.77-8.466-14.59-15.364-19.57-17.297-31.25-12.128-113.13-18.209-135.95-20.224-35.72-3.155-149.24-3.571-221.922.908-22.466 1.384-47.213 5.174-51.042 5.773-34.642 20.93-50.54 60.633-63.36 96.077-7.42 20.515-18.231 94.121-11.115 143.927 6.644 46.501 18.658 90.596 30.771 121.563 6.101 15.598 10.891 27.484 15.81 31.882 3.773 3.373 9.23 4.833 15.156 6.376 10.208 2.657 21.742 4.249 33.497 6.078 9.354 1.456 68.505 6.372 124.345 9.187 43.76 2.206 142.84 2.152 206.88-3.008 19.76-1.593 42.55-5.916 45.02-6.391Z" style="fill:#493523" transform="translate(263.553 144.422) scale(.76693)"/>
    <path d="M938.959 423.292c81.301-21.382 344.361-15.073 401.171 15.732 67.4 36.54 65.66 110.13 68.33 177.791 3.93 99.692-36.07 185.575-64.21 214.616-35.73 36.86-416.016 17.932-443.125-5.883-25.055-22.01-62.72-156.346-48.825-258.231 7.643-56.042 32.473-129.775 86.659-144.025Z" style="fill:#eddb93" transform="translate(263.553 144.422) scale(.76693)"/>
    <path d="M928.519 383.596c59.694-15.699 212.781-18.017 319.711-6.403 50.69 5.507 91.69 15.025 111.47 25.747 45.02 24.408 67.43 60.821 78.55 102.8 9.06 34.215 9.77 72.62 11.22 109.457 4.5 114.038-43.55 211.581-75.75 244.801-7.79 8.033-23.45 17.164-47.07 22.439-32.31 7.217-86.38 10.64-145.93 10.751-99.15.186-213.874-8.362-264.419-19.238-22.186-4.774-36.359-12.376-42.266-17.565-10.497-9.221-24.608-31.456-35.855-63.454-20.488-58.286-37.154-153.407-26.55-231.161 5.352-39.24 18.496-85.717 41.356-120.368 18.873-28.608 44.21-49.568 75.533-57.806Zm-1.447 407.881c25.046 3.171 160.788 19.793 253.488 19.619 41.16-.077 79.4-1.652 108.03-5.372 11.17-1.451 24.5-4.85 29.1-6.07 23.68-27.594 52.98-99.269 49.75-181.22-1-25.356-1.18-51.612-5.27-76.168-4.49-27.011-13.82-52.096-41.6-67.159-14.32-7.762-44.51-12.315-81.21-16.301-96.97-10.533-235.83-10.054-289.962 4.183-16.19 4.257-26.358 19.084-34.686 35.349-11.834 23.114-18.497 50.731-21.742 74.525-8.85 64.886 5.56 144.206 22.657 192.846 3.327 9.466 8.493 20.011 11.445 25.768Z" style="fill:#eddb93" transform="translate(263.553 144.422) scale(.76693)"/>
  </g>
</svg>