<svg xmlns="http://www.w3.org/2000/svg" xml:space="preserve" style="fill-rule:evenodd;clip-rule:evenodd;stroke-linecap:round;stroke-linejoin:round;stroke-miterlimit:1.5" viewBox="0 0 240 240"><g transform="translate(-148.446 -1.353)scale(.2369)"><path d="M1252.57 248.622c-153.45-13.469-298.435-23.615-425.881 107.181-90.558 92.94-98.175 408.993-38.941 476.309 60.003 68.191 184.802 123.305 363.312 121.481 219.62-2.245 242.09-53.864 271.8-78.069" style="fill:#faebdd"/><clipPath id="a"><path d="M1252.57 248.622c-153.45-13.469-298.435-23.615-425.881 107.181-90.558 92.94-98.175 408.993-38.941 476.309 60.003 68.191 184.802 123.305 363.312 121.481 219.62-2.245 242.09-53.864 271.8-78.069"/></clipPath><g clip-path="url(#a)"><path d="M945.974 788.517c-12.191 9.692-34.75 41.052-78.645 47.372-42.859 6.17-68.979-1.458-95.922-12.82-9.744-4.109 61.846 52.009 152.954 88.115 61.208 24.257 146.389 29.239 204.069 33.497 173.74 12.825 334.94-70.377 339.47-91.885 2.39-11.378-41.79 2.224-86.89-11.736-39.78-12.316-61.69-41.834-64.02-41.211-27.92 7.47-90.19 24.979-183.3 20.233-95.51-4.868-181.093-36.831-187.716-31.565" style="fill:#fb9832" transform="translate(.002)"/><path d="m934.153 773.648 6.336-3.437 6.283-1.21c3.221-.209 8.603.246 15.806 1.679 27.918 5.554 96.862 26.597 172.082 30.431 90.12 4.594 150.4-12.381 177.42-19.612l8.46-.342 5.07 1.648 4.46 2.823c5.08 4.025 24.09 27.233 56.56 37.286 23.02 7.126 45.8 6.123 60.99 5.902 9.24-.134 16.48.185 20.96 1.268l8.57 3.646 3.42 2.786 3.19 4.02 1.98 4.135 1.05 4.369-.3 7.666-2.13 6.11-4.14 6.392c-4.02 5.001-11.5 11.532-22.34 18.567-50.97 33.083-186.71 86.49-330.85 75.85-59.28-4.376-146.762-9.852-209.668-34.782-86.35-34.22-155.537-86.407-161.133-93.168l-4.002-7.546-.654-6.549 1.522-6.203 4.224-6.114 4.39-3.187 5.658-1.93 6.277-.06 5.144 1.48c24.111 10.168 47.479 17.043 85.834 11.521 39.197-5.643 58.644-34.785 69.531-43.439m-78.964 82.744c22.485 12.828 48.739 26.262 76.17 37.132 59.512 23.585 142.381 28.073 198.471 32.213 117.46 8.671 229-28.08 286.85-58.051.72-.376 1.44-.759 2.17-1.149-13.46-.739-28.41-2.672-43.46-7.331-29.06-8.999-52.97-28.79-63.35-38.378-32.31 8.504-92.97 22.626-179.31 18.225-76.26-3.887-161.577-26.068-180.127-31.1-14.552 13.58-39.59 40.55-82.567 46.737a250 250 0 0 1-14.847 1.702" style="fill:#fb9832" transform="translate(.002)"/><path d="M803.555 304.526c-7.718 1.385-4.925 91.329-9.499 115.046-1.63 8.456 105.539 31.834 124.68 12.794 19.14-19.04-.497-117.34-9.836-127.033-7.813-8.11-97.301-2.251-105.345-.807" style="fill:#fb9832" transform="rotate(243.906 1177.659 255.64)"/><path d="M922.739 287.953c-23.541 28.073-17.925 121.225 10.94 151.222 8.213 8.536 141.191-24.248 126.261-28.578-72.74-21.085-15.05-138.83-28.83-132.921-76.832 32.923-97.25-2.985-108.371 10.277" style="fill:#fb9832" transform="rotate(119.041 903.15 363.732)skewX(8.007)"/><path d="M852.8 319.339c2.551 30.913 16.236 196.613 19.671 203.091 3.884 7.323 120.271 31.425 134.749 22.367 19.75-12.367-43.123-177.89-54.858-216.966-11.422-38.029-100.26-16.946-99.562-8.492" style="fill:#fb9832" transform="matrix(.82904 0 0 .92015 476.93 -41.696)"/><path d="M848.8 321.064c12.718 17.18 53.576 121.061 24.525 177.015-16.433 31.653 107.057 9.417 117.898-3.275 39.747-46.54-9.252-179.909-13.288-179.727-25.008 1.129-130.162 4.601-129.135 5.987" style="fill:#fb9832" transform="matrix(.80711 0 0 1.08156 290.889 -100.657)"/><path d="M1356.34 478.188c-3.07 7.239-11.44 10.624-18.68 7.553-7.24-3.07-10.62-11.439-7.55-18.678 2.51-5.914 7.75-13.058 15.32-20.401 14.68-14.258 38.66-30.355 62.22-41.29 25.12-11.655 50.06-16.521 64.76-11.21 7.4 2.672 11.23 10.845 8.56 18.24s-10.85 11.229-18.24 8.558c-3.06-1.105-6.96-.887-11.36-.249-9.44 1.37-20.5 5.299-31.73 10.507-17.72 8.223-35.75 19.705-48.65 30.702-7.07 6.028-12.64 11.536-14.65 16.268" style="fill:#fb9832" transform="translate(.002)"/><path d="M1311.02 403.418c-2.18 7.554-10.09 11.919-17.64 9.739-7.56-2.179-11.92-10.082-9.74-17.637 2.72-9.443 11.48-20.041 24.64-29.293 25.51-17.918 67.67-32.364 93.27-31.466 7.85.276 14.01 6.88 13.73 14.738-.27 7.858-6.88 14.014-14.73 13.738-17.92-.629-45.6 8.534-66.29 20.273-6.63 3.762-12.53 7.796-17.04 11.958-2.97 2.739-5.43 5.25-6.2 7.95" style="fill:#fb9832" transform="rotate(11.218 447.352 913.807)"/><path d="M993.494 307.824c-4.48-6.462-2.872-15.345 3.59-19.826 6.466-4.48 15.346-2.871 19.826 3.591 12.32 17.774 17.12 44.429 17.59 71.747.63 36.774-6.1 74.578-6.69 87.573-.35 7.855-7.02 13.944-14.87 13.589-7.86-.355-13.947-7.02-13.592-14.875.576-12.733 7.282-49.764 6.662-85.795-.37-21.221-2.94-42.196-12.516-56.004" style="fill:#fb9832" transform="translate(279.083 -10.652)"/></g><path d="M1254.05 231.802c9.28.815 16.16 9.013 15.34 18.297-.81 9.283-9.01 16.158-18.29 15.344-148.43-13.029-289.047-24.368-412.317 102.144-20.164 20.694-35.503 53.512-47.008 92-18.143 60.69-26.223 135.276-25.107 202.269.736 44.181 5.451 85.038 14.117 116.258 5.163 18.6 11.467 33.558 19.639 42.844 57.81 65.699 178.477 117.509 350.456 115.751 106.26-1.086 164.89-13.68 200.49-29.366 34.71-15.3 46.8-33.487 60.82-44.909 7.23-5.886 17.87-4.8 23.76 2.425 5.88 7.225 4.8 17.869-2.43 23.756-15.69 12.783-29.68 32.507-68.53 49.63-37.98 16.735-100.39 31.073-213.76 32.232-185.033 1.891-313.962-56.527-376.159-127.211-10.784-12.255-20.011-31.572-26.825-56.119-9.3-33.501-14.554-77.32-15.343-124.728-1.173-70.389 7.454-148.738 26.517-212.504 13.297-44.483 31.871-81.978 55.176-105.895 131.622-135.083 280.964-126.129 439.454-112.218" style="fill:#6c5242"/><path d="M938.959 423.292c80.301-21.009 337.141-10.57 395.131 17.97 64.99 31.988 71.7 107.892 74.37 175.553 3.93 99.692-25.63 166.555-53.78 195.595-35.72 36.86-424.972 15.652-452.082-8.163-25.054-22.01-64.193-135.045-50.298-236.93 7.643-56.042 32.455-129.843 86.659-144.025" style="fill:#faebdd" transform="translate(140.124 72.892)scale(.87532)"/><path d="M936.517 413.961c48.782-12.763 161.913-14.265 257.293-7.022 64.4 4.891 120.75 13.963 144.54 25.669 35.04 17.249 54.54 46.196 65.47 80.094 10.4 32.238 12.9 69.035 14.27 103.733 4.08 103.407-27.28 172.565-56.48 202.688-5.11 5.272-16.02 10.18-31.79 13.573-31.34 6.741-83.95 9.473-141.93 9.268-86.22-.304-184.38-6.998-241.122-15.905-17.727-2.783-31.56-5.838-40.025-8.924-4.935-1.798-8.425-3.81-10.511-5.642-8.202-7.206-18.114-23.159-27.106-45.235-19.711-48.393-36.355-127.121-26.383-200.245 4.766-34.944 16.09-76.486 36.446-107.348 14.426-21.873 33.375-38.436 57.328-44.704m4.883 18.662c-19.41 5.079-34.418 18.939-46.109 36.663-18.819 28.533-29.028 67.027-33.434 99.334-9.481 69.517 6.395 144.355 25.134 190.362 7.487 18.382 15.142 32.018 21.973 38.019 1.312 1.153 4.022 1.986 7.681 3.107 7.842 2.403 19.173 4.705 33.114 6.894 56.061 8.799 153.021 15.371 238.201 15.672 56.28.199 107.38-2.292 137.8-8.836 10.7-2.303 18.53-4.564 22-8.141 27.1-27.958 54.85-92.524 51.06-188.501-1.3-32.964-3.48-67.949-13.36-98.575-9.34-28.968-25.68-53.966-55.63-68.706-22.6-11.125-76.28-19.093-137.48-23.741-93.03-7.065-203.373-5.999-250.95 6.449" style="fill:#6c5242" transform="translate(140.124 72.892)scale(.87532)"/></g><ellipse cx="172.487" cy="101.601" rx="4.509" ry="4.188" style="fill:#faebdd" transform="matrix(1.10898 0 0 1.19379 -22.086 -20.933)"/><ellipse cx="172.487" cy="101.601" rx="4.509" ry="4.188" style="fill:#faebdd" transform="matrix(1.10898 0 0 1.19379 -25.23 -34.81)"/><ellipse cx="172.487" cy="101.601" rx="4.509" ry="4.188" style="fill:#fb9832" transform="matrix(1.10898 0 0 1.19379 -36.367 -39.608)"/><ellipse cx="172.487" cy="101.601" rx="4.509" ry="4.188" style="fill:#fb9832" transform="matrix(1.10898 0 0 1.19379 -42.926 -54.002)"/><ellipse cx="172.487" cy="101.601" rx="4.509" ry="4.188" style="fill:#fb9832" transform="matrix(1.10898 0 0 1.19379 -34.394 -24.166)"/><g transform="rotate(9.409 482.19 -77.225)scale(1.10898 1.19379)"><ellipse cx="172.487" cy="101.601" rx="4.509" ry="4.188" style="fill:#faebdd"/><clipPath id="b"><ellipse cx="172.487" cy="101.601" rx="4.509" ry="4.188"/></clipPath><g clip-path="url(#b)"><path d="M158.508 70.502c3.288 1.864 9.436 3.477 9.252 3.904-2.042 4.726-6.649 4.363-8.363 3.051-1.895-1.452-2.759-4.214-.889-6.955" style="fill:#6c5242;stroke:#6c5242;stroke-width:1px" transform="matrix(.90173 0 0 .83767 26.024 39.95)"/></g></g><ellipse cx="172.487" cy="101.601" rx="4.509" ry="4.188" style="fill:#fb9832" transform="matrix(1.10898 0 0 1.19379 -29.103 -63.42)"/><ellipse cx="172.487" cy="101.601" rx="4.509" ry="4.188" style="fill:#fb9832" transform="matrix(1.10898 0 0 1.19379 -18.806 -83.28)"/><ellipse cx="172.487" cy="101.601" rx="4.509" ry="4.188" style="fill:#fb9832" transform="matrix(1.10898 0 0 1.19379 -30.615 -76.226)"/><g transform="matrix(1.10898 0 0 1.19379 -15.763 -68.143)"><ellipse cx="172.487" cy="101.601" rx="4.509" ry="4.188" style="fill:#faebdd"/><clipPath id="c"><ellipse cx="172.487" cy="101.601" rx="4.509" ry="4.188"/></clipPath><g clip-path="url(#c)"><path d="M171.918 58.865c1.074-.657 6.723-8.018 5.542-8.278-2.864-.632-6.251.392-7.135 3.487-.35 1.224.324 3.468 1.593 4.791" style="fill:#fb9832;stroke:#fb9832;stroke-width:1px" transform="matrix(.90173 0 0 .83767 14.586 55.352)"/></g></g><g transform="matrix(1.10898 0 0 1.19379 -13.354 -46.001)"><ellipse cx="172.487" cy="101.601" rx="4.509" ry="4.188" style="fill:#faebdd"/><clipPath id="d"><ellipse cx="172.487" cy="101.601" rx="4.509" ry="4.188"/></clipPath><g clip-path="url(#d)"><path d="M157.678 71.907c3.715 1.388 10.28 2.342 10.223 2.699-.572 3.583-6.79 4.163-8.504 2.851-1.895-1.452-2.759-3.17-1.719-5.55" style="fill:#6c5242;stroke:#6c5242;stroke-width:1px" transform="matrix(.90173 0 0 .83767 26.138 40.296)"/></g></g><ellipse cx="172.487" cy="101.601" rx="4.509" ry="4.188" style="fill:#faebdd" transform="matrix(1.10898 0 0 1.19379 -8.917 -33.532)"/><ellipse cx="172.487" cy="101.601" rx="4.509" ry="4.188" style="fill:#faebdd" transform="matrix(1.10898 0 0 1.19379 -6.669 -55.845)"/><ellipse cx="172.487" cy="101.601" rx="4.509" ry="4.188" style="fill:#faebdd" transform="matrix(1.10898 0 0 1.19379 -6.098 -76.475)"/><ellipse cx="172.487" cy="101.601" rx="4.509" ry="4.188" style="fill:#6c5242" transform="matrix(1.10898 0 0 1.19379 5.542 -29.665)"/><ellipse cx="172.487" cy="101.601" rx="4.509" ry="4.188" style="fill:#6c5242" transform="matrix(1.10898 0 0 1.19379 1.731 -40.913)"/><ellipse cx="172.487" cy="101.601" rx="4.509" ry="4.188" style="fill:#6c5242" transform="matrix(1.10898 0 0 1.19379 5.883 -57.635)"/><ellipse cx="172.487" cy="101.601" rx="4.509" ry="4.188" style="fill:#6c5242" transform="matrix(1.10898 0 0 1.19379 5.672 -73.363)"/><ellipse cx="172.487" cy="101.601" rx="4.509" ry="4.188" style="fill:#6c5242" transform="matrix(1.10898 0 0 1.19379 -.769 -87.5)"/><ellipse cx="172.487" cy="101.601" rx="4.509" ry="4.188" style="fill:#6c5242" transform="matrix(1.10898 0 0 1.19379 -14.237 -94.532)"/><ellipse cx="172.487" cy="101.601" rx="4.509" ry="4.188" style="fill:#6c5242" transform="matrix(1.10898 0 0 1.19379 -29.252 -91.678)"/><ellipse cx="172.487" cy="101.601" rx="4.509" ry="4.188" style="fill:#6c5242" transform="matrix(1.10898 0 0 1.19379 -40.179 -82.89)"/><ellipse cx="172.487" cy="101.601" rx="4.509" ry="4.188" style="fill:#6c5242" transform="matrix(1.10898 0 0 1.19379 -47.374 -71.055)"/><ellipse cx="172.487" cy="101.601" rx="4.509" ry="4.188" style="fill:#6c5242" transform="matrix(1.10898 0 0 1.19379 10.928 -14.608)"/><ellipse cx="172.487" cy="101.601" rx="4.509" ry="4.188" style="fill:#6c5242" transform="matrix(1.10898 0 0 1.19379 14.398 2.428)"/><ellipse cx="172.487" cy="101.601" rx="4.509" ry="4.188" style="fill:#6c5242" transform="matrix(1.10898 0 0 1.19379 17.134 19.525)"/><ellipse cx="172.487" cy="101.601" rx="4.509" ry="4.188" style="fill:#6c5242" transform="matrix(1.10898 0 0 1.19379 17.458 36.544)"/><ellipse cx="172.487" cy="101.601" rx="4.509" ry="4.188" style="fill:#6c5242" transform="matrix(1.10898 0 0 1.19379 17.705 52.057)"/><ellipse cx="172.487" cy="101.601" rx="4.509" ry="4.188" style="fill:#6c5242" transform="matrix(1.10898 0 0 1.19379 15.18 65.5)"/><ellipse cx="172.487" cy="101.601" rx="4.509" ry="4.188" style="fill:#6c5242" transform="matrix(1.10898 0 0 1.19379 5.611 77.822)"/><ellipse cx="172.487" cy="101.601" rx="4.509" ry="4.188" style="fill:#faebdd" transform="matrix(1.10898 0 0 1.19379 4.076 49.535)"/><ellipse cx="172.487" cy="101.601" rx="4.509" ry="4.188" style="fill:#faebdd" transform="matrix(1.10898 0 0 1.19379 -.417 66.474)"/><ellipse cx="172.487" cy="101.601" rx="4.509" ry="4.188" style="fill:#faebdd" transform="matrix(1.10898 0 0 1.19379 -10.092 54.917)"/><ellipse cx="172.487" cy="101.601" rx="4.509" ry="4.188" style="fill:#fb9832" transform="matrix(1.10898 0 0 1.19379 -1.75 -5.864)"/><ellipse cx="172.487" cy="101.601" rx="4.509" ry="4.188" style="fill:#fb9832" transform="matrix(1.10898 0 0 1.19379 -18.985 71.134)"/><ellipse cx="172.487" cy="101.601" rx="4.509" ry="4.188" style="fill:#fb9832" transform="matrix(1.10898 0 0 1.19379 -7.727 76.709)"/><ellipse cx="172.487" cy="101.601" rx="4.509" ry="4.188" style="fill:#faebdd" transform="matrix(1.10898 0 0 1.19379 4.352 10.784)"/><ellipse cx="172.487" cy="101.601" rx="4.509" ry="4.188" style="fill:#faebdd" transform="matrix(1.10898 0 0 1.19379 -6.108 23.233)"/><ellipse cx="172.487" cy="101.601" rx="4.509" ry="4.188" style="fill:#faebdd" transform="matrix(1.10898 0 0 1.19379 -4.771 38.56)"/><ellipse cx="172.487" cy="101.601" rx="4.509" ry="4.188" style="fill:#faebdd" transform="matrix(1.10898 0 0 1.19379 6.817 27.597)"/><g transform="matrix(1.10898 0 0 1.19379 -11.864 6.543)"><ellipse cx="172.487" cy="101.601" rx="4.509" ry="4.188" style="fill:#fb9832"/><clipPath id="e"><ellipse cx="172.487" cy="101.601" rx="4.509" ry="4.188"/></clipPath><g clip-path="url(#e)"><path d="M178.528 124.288c.66 4.362 2.031 8.887 1.374 8.656-.352-.124-3.073-.744-3.08-4.203-.003-1.381 1.528-4.237 1.706-4.453" style="fill:#6c5242;stroke:#6c5242;stroke-width:1px" transform="matrix(.90173 0 0 .83767 8.388 -5.738)"/></g></g><ellipse cx="172.487" cy="101.601" rx="4.509" ry="4.188" style="fill:#fb9832" transform="matrix(1.10898 0 0 1.19379 -5.968 -19.728)"/><g transform="matrix(1.10898 0 0 1.19379 -17.845 -7.375)"><ellipse cx="172.487" cy="101.601" rx="4.509" ry="4.188" style="fill:#6c5242"/><clipPath id="f"><ellipse cx="172.487" cy="101.601" rx="4.509" ry="4.188"/></clipPath><g clip-path="url(#f)"><path d="M169.204 109.658c.873.725 2.245 2.392 3.443 4.294 1.139 1.806 1.764 4.063 1.909 4.255.663.882 5.252-4.452 2.159-8.118-2.277-2.698-5.858-1.691-7.511-.431" style="fill:#fb9832;stroke:#fb9832;stroke-width:1px" transform="matrix(.90173 0 0 .83767 16.698 6.966)"/></g></g><g transform="rotate(6.175 104.142 2448.679)scale(-1.125 1.125)"><path d="M142.389 69.174c1.569-11.391 47.244-45.98 45.874-.43-.269 8.932-2.511 18.575-4.881 19.726-9.183 4.459-42.729-6.694-40.993-19.296" style="fill:#faebdd"/><clipPath id="g"><path d="M142.389 69.174c1.569-11.391 47.244-45.98 45.874-.43-.269 8.932-2.511 18.575-4.881 19.726-9.183 4.459-42.729-6.694-40.993-19.296"/></clipPath><g clip-path="url(#g)"><path d="M153.612 83.475c13.412 6.405 35.332-48.27 19.041-40.509-11.409 5.435-26.705 13.939-29.482 21.842-2.654 7.553 5.172 16.15 10.441 18.667" style="fill:#fb9832;stroke:#fb9832;stroke-width:2px"/></g><path d="M142.389 69.174c1.569-11.391 47.244-45.98 45.874-.43-.269 8.932-2.511 18.575-4.881 19.726-9.183 4.459-42.729-6.694-40.993-19.296" style="fill:none;stroke:#6c5242;stroke-width:3.56px"/></g></svg>