<svg xmlns="http://www.w3.org/2000/svg" xml:space="preserve" style="fill-rule:evenodd;clip-rule:evenodd;stroke-linecap:round;stroke-linejoin:round;stroke-miterlimit:1.5" viewBox="0 0 440 440"><path d="M0 0h440v440H0z" style="fill:none"/><g transform="translate(-398.99 -86.195)scale(.54557)"><path d="M826.689 355.803c-90.631 100.532-98.175 408.993-38.941 476.309 60.003 68.191 214.392 123.141 351.382 122.511 155.43-.714 277.53-57.731 320.48-97.749 77.69-72.399 79.22-333.609 7.97-461.567-88.06-158.135-509.475-185.274-640.891-39.504" style="fill:#faebdd"/><clipPath id="a"><path d="M826.689 355.803c-90.631 100.532-98.175 408.993-38.941 476.309 60.003 68.191 214.392 123.141 351.382 122.511 155.43-.714 277.53-57.731 320.48-97.749 77.69-72.399 79.22-333.609 7.97-461.567-88.06-158.135-509.475-185.274-640.891-39.504"/></clipPath><g clip-path="url(#a)"><path d="M828.099 340.91c-6.496 46.662 1.882 123.028 34.122 133.181 24.482 7.71 98.86 18.164 114.154-4.09 23.418-34.075 15.997-112.918-3.673-129.817-17.966-15.434-144.38-.874-144.603.726" style="fill:#e67e00" transform="translate(231.759 -81.713)"/><path d="m826.131 340.636.257-.741.294-.389.343-.289.775-.361c.556-.18 1.786-.438 3.598-.733 14.616-2.379 70.156-8.209 107.731-6.711 9.783.389 18.361 1.28 24.725 2.837 4.554 1.114 8.025 2.61 10.142 4.428 8.105 6.963 14.366 24.068 17.208 44.415 4.206 30.113 1.089 67.255-13.192 88.034-4.835 7.036-15.189 11.156-28.132 12.997-28.943 4.114-70.947-2.686-88.256-8.137-13.399-4.22-23.05-19.285-29.113-39.142-8.831-28.923-10.312-67.96-6.38-96.208m3.765 1.809c-3.647 27.639-2.128 65.258 6.415 93.239 5.608 18.365 14.113 32.609 26.507 36.512 16.965 5.343 58.134 12.026 86.503 7.993 11.619-1.652 21.076-4.997 25.417-11.313 13.82-20.111 16.601-56.091 12.531-85.235-2.676-19.158-8.231-35.394-15.862-41.95-1.764-1.515-4.703-2.654-8.498-3.582-6.16-1.507-14.468-2.35-23.938-2.727-37.297-1.487-92.426 4.301-106.935 6.663a50 50 0 0 0-2.14.4" style="fill:#e67e00" transform="translate(231.759 -81.713)"/><path d="M520.983 1488.31c-.878 44.97-62.572 58.24-55.939 63.49 77.609 61.46 288.78 156.99 617.336 153.24 279.14-3.18 537.03-157.62 496.24-148.81-32.95 7.12-83.4-14.12-96.78-56.08-8.46-26.51-120 55.92-433.84 60.99-280.495 4.53-425.438-37.32-527.017-72.83" style="fill:#e67e00;stroke:#e67e00;stroke-width:1.87px" transform="translate(598.908 49.094)scale(.53025)"/><path d="M881.563 327.281c-19.744 15.423-2.014 115.735 33.989 117.356 14.863.669 175.258-35.274 171.998-44.113-7.04-19.045-28.32-74.178-14.07-83.686 19.46-12.978-19.56-1.504-94.607 20.062-32.335 9.292-83.655-20.287-97.31-9.619" style="fill:#e67e00" transform="rotate(119.041 903.153 363.734)skewX(8.007)"/><path d="M880.462 325.787c1.943-1.517 4.514-2.416 7.627-2.722 4.094-.402 9.234.206 15.064 1.397 13.065 2.667 29.769 8.245 45.925 10.876 10.473 1.705 20.702 2.185 29.492-.341 52.81-15.176 87.89-25.329 97.46-25.611 1.67-.049 2.78.233 3.36.612l.63.59.24.425.15.492.04.618-.1.581-.29.744c-.1.194-.23.401-.38.617-.74 1.017-2.44 2.5-5.25 4.373-1.68 1.125-2.62 3.115-3.17 5.641-.67 3.038-.72 6.786-.36 10.987 1.8 20.527 13.65 51.317 18.54 64.556l.13.522.03.561-.27 1.066c-.28.633-.84 1.376-1.8 2.12-2.25 1.744-7.45 4.029-14.78 6.548-40.06 13.773-145.617 36.721-157.566 36.183-9.116-.411-17.229-6.68-23.844-16.408-9.535-14.021-16.087-35.21-18.701-54.904-1.753-13.204-1.73-25.74.287-35.011 1.459-6.706 4.042-11.782 7.536-14.512m204.958 75.015c-5.09-13.746-16.72-44.355-18.52-64.852-.49-5.639-.23-10.555 1-14.237.96-2.869 2.51-5.06 4.63-6.475a36 36 0 0 0 2.43-1.735c-1.24.072-2.95.221-4.67.533-14.21 2.566-46.19 11.858-91.115 24.768-8.007 2.301-17.146 2.326-26.602 1.135-13.822-1.741-28.349-6.065-40.918-9.276-8.161-2.085-15.47-3.706-21.172-3.749-3.287-.025-5.969.414-7.82 1.86-2.823 2.206-4.639 6.411-5.818 11.83-1.94 8.915-1.911 20.961-.226 33.658 2.543 19.159 8.871 39.792 18.147 53.432 5.925 8.713 12.988 14.591 21.154 14.958 11.832.533 116.34-22.312 156.01-35.95 5.76-1.983 10.12-3.744 12.54-5.222.35-.207.7-.48.95-.678" style="fill:#e67e00" transform="rotate(119.041 903.153 363.734)skewX(8.007)"/><path d="M869.19 325.678c-19.743 15.423 3.887 118.467 39.89 120.088 14.863.669 181.73-36.403 178.47-45.242-7.04-19.045-28.32-74.178-14.07-83.686 19.46-12.978-19.56-1.504-94.607 20.062-32.335 9.292-96.027-21.89-109.683-11.222" style="fill:#e67e00" transform="rotate(60.959 507.754 393.796)scale(1 -1)skewX(8.007)"/><path d="M868.09 324.185c-3.512 2.743-5.965 7.918-7.149 14.788-1.628 9.445-1.029 22.263 1.416 35.78 3.643 20.147 11.37 41.86 21.678 56.227 7.139 9.951 15.588 16.362 24.677 16.771 11.946.537 121.638-23.13 163.348-37.19 7.61-2.563 13.02-4.876 15.37-6.633.98-.74 1.57-1.481 1.87-2.108l.19-.517.1-.566-.01-.578-.14-.537c-4.89-13.239-16.74-44.029-18.54-64.556-.36-4.201-.31-7.949.36-10.987.55-2.526 1.49-4.516 3.17-5.641 2.81-1.873 4.51-3.356 5.25-4.373.15-.216.28-.423.38-.617l.29-.744.1-.581-.04-.618-.15-.492-.24-.425-.63-.59c-.58-.379-1.69-.661-3.36-.612-9.57.282-44.65 10.435-97.46 25.611-8.811 2.532-20.008 1.919-31.866.033-18.255-2.903-38.019-8.878-53.269-11.829-6.742-1.304-12.634-2.015-17.177-1.679-3.469.256-6.234 1.152-8.168 2.663m206.87-10.682a36 36 0 0 1-2.43 1.735c-2.12 1.415-3.67 3.606-4.63 6.475-1.23 3.682-1.49 8.598-1 14.237 1.8 20.48 13.41 51.055 18.5 64.818-.3.232-.76.57-1.2.825-1.68.959-4.16 2.039-7.31 3.226-1.69.639-3.58 1.305-5.62 1.996-41.33 13.929-149.987 37.499-161.822 36.966-8.192-.369-15.599-6.419-22.034-15.388-10.053-14.012-17.55-35.207-21.104-54.856-2.353-13.014-2.983-25.344-1.416-34.438.947-5.49 2.59-9.735 5.397-11.928 1.343-1.05 3.295-1.509 5.705-1.687 4.275-.315 9.81.395 16.154 1.622 15.285 2.957 35.095 8.941 53.391 11.85 12.51 1.99 24.338 2.519 33.634-.152 44.925-12.91 76.905-22.202 91.115-24.768 1.72-.312 3.43-.461 4.67-.533" style="fill:#e67e00" transform="rotate(60.959 507.754 393.796)scale(1 -1)skewX(8.007)"/></g><path d="M820.787 350.482c32.438-35.981 81.955-61.9 139.89-77.991 85.573-23.767 189.573-26.204 282.543-9.202 104.67 19.14 195.16 63.245 231.3 128.152 43.41 77.958 60.42 204.592 49.88 309.333-7.15 71.061-27.26 131.988-59.38 161.914-43.68 40.707-167.75 99.155-325.85 99.882-139.405.641-296.328-55.816-357.388-125.208-10.093-11.47-18.54-29.43-24.921-52.088-9.14-32.461-14.261-74.833-15.042-120.815-1.956-115.086 23.599-252.56 78.968-313.977m11.805 10.643c-53.389 59.22-76.768 192.093-74.882 303.064.755 44.441 5.616 85.404 14.45 116.777 5.603 19.897 12.691 35.825 21.553 45.897 58.947 66.989 210.807 120.432 345.387 119.813 152.75-.702 272.89-56.287 315.09-95.616 30.04-27.994 47.71-85.404 54.4-151.878 10.22-101.561-5.86-224.417-47.96-300.009-34.3-61.601-120.93-102.085-220.27-120.25-90.63-16.574-192.01-14.286-275.43 8.882-54.726 15.2-101.697 39.331-132.338 73.32" style="fill:#564030"/><path d="M917.803 399.97c48.191-28.084 381.147-24.733 424.537-1.711 100.78 53.486 87.55 239.253 84.98 284.426-3.72 65.485-21.21 149.562-42.62 164.196-42.03 28.729-140.83 40.407-241.19 40.04-101.8-.372-204.761-18.093-260.387-42.913-38.524-17.189-55.457-137.536-50.979-211.232 9.742-160.319 43.532-208.255 85.659-232.806" style="fill:#c58c66"/><clipPath id="b"><path d="M917.803 399.97c48.191-28.084 381.147-24.733 424.537-1.711 100.78 53.486 87.55 239.253 84.98 284.426-3.72 65.485-21.21 149.562-42.62 164.196-42.03 28.729-140.83 40.407-241.19 40.04-101.8-.372-204.761-18.093-260.387-42.913-38.524-17.189-55.457-137.536-50.979-211.232 9.742-160.319 43.532-208.255 85.659-232.806"/></clipPath><g clip-path="url(#b)"><path d="M948.06 423.488c38.839-11.69 116.32-10.665 196.37-10.706 84.61-.043 163.33.245 189.46 13.411 60.38 30.423 64.05 120.64 66.72 188.301 3.94 99.692-15.24 180.866-36 201.805-46.02 46.412-354.33 50.975-462.167-1.203-30.019-14.525-50.036-146.284-36.141-248.17 7.644-56.042 28.61-127.442 81.758-143.438" style="fill:#4b3d33"/><path d="M946.915 419.683c39.066-11.758 116.995-10.834 197.515-10.874 50.89-.026 99.64.073 136.17 3.003 24.96 2.002 44.33 5.419 55.07 10.832 25.07 12.629 40.82 35.102 50.75 62.116 14.49 39.422 16.54 88.594 18.16 129.578 2.78 70.376-5.91 131.597-18.53 169.241-5.61 16.749-12.1 28.941-18.62 35.517-5.84 5.889-15.62 11.237-28.6 15.824-18.63 6.583-44.03 11.757-73.48 15.392-113.92 14.06-288.684 5.11-364.637-31.64-4.12-1.993-8.157-5.833-11.9-11.398-5.081-7.553-9.767-18.428-13.841-31.772-15.432-50.548-22.413-137.208-12.606-209.113 4.656-34.144 14.247-73.884 32.781-103.736 12.698-20.453 29.583-36.293 51.768-42.97m2.29 7.61c-20.333 6.12-35.668 20.806-47.307 39.551-17.97 28.945-27.144 67.514-31.659 100.619-9.647 70.736-2.847 155.992 12.333 205.719 3.799 12.442 8.097 22.614 12.835 29.657 2.802 4.166 5.682 7.187 8.767 8.68 75.023 36.3 247.686 44.793 360.206 30.906 28.77-3.552 53.6-8.566 71.8-14.998 11.58-4.09 20.4-8.675 25.61-13.926 7.99-8.067 15.56-25.5 21.74-49.561 9.56-37.185 15.45-89.93 13.11-149.289-1.59-40.21-3.46-88.472-17.68-127.148-9.21-25.052-23.62-46.051-46.86-57.762-10.16-5.119-28.53-8.114-52.14-10.008-36.35-2.916-84.88-3.003-135.53-2.978-79.58.041-156.613-1.084-195.225 10.538" style="fill:#4b3d33"/></g><path d="M914.802 394.821c6.17-3.596 16.679-6.826 30.54-9.478 30.54-5.841 78.128-9.337 130.068-10.696 77.63-2.032 165.01.683 219.42 7.244 24.24 2.924 42.15 6.777 50.3 11.104 41.77 22.168 64.94 66.069 77.18 114.004 17.89 70.114 12.52 148.638 10.96 176.025-2.64 46.44-12.16 102.102-25.05 136.41-6.01 16.01-13.07 27.524-20.16 32.368-42.63 29.141-142.77 41.451-244.58 41.079-102.73-.376-206.641-18.378-262.785-43.43-12.623-5.632-23.588-21.06-31.971-42.555-18.175-46.598-25.71-122.133-22.529-174.482 9.959-163.882 45.544-212.497 88.607-237.593m6.002 10.298c-41.191 24.006-73.185 71.26-82.711 228.018-3.088 50.827 4.09 124.184 21.736 169.428 6.969 17.868 15.23 31.319 25.723 36.001 55.108 24.588 157.128 42.026 257.978 42.395 98.92.361 196.38-10.684 237.81-39 5.76-3.938 10.83-13.701 15.72-26.719 12.56-33.42 21.74-87.657 24.31-132.895 1.53-26.821 6.92-103.733-10.61-172.4-11.38-44.586-32.36-85.803-71.22-106.423-7.46-3.962-23.94-7.121-46.14-9.799-53.98-6.509-140.66-9.178-217.68-7.162-43.91 1.149-84.678 3.818-114.401 8.189-18.918 2.783-33.198 6.104-40.515 10.367" style="fill:#4b3d33"/><g transform="rotate(23.835 152.348 5843.7)scale(-1 .90849)"><path d="M905.795 338.399c19.668 28.28 148.275 53.685 188.875 1.675 19.96-25.572-41.3-156.303-96.259-164.639-70.659-10.719-104.61 145.719-92.616 162.964" style="fill:#f1ece8"/><clipPath id="c"><path d="M905.795 338.399c19.668 28.28 148.275 53.685 188.875 1.675 19.96-25.572-41.3-156.303-96.259-164.639-70.659-10.719-104.61 145.719-92.616 162.964"/></clipPath><g clip-path="url(#c)"><path d="M891.087 173.978c75.29 91.204 61.41 173.648 56.985 194.244-4.421 20.575 91.128-20.718 95.248-47.842 6.38-42.033-8.92-70.2-70.73-125.167-44.901-39.933-86.514-27.306-81.503-21.235" style="fill:#e67e00" transform="rotate(14.543 955.752 533.43)"/><path d="M889.627 175.388c74.526 90.279 60.876 171.86 56.496 192.246-.403 1.875-.172 3.407.456 4.63.6 1.171 1.593 2.114 3.005 2.745 1.569.702 3.765 1.025 6.468.915 15.856-.642 51.368-16.058 72.378-32.844 9.37-7.488 15.82-15.374 16.86-22.248 6.48-42.673-8.73-71.474-71.478-127.277-36.866-32.787-71.654-30.692-81.428-25.496-4.04 2.147-4.457 5.269-2.757 7.329m3.266-2.4c.21-.208.525-.495.828-.685 1.118-.703 2.745-1.335 4.801-1.841 13.039-3.203 42.135-.904 72.846 26.408 60.872 54.132 76.262 81.665 69.972 123.059-.81 5.337-5.53 11.141-12.24 16.989-16.5 14.392-45.159 28.353-63.722 33.051-5.432 1.375-9.953 1.974-12.966 1.446-1.124-.197-1.998-.422-2.362-1.132-.199-.389-.158-.878-.03-1.473 4.463-20.773 18.537-103.859-57.127-195.822" style="fill:#e67e00" transform="rotate(14.543 955.752 533.43)"/></g><path d="M899.485 343.716c4.538 6.526 13.903 13.269 26.68 18.841 17.218 7.511 40.918 13.403 65.602 15.509 42.363 3.613 87.263-4.534 108.933-32.291 3.37-4.327 5.45-10.665 5.74-18.707.34-9.393-1.71-21.579-5.84-35.053-9.1-29.696-28.25-66.141-50.74-91.852-15.85-18.131-33.48-30.833-50.364-33.394-19.369-2.938-36.403 4.869-50.796 19.088-19.857 19.616-34.594 51.864-43.4 81.96-6.854 23.429-10.122 45.506-9.798 59.119.191 8.036 1.898 13.783 3.983 16.78m12.758-10.438c-.079-.296-.448-1.698-.577-2.728-.321-2.56-.37-5.746-.201-9.423.567-12.371 3.624-29.696 8.964-47.947 6.674-22.812 16.906-47.099 30.609-64.871 12.483-16.192 27.837-27.008 46.289-24.209 13.903 2.108 28.033 13.265 41.083 28.195 20.89 23.881 38.68 57.729 47.13 85.311 3.39 11.073 5.3 21.043 5.02 28.762-.13 3.371-.5 6.191-1.92 8.005-7.22 9.255-17.66 15.61-29.75 19.885-19.47 6.889-43.14 8.307-65.895 6.366-22.937-1.957-44.975-7.352-60.975-14.331-9.244-4.031-16.388-8.306-19.777-13.015" style="fill:#564030"/></g><g transform="rotate(-13.83 968.942 592.834)scale(1 .9271)"><path d="M905.795 338.399c19.668 28.28 148.275 53.685 188.875 1.675 19.96-25.572-41.3-156.303-96.259-164.639-70.659-10.719-104.61 145.719-92.616 162.964" style="fill:#f1ece8"/><clipPath id="d"><path d="M905.795 338.399c19.668 28.28 148.275 53.685 188.875 1.675 19.96-25.572-41.3-156.303-96.259-164.639-70.659-10.719-104.61 145.719-92.616 162.964"/></clipPath><g clip-path="url(#d)"><path d="M891.087 173.978c75.29 91.204 61.41 173.648 56.985 194.244-4.421 20.575 91.128-20.718 95.248-47.842 6.38-42.033-8.92-70.2-70.73-125.167-44.901-39.933-86.514-27.306-81.503-21.235" style="fill:#e67e00" transform="rotate(14.543 955.752 533.43)"/><path d="M889.611 175.355c-1.692-2.05-1.244-5.114 2.776-7.251 3.025-1.607 8.354-2.944 15.373-3.045 15.788-.226 40.415 5.715 66.074 28.535 62.716 55.776 77.936 84.551 71.456 127.203-1.04 6.873-7.49 14.749-16.86 22.235-21.01 16.79-56.536 32.209-72.397 32.851-2.706.11-4.905-.214-6.476-.916-1.402-.627-2.39-1.56-2.986-2.722-.619-1.208-.844-2.721-.446-4.572 4.381-20.394 18.039-102.006-56.514-192.318m3.255-2.388c75.686 91.951 61.615 175.035 57.153 195.804-.133.619-.168 1.128.039 1.531.366.715 1.246.956 2.379 1.154 3.01.528 7.526-.071 12.952-1.445 18.559-4.697 47.211-18.655 63.711-33.045 6.71-5.85 11.44-11.663 12.25-17.002 6.29-41.415-9.11-68.974-70.004-123.132-30.708-27.311-59.798-29.615-72.835-26.412-2.052.504-3.676 1.135-4.792 1.836-.315.198-.643.502-.853.711" style="fill:#e67e00" transform="rotate(14.543 955.752 533.43)"/></g><path d="M899.438 343.542c-2.421-3.48-4.232-11.027-3.913-21.546.576-18.976 6.753-49.857 18.276-78.934 8.342-21.053 19.493-41.125 33.132-55.286 14.763-15.331 32.418-23.889 52.585-20.829 16.882 2.561 34.542 15.262 50.402 33.401 22.46 25.689 41.6 62.101 50.69 91.772 4.12 13.429 6.17 25.573 5.83 34.934-.29 7.969-2.35 14.254-5.69 18.541-21.69 27.775-66.61 35.91-108.996 32.295-24.699-2.107-48.412-8.003-65.641-15.518-12.775-5.572-22.137-12.304-26.675-18.83m12.837-10.111c3.383 4.718 10.538 9.01 19.796 13.048 15.99 6.974 38.014 12.366 60.936 14.321 22.733 1.939 46.383.524 65.843-6.359 12.08-4.274 22.52-10.635 29.74-19.888 1.45-1.853 1.84-4.727 1.97-8.171.28-7.751-1.63-17.763-5.04-28.882-8.46-27.607-26.26-61.487-47.16-85.389-13.05-14.923-27.16-26.081-41.055-28.188-15.163-2.3-28.249 4.677-39.35 16.203-12.226 12.695-22.061 30.801-29.54 49.673-10.627 26.818-16.474 55.258-17.005 72.758-.1 3.294-.013 6.147.313 8.448.129.912.479 2.168.552 2.426" style="fill:#564030"/></g></g></svg>