<?xml version="1.0" encoding="UTF-8" standalone="no"?>
<!DOCTYPE svg PUBLIC "-//W3C//DTD SVG 1.1//EN" "http://www.w3.org/Graphics/SVG/1.1/DTD/svg11.dtd">
<svg width="100%" height="100%" viewBox="0 0 200 200" version="1.1" xmlns="http://www.w3.org/2000/svg" xmlns:xlink="http://www.w3.org/1999/xlink" xml:space="preserve" xmlns:serif="http://www.serif.com/" style="fill-rule:evenodd;clip-rule:evenodd;stroke-linejoin:round;stroke-miterlimit:2;">
    <g transform="matrix(0.117004,0,0,0.120234,-39.8368,-38.747)">
        <g transform="matrix(1.75694,0,0,1.75694,-816.669,272.657)">
            <path d="M751.246,352.83C691.073,416.947 673.066,496.534 673.445,597.842C673.88,714.017 711.467,828.782 737.836,868.564C807.48,973.633 988.809,960.635 1125.8,960.005C1281.23,959.291 1447.52,964.789 1510.82,904.824C1614.33,806.757 1628.03,519.557 1548.59,379.136C1472.64,244.871 875.726,220.19 751.246,352.83Z" style="fill:white;"/>
            <path d="M740.47,343.253C677.881,409.945 658.457,492.518 658.852,597.894C659.299,717.397 698.447,835.34 725.573,876.262C755.438,921.318 804.133,946.626 861.608,960.127C943.105,979.272 1042.57,974.59 1125.87,974.207C1219.88,973.775 1317.82,975.514 1394.93,963.984C1449.48,955.826 1493.91,940.662 1521,915C1564.24,874.037 1593.13,801.746 1606.13,720.031C1625.31,599.508 1610.32,458.798 1561.38,372.287C1548.03,348.696 1520.5,327.63 1482.33,310.415C1429.07,286.393 1354.54,269.125 1272.7,259.573C1150.97,245.364 1013.02,248.117 905.786,269.954C831.573,285.066 771.889,309.774 740.47,343.253ZM762.022,362.407C790.354,332.217 844.842,311.383 911.764,297.755C1016.23,276.481 1150.63,273.932 1269.23,287.774C1347.6,296.922 1419.05,313.179 1470.06,336.185C1501.4,350.324 1524.85,366.609 1535.81,385.984C1582.19,467.979 1595.47,601.455 1577.29,715.685C1565.39,790.474 1540.21,857.157 1500.64,894.648C1477.09,916.959 1437.92,928.818 1390.49,935.91C1314.62,947.256 1218.23,945.379 1125.73,945.804C1044.64,946.177 947.793,951.155 868.457,932.517C818.708,920.831 775.95,899.866 750.1,860.866C724.486,822.223 688.462,710.637 688.039,597.79C687.675,500.55 704.265,423.95 762.022,362.407Z" style="fill:rgb(43,37,37);"/>
            <g transform="matrix(0.9859,0,0,0.975409,21.222,-4.64572)">
                <path d="M844.201,447.297C926.026,364.219 1370.18,392.836 1415.12,438.861C1494.58,520.258 1466.22,800.183 1404.18,867.108C1348.44,927.239 917.144,934.125 854.219,866.14C807.212,815.354 783.131,509.302 844.201,447.297Z"/>
                <path d="M840.657,443.921C830.43,454.304 822.343,471.157 816.413,492.477C807.823,523.359 803.578,563.793 802.873,606.812C801.645,681.802 811.148,764.659 826.682,818.149C833.564,841.847 841.764,859.894 850.57,869.408C860.445,880.077 878.887,889.183 903.478,896.403C958.673,912.609 1045.52,920.042 1131.93,919.521C1218.31,919 1304.24,910.535 1357.65,895.157C1381.52,888.282 1399.05,879.844 1407.83,870.378C1423.1,853.906 1436.52,824.919 1446.75,789.119C1461.85,736.335 1470.23,668.63 1468.39,605.355C1466.33,534.208 1451.1,468.711 1418.67,435.5C1411.57,428.222 1395.12,421.07 1371.79,414.953C1319.87,401.345 1232.87,391.588 1143.59,389.813C1067.05,388.291 988.838,392.638 929.63,405.358C889.191,414.046 857.514,426.805 840.657,443.92L840.657,443.921ZM847.745,450.674C863.618,434.558 893.657,423.022 931.736,414.841C990.305,402.258 1067.68,398.012 1143.39,399.518C1231.75,401.274 1317.87,410.864 1369.25,424.332C1390.18,429.82 1405.18,435.693 1411.56,442.222C1442.71,474.13 1456.55,537.278 1458.53,605.632C1460.34,667.906 1452.11,734.542 1437.26,786.49C1427.52,820.512 1415.05,848.185 1400.54,863.838C1392.59,872.411 1376.5,879.616 1354.87,885.842C1302.11,901.034 1217.2,909.3 1131.87,909.814C1058.67,910.256 985.146,904.986 931.283,893.379C896.478,885.878 870,875.981 857.867,862.873C849.751,854.104 842.514,837.326 836.171,815.483C820.845,762.709 811.528,680.954 812.74,606.968C813.43,564.857 817.522,525.269 825.931,495.038C831.333,475.616 838.428,460.133 847.744,450.674L847.745,450.674Z"/>
            </g>
        </g>
        <g transform="matrix(1.32751,0,0,1.17072,-137.386,211.451)">
            <path d="M970.258,374.233C970.822,349.254 976.525,232.521 982.125,221.321C985.732,214.107 1039.25,164.532 1092.43,141.734C1136.55,122.823 1195.83,109.016 1273.68,130.03C1331.36,145.601 1410.02,207.816 1415.98,225.537C1420.83,239.979 1305.05,330.222 1189.33,327.223C1101.9,324.957 982.125,274.651 982.125,221.321" style="fill:rgb(147,181,54);"/>
            <path d="M967.799,207.035C966.824,208.226 965.97,209.538 965.256,210.949L965.214,211.025L965.193,211.069C964.372,212.72 963.742,214.504 963.338,216.384C962.045,220.983 960.663,227.812 959.645,236.345C955.228,273.369 951.408,353.386 950.95,373.702C950.684,385.462 959.121,395.246 969.777,395.539C980.434,395.832 989.301,386.523 989.567,374.764C989.883,360.75 991.84,317.462 994.485,280.689C995.904,281.949 997.367,283.193 998.875,284.423C1042.13,319.718 1123.87,346.845 1188.88,348.53C1287.18,351.077 1385.48,290.125 1418.24,257.844C1426.46,249.748 1431.28,242.423 1433.24,237.537C1436.38,229.698 1435.75,223.063 1434.09,218.126C1431.73,211.116 1421.84,197.698 1405.56,183.373C1374.99,156.471 1321.12,120.895 1278.27,109.328C1195.45,86.97 1132.38,101.747 1085.44,121.868C1040.45,141.154 995.203,178.516 976.962,196.614C972.828,200.716 969.793,204.324 967.799,207.035ZM1391.13,226.142C1388.28,223.114 1384.87,219.687 1381.47,216.698C1354.43,192.899 1306.99,160.965 1269.09,150.733C1196.22,131.062 1140.73,143.899 1099.43,161.601C1059.2,178.843 1018.71,212.358 1002.93,228.135C1004.36,231.525 1006.72,234.826 1009.51,238.19C1016.68,246.806 1027,254.858 1039.24,262.342C1079.73,287.099 1140.27,304.632 1189.79,305.916C1248.7,307.443 1307.58,283.061 1348.61,258.412C1365.64,248.186 1382.11,234.238 1391.13,226.142Z" style="fill:rgb(43,37,37);"/>
        </g>
        <g transform="matrix(1.39378,0,0,1.35777,-216.629,187.682)">
            <path d="M965.024,132.95C962.506,169.986 962.433,199.874 961.927,238.711C961.795,248.853 969.93,257.193 980.082,257.325C990.234,257.458 998.584,249.331 998.716,239.19C999.212,201.092 999.261,171.772 1001.73,135.441C1002.42,125.322 994.754,116.549 984.625,115.861C974.495,115.174 965.712,122.831 965.024,132.95Z" style="fill:rgb(43,37,37);"/>
        </g>
    </g>
    <g transform="matrix(4.18765,0,0,0.98594,-289.9,0.091256)">
        <path d="M90.149,46.215C89.957,48.598 90.21,51.274 90.757,52.405C91.349,53.631 92.064,52.583 92.353,50.067C92.545,48.394 92.417,49.938 92.565,45.19C92.869,35.489 93.37,14.191 93.35,6.436C93.343,3.637 92.802,1.389 92.143,1.42C91.484,1.45 90.955,3.747 90.962,6.546C90.981,14.012 90.491,34.513 90.198,43.852C90.167,44.867 90.154,45.657 90.149,46.215Z" style="fill:rgb(43,37,37);"/>
    </g>
    <g transform="matrix(0.884311,0,0,0.85197,5.84075,5.91794)">
        <rect x="51.692" y="100.638" width="31.505" height="30.505" style="fill:rgb(147,181,54);"/>
    </g>
    <g transform="matrix(0.884311,0,0,0.85197,22.8138,56.7363)">
        <rect x="51.692" y="100.638" width="31.505" height="30.505" style="fill:rgb(147,181,54);"/>
    </g>
    <g transform="matrix(0.884311,0,0,0.85197,53.9432,56.5993)">
        <rect x="51.692" y="100.638" width="31.505" height="30.505" style="fill:rgb(147,181,54);"/>
    </g>
    <g transform="matrix(0.884311,0,0,0.85197,72.1376,6.35243)">
        <rect x="51.692" y="100.638" width="31.505" height="30.505" style="fill:rgb(147,181,54);"/>
    </g>
</svg>
