<?xml version="1.0" encoding="UTF-8" standalone="no"?>
<!DOCTYPE svg PUBLIC "-//W3C//DTD SVG 1.1//EN" "http://www.w3.org/Graphics/SVG/1.1/DTD/svg11.dtd">
<svg width="100%" height="100%" viewBox="0 0 32 32" version="1.1" xmlns="http://www.w3.org/2000/svg" xmlns:xlink="http://www.w3.org/1999/xlink" xml:space="preserve" xmlns:serif="http://www.serif.com/" style="fill-rule:evenodd;clip-rule:evenodd;stroke-linejoin:round;stroke-miterlimit:2;">
    <g transform="matrix(0.0473163,-0.000841546,0.000721013,0.0445208,-46.4367,-3.48857)">
        <path d="M1265.01,503.518C1264.56,507.441 1265.13,511.694 1265.56,516.01C1266.91,529.322 1270.02,543.17 1271.58,556.192C1275.06,585.409 1270.76,611.266 1251.96,630.068C1239.05,642.97 1107.05,748.107 1098.14,754.518C1083.67,764.939 1063.94,760.898 1054.11,745.5C1044.29,730.102 1048.06,709.14 1062.53,698.72C1070.97,692.643 1196.25,593.194 1208.48,580.964C1209.53,579.912 1209.21,578.326 1209.31,576.836C1209.48,574.198 1209.35,571.441 1209.11,568.601C1208.29,559.036 1206.23,548.876 1204.62,538.755C1200.5,512.729 1200.16,487.083 1210.61,466.169C1218.32,450.768 1231.3,441.446 1248.39,437.666C1257.36,435.682 1267.87,435.402 1278.54,435.808C1287.47,436.148 1296.59,437.696 1303.25,436.032C1306.98,435.098 1311.18,430.661 1315.78,426.669C1326.59,417.29 1336.77,406.052 1339.15,402.735C1349.75,387.962 1369.66,385.135 1383.58,396.425C1397.49,407.715 1400.18,428.874 1389.58,443.647C1385.53,449.296 1366.39,471.156 1347.87,485.504C1337.24,493.746 1326.44,499.472 1317.86,501.618C1307.05,504.32 1292.46,503.822 1277.94,503.204C1274.22,503.046 1268.77,503.29 1265.01,503.518Z" style="fill:rgb(141,81,20);"/>
    </g>
    <g transform="matrix(0.0473163,-0.000841546,0.000721013,0.0445208,-46.4367,-3.48857)">
        <path d="M1017.74,582.228L1018.22,581.532C1026.24,569.618 1055.51,520.402 1078.93,487.191C1092.9,467.384 1106.28,453.198 1113.28,449.699C1120.84,445.92 1131.59,445.128 1143.82,448.276C1159.25,452.248 1178.93,463.216 1190.66,466.148C1199.27,468.301 1210.6,469.148 1219.39,469.148C1221.29,469.148 1232.33,469.446 1234.48,469.58C1257.66,471.021 1253.03,501.012 1252.56,502.009C1248.62,510.49 1240.29,515.147 1231.92,514.415C1230.55,514.371 1220.93,514.065 1219.46,514.065C1207.7,514.065 1192.56,512.75 1181.04,509.871C1172,507.609 1158.5,501.098 1145.49,495.902C1140.88,494.058 1134.02,492.305 1130.81,491.528C1127.38,495.467 1119.06,505.235 1112.76,514.169C1086,552.112 1051.45,610.103 1048.07,613.49C1039.58,621.977 1026.19,621.534 1018.2,612.5C1010.64,603.969 1010.58,590.81 1017.74,582.228ZM1224.72,512.39L1224.75,512.4L1224.57,512.309L1224.72,512.39ZM1223.78,511.889C1213.67,506.235 1209.58,492.995 1214.67,482.061C1212.05,487.683 1211.78,493.358 1213.56,499.065C1214.64,502.55 1216.91,508.126 1223.78,511.889Z" style="fill:rgb(141,81,20);"/>
    </g>
    <g transform="matrix(0.0473163,-0.000841546,0.000721013,0.0445208,-46.4367,-3.48857)">
        <path d="M1100.14,505.214C1103.12,510.472 1118.55,537.868 1121.47,546.625C1127.02,563.282 1124.6,578.543 1119.33,592.83C1114.96,604.682 1108.46,615.739 1104.57,626.381C1102.46,632.155 1096.34,635.016 1090.9,632.765C1085.47,630.514 1082.77,623.998 1084.87,618.224C1088.77,607.561 1095.28,596.48 1099.66,584.603C1103.14,575.161 1105.22,565.104 1101.55,554.095C1098.49,544.902 1082.1,517.31 1080.66,514.157C1077.18,506.575 1081.95,501.644 1082.64,500.927C1083.53,499.997 1091.57,493.228 1098.4,502.017C1099.16,503.001 1099.75,504.082 1100.14,505.214ZM1087.57,520.01C1085.5,519.434 1083.58,518.186 1082.12,516.301C1084.02,518.757 1086.04,519.677 1087.57,520.01Z" style="fill:rgb(141,81,20);"/>
    </g>
    <g transform="matrix(0.0473163,-0.000841546,0.000721013,0.0445208,-46.4367,-3.48857)">
        <path d="M1324.13,567.462C1315.83,549.498 1306.75,525.433 1303.07,507.034C1301.77,500.498 1297.73,494.175 1296.12,487.749C1295.04,483.389 1293.44,478.938 1293.35,478.332C1291.18,463.323 1300.46,457.19 1304.48,454.972C1309.08,452.43 1317.27,449.226 1326.96,456.981C1330.76,460.022 1333.32,464.163 1334.55,468.675C1335.16,470.363 1336.34,473.76 1336.97,476.279C1338.75,483.403 1342.96,490.517 1344.41,497.762C1347.93,515.356 1357.62,539.112 1365.18,554.234C1367.68,559.246 1369.52,570.801 1363.38,585.386C1357.7,598.865 1344.76,620.689 1335.26,639.71C1331.31,647.623 1327.14,659.355 1326.87,660.107C1326.58,672.226 1317.23,681.95 1305.76,681.931C1294.09,681.911 1284.62,671.832 1284.62,659.437C1284.62,649.587 1290.97,632.01 1300.44,613.647C1308.31,598.384 1319.71,576.105 1324.13,567.462ZM1313.15,497.337C1309.1,497.109 1305.06,495.639 1301.57,492.848C1306.04,496.419 1310.15,497.205 1313.15,497.337ZM1332.84,485.666C1332.35,486.618 1331.79,487.543 1331.16,488.434C1327.29,493.906 1321.5,496.958 1315.53,497.326C1322.99,496.997 1329.09,493.597 1332.84,485.666Z" style="fill:rgb(141,81,20);"/>
    </g>
    <g transform="matrix(0.0473163,-0.000841546,0.000721013,0.0445208,-46.4367,-3.48857)">
        <path d="M1183.66,652.608L1183.93,652.984C1188.53,659.466 1212.96,693.407 1219.03,705.543C1225.77,719.024 1225.25,733.983 1220.46,749.529C1215.5,765.651 1205.25,782.625 1201.11,798.333C1198.75,807.281 1190,812.499 1181.58,809.978C1173.15,807.456 1168.23,798.145 1170.59,789.197C1174.25,775.332 1182.22,760.457 1187.86,746.021C1191.29,737.224 1194.8,728.834 1191.04,721.315C1185.48,710.179 1162.85,679.189 1158.63,673.242C1145.84,655.214 1178.28,647.339 1179.13,647.921C1180.98,649.185 1182.5,650.79 1183.66,652.608ZM1180.4,675.304C1175.24,679.638 1167.85,680.237 1162,676.236C1170.87,682.304 1177.44,677.855 1180.4,675.304ZM1185.19,655.616C1187.12,660.552 1186.82,666.378 1183.9,671.205C1183.09,672.555 1182.12,673.739 1181.03,674.744C1183.32,672.659 1189.51,666.22 1185.19,655.616ZM1184.9,654.927L1184.95,655.04L1184.91,654.942L1184.9,654.927Z" style="fill:rgb(141,81,20);"/>
    </g>
    <g transform="matrix(0.0473163,-0.000841546,0.000721013,0.0445208,-46.4367,-3.48857)">
        <path d="M1058.82,474.892C1056.46,477.017 1053,480.227 1050.21,483.119C1040.79,492.87 1030.27,504.863 1025.26,509.878C1018.89,516.243 1008.86,515.91 1002.86,509.135C996.856,502.36 997.153,491.691 1003.52,485.326C1011.15,477.698 1031.24,454.433 1041.66,446.148C1049.8,439.67 1057.31,439.611 1060.63,440.533C1067.15,442.343 1091.98,449.675 1104.1,454.397C1108.94,456.284 1112.39,458.204 1113.91,459.371C1119.55,463.676 1120.66,468.943 1120.94,472.031C1121.5,478.096 1119.94,484.31 1112.81,488.601C1106.76,492.238 1099.4,491.179 1094.47,486.521C1086.39,483.145 1068.92,477.833 1058.82,474.892ZM1089.46,470.562C1090.34,465.956 1093.02,461.768 1097.17,459.275C1092.14,462.297 1090.02,466.328 1089.46,470.562Z" style="fill:rgb(141,81,20);"/>
    </g>
    <g transform="matrix(0.0473163,-0.000841546,0.000721013,0.0445208,-46.4367,-3.48857)">
        <path d="M1053.89,553.012C1047.17,551.738 1015.45,553.021 1004.18,552.338C998.359,551.985 993.37,556.723 993.048,562.91C992.725,569.098 997.19,574.408 1003.01,574.76C1013.72,575.408 1043.83,573.912 1050.22,575.122C1055.96,576.21 1061.44,572.14 1062.46,566.039C1063.47,559.938 1059.64,554.101 1053.89,553.012Z" style="fill:rgb(141,81,20);"/>
    </g>
    <g transform="matrix(0.0473163,-0.000841546,0.000721013,0.0445208,-46.4367,-3.48857)">
        <path d="M1207.86,732.466C1222.54,738.861 1243.88,757.033 1253.78,767.969C1257.83,772.44 1264.52,772.584 1268.72,768.292C1272.92,763.999 1273.05,756.885 1269,752.415C1257.58,739.795 1232.79,719.067 1215.85,711.687C1210.45,709.335 1204.28,712.081 1202.07,717.815C1199.87,723.549 1202.46,730.114 1207.86,732.466Z" style="fill:rgb(141,81,20);"/>
    </g>
    <g transform="matrix(0.0473163,-0.000841546,0.000721013,0.0445208,-46.4367,-3.48857)">
        <path d="M1335.74,602.144C1350.58,615.145 1380.14,655.668 1378.9,654.676" style="fill:rgb(97,43,18);"/>
        <path d="M1369.67,660.137C1365.45,653.936 1341.68,621.89 1329.03,610.804C1324.52,606.859 1323.88,599.775 1327.58,594.996C1331.29,590.216 1337.95,589.539 1342.45,593.485C1356.37,605.681 1382.8,641.058 1386.98,647.27C1390.29,652.181 1389.41,656.24 1389.34,656.656C1388.65,660.804 1386.44,663.232 1383.75,664.693C1381.95,665.671 1379.53,666.423 1376.38,665.589C1375.56,665.372 1374.19,664.947 1372.58,663.665C1371.35,662.687 1370.37,661.478 1369.67,660.137ZM1373.55,644.978C1371.2,646.321 1369.28,648.501 1368.62,652.077C1368.93,650.623 1369.54,649.216 1370.43,647.945C1371.3,646.706 1372.37,645.712 1373.55,644.978ZM1376.07,643.857C1379.11,642.963 1382.49,643.523 1385.22,645.688C1381.31,642.58 1377.91,643.227 1376.07,643.857Z" style="fill:rgb(141,81,20);"/>
    </g>
    <g transform="matrix(0.0473163,-0.000841546,0.000721013,0.0445208,-45.9652,-3.52659)">
        <path d="M1188.71,561.763C1184.41,566.203 1172.51,578.459 1163.15,587.816C1156.78,594.181 1146.74,593.848 1140.75,587.073C1134.75,580.297 1135.04,569.629 1141.41,563.264C1152.88,551.792 1162.46,540.363 1169.52,534.499C1176.07,529.064 1182.16,527.092 1186.67,527.092C1188.46,527.092 1225.65,537.156 1229.86,538.296C1231,538.496 1232.13,538.838 1233.24,539.325C1239.72,542.154 1241.23,546.861 1241.68,547.902C1244.46,554.297 1243.39,559.776 1240.38,564.455C1238.83,566.864 1235.98,570.443 1230,571.537C1229.63,571.605 1227.08,572.221 1222.93,571.166C1219.23,570.228 1197.74,564.272 1188.71,561.763ZM1213.24,562.771C1213.95,564.427 1215.7,567.756 1220.38,570.072C1217.22,568.462 1214.78,565.861 1213.24,562.771Z" style="fill:rgb(141,81,20);"/>
    </g>
    <g transform="matrix(0.0353132,-0.0225721,0.0198973,0.0343066,-38.3605,32.5184)">
        <path d="M1380.77,386.316C1497.25,340.466 1665.01,269.751 1566.27,312.454" style="fill:rgb(0,255,18);"/>
        <path d="M1572.12,350.036C1528.35,367.946 1454.62,398.213 1394.53,421.865C1376.27,429.05 1355.29,418.954 1347.69,399.334C1340.1,379.714 1348.75,357.952 1367.01,350.767C1448.52,318.683 1555.15,274.419 1577.93,265.39C1585.29,262.472 1589.82,261.741 1590.44,261.664C1617.93,258.242 1627.09,280.165 1629.62,287.279C1632.67,295.827 1635.1,308.731 1625.2,322.744C1624.42,323.846 1621.37,329.182 1612.53,333.693C1610.64,334.654 1600.93,338.985 1581.05,347.582C1578.13,348.843 1575.14,349.653 1572.12,350.036Z" style="fill:rgb(141,81,20);"/>
    </g>
    <g transform="matrix(0.0565545,-0.00791381,0.00623639,0.0466244,-66.7227,12.9238)">
        <path d="M1460.67,249.435C1460.67,249.435 1411.88,220.159 1398.89,208.605C1360,174.041 1368.63,136.43 1373.23,90.451C1374.22,80.596 1373.27,50.67 1374.68,49.26C1377.11,46.828 1395.25,60.521 1398,62.172C1414.01,71.772 1443.37,92.275 1453.21,107.49C1465.01,125.728 1469.92,174.622 1466.3,200.858C1465.04,210.036 1460.67,244.58 1460.67,249.435Z" style="fill:rgb(51,98,51);"/>
        <path d="M1456.83,258.958C1459.55,260.587 1462.75,260.408 1465.31,258.485C1467.87,256.561 1469.43,253.166 1469.43,249.499C1469.43,244.818 1473.72,211.523 1474.94,202.673C1477.25,185.893 1476.37,160.413 1472.52,138.518C1469.78,122.974 1465.44,109.237 1460.08,100.956C1449.66,84.852 1418.78,62.808 1401.84,52.647C1399.51,51.25 1386.71,41.831 1380.39,39.385C1374.9,37.261 1370.87,39.252 1369.09,41.039C1368.16,41.966 1366.35,44.195 1365.7,48.549C1364.81,54.603 1365.44,80.105 1364.54,89.107C1359.54,139.104 1351.46,179.583 1393.74,217.168C1407.02,228.972 1456.83,258.958 1456.83,258.958ZM1382.83,63.908C1382.71,73.553 1382.45,86.578 1381.92,91.795C1377.73,133.764 1368.54,168.493 1404.03,200.042C1412.85,207.884 1438.55,224.036 1453.45,233.19C1454.87,220.724 1456.86,204.898 1457.67,199.043C1459.69,184.341 1458.77,162.023 1455.39,142.839C1453.31,130.996 1450.42,120.334 1446.34,114.024C1437.07,99.698 1409.23,80.736 1394.16,71.696C1392.84,70.904 1387.79,67.117 1382.83,63.908Z" style="fill:rgb(51,98,51);"/>
    </g>
    <g transform="matrix(-0.0105614,0.0411348,-0.040104,-0.0120865,45.9496,-43.8901)">
        <path d="M1460.67,249.435C1460.67,249.435 1411.88,220.159 1398.89,208.605C1360,174.041 1368.63,136.43 1373.23,90.451C1374.22,80.596 1373.27,50.67 1374.68,49.26C1377.11,46.828 1395.25,60.521 1398,62.172C1414.01,71.772 1443.37,92.275 1453.21,107.49C1465.01,125.728 1469.92,174.622 1466.3,200.858C1465.04,210.036 1460.67,244.58 1460.67,249.435Z" style="fill:rgb(51,98,51);"/>
        <path d="M1454.99,259.652C1458.64,261.843 1463.08,261.961 1466.67,259.964C1470.26,257.967 1472.46,254.152 1472.46,249.93C1472.46,245.237 1476.75,211.86 1477.97,202.988C1480.28,186.265 1479.39,160.875 1475.55,139.055C1472.8,123.412 1468.37,109.564 1462.98,101.231C1452.36,84.809 1420.96,62.315 1403.68,51.953C1401.29,50.516 1388.07,40.886 1381.57,38.37C1374.05,35.458 1368.68,38.134 1366.23,40.584C1365.29,41.52 1363.32,43.844 1362.67,48.241C1361.77,54.29 1362.41,79.767 1361.51,88.761C1356.49,138.972 1348.87,179.701 1391.33,217.446C1404.73,229.361 1454.99,259.652 1454.99,259.652ZM1385.81,68.256C1385.67,77.23 1385.41,87.618 1384.96,92.142C1383.16,110.063 1380.7,126.673 1380.86,142.317C1381.08,163.058 1386.35,181.902 1406.44,199.764C1414.32,206.768 1435.81,220.457 1450.78,229.723C1452.15,217.871 1453.89,204.097 1454.63,198.728C1456.66,183.968 1455.75,161.561 1452.36,142.302C1450.29,130.557 1447.48,120.007 1443.44,113.75C1434.37,99.741 1407.06,81.23 1392.32,72.39C1391.58,71.947 1388.9,70.239 1385.81,68.256Z" style="fill:rgb(51,98,51);"/>
    </g>
    <g transform="matrix(0.0375688,0.0161945,-0.00990872,0.0251914,-31.4025,-22.5718)">
        <path d="M1479.26,254.188C1479.26,254.188 1411.88,220.159 1398.89,208.605C1360,174.041 1368.63,136.43 1373.23,90.451C1374.22,80.596 1373.27,50.67 1374.68,49.26C1377.11,46.828 1395.25,60.521 1398,62.172C1414.01,71.772 1441.28,93.419 1451.12,108.634C1462.92,126.871 1460.91,169.296 1464.29,195.959C1466.59,214.071 1479.26,249.333 1479.26,254.188Z" style="fill:rgb(51,98,51);"/>
        <path d="M1475.05,271.735C1478.8,273.629 1482.99,272.604 1486.26,268.989C1489.54,265.375 1491.49,259.626 1491.49,253.592C1491.49,251.57 1490.97,246.756 1489.24,240.462C1486.14,229.155 1478.02,205.469 1476.3,191.921C1474.28,175.954 1474.2,154.323 1471.91,135.642C1469.9,119.323 1466.17,105.038 1460,95.498C1449.37,79.077 1420.1,55.325 1402.83,44.964C1400.47,43.553 1387.55,34.07 1381.16,31.598C1374.89,29.169 1370.2,31.905 1368.16,33.948C1366.52,35.593 1363.54,39.285 1362.39,47.013C1361.48,53.171 1362.06,79.111 1361.14,88.269C1358.05,119.174 1354.1,146.694 1360.23,172.137C1364.61,190.308 1373.77,208.02 1392.44,224.612C1405.81,236.497 1475.05,271.735 1475.05,271.735ZM1386.02,74.858C1385.89,82.028 1385.67,89.127 1385.32,92.634C1383.78,108.014 1381.72,122.406 1381.35,136.045C1381.06,146.706 1381.87,156.841 1385.8,166.482C1389.5,175.58 1395.74,184.069 1405.34,192.598C1412.62,199.073 1437.51,212.739 1457.27,223.137C1454.98,214.334 1453.01,205.758 1452.28,199.997C1450.55,186.357 1450.16,168.693 1448.74,152.098C1447.7,140.112 1446.6,128.508 1442.24,121.769C1433.18,107.76 1407.92,88.219 1393.18,79.379C1392.38,78.903 1389.39,77.007 1386.02,74.858Z" style="fill:rgb(51,98,51);"/>
    </g>
</svg>
