<svg xmlns="http://www.w3.org/2000/svg" xml:space="preserve" style="fill-rule:evenodd;clip-rule:evenodd;stroke-linejoin:round;stroke-miterlimit:2" viewBox="0 0 200 200"><path d="M826.689 355.803c-91.934 91.579-98.175 408.993-38.941 476.309 60.003 68.191 214.392 123.141 351.382 122.511 155.43-.714 279.95-62.681 322.81-102.788 79.28-74.187 44.83-361.859-3.33-457.476-81.42-161.651-492.873-177.064-631.921-38.556Z" style="fill:#71615e" transform="matrix(.2185 0 0 .19988 -152.363 5.983)"/><path d="M818.983 346.559c-23.299 23.208-41.657 59.982-54.826 103.715-19.085 63.374-27.537 141.496-26.208 211.73.893 47.193 6.216 90.838 15.535 124.192 6.672 23.88 15.552 42.693 26.017 54.587 61.463 69.849 219.358 126.992 359.679 126.347 159.06-.731 286.34-64.748 330.2-105.793 33.56-31.398 49.13-98.5 50.95-174.718 2.63-110.431-22.16-239.661-51.7-298.293-33.89-67.289-122.11-111.535-225.78-129.614-152.93-26.669-338.485 2.795-423.867 87.846v.001Zm15.413 18.489c81.476-81.16 258.914-107.082 404.844-81.633 95.58 16.667 178.1 54.943 209.35 116.976 28.26 56.108 51.38 179.899 48.86 285.575-1 41.684-5.97 80.541-16.49 111.123-6.52 18.944-15.09 34.607-26.46 45.244-41.86 39.169-163.63 99.085-315.42 99.783-133.65.614-284.542-52.142-343.086-118.674-8.49-9.649-15.212-25.181-20.625-44.553-8.807-31.525-13.697-72.797-14.541-117.402-1.276-67.463 6.734-142.518 25.065-203.391 11.774-39.099 27.673-72.298 48.503-93.048Z" style="fill:#71615e" transform="matrix(.2185 0 0 .19988 -152.363 5.983)"/><path d="M826.689 355.803c-91.934 91.579-98.175 408.993-38.941 476.309 60.003 68.191 214.392 123.141 351.382 122.511 155.43-.714 279.95-62.681 322.81-102.788 79.28-74.187 44.83-361.859-3.33-457.476-81.42-161.651-492.873-177.064-631.921-38.556Z" style="fill:#789410" transform="matrix(.14892 0 0 .12102 -74.752 51.714)"/><path d="M816.127 339.748c-24.121 24.027-43.21 61.984-56.844 107.259-19.399 64.422-28.028 143.825-26.677 215.219.913 48.278 6.412 92.912 15.945 127.032 7.107 25.436 16.66 45.362 27.807 58.029 62.013 70.476 221.258 128.644 362.832 127.993 160.39-.737 288.69-65.616 332.91-107.002 34.91-32.662 51.68-102.092 53.57-181.379 2.68-112.355-22.74-243.768-52.79-303.423-34.48-68.462-124-114.471-229.48-132.865-154.17-26.886-341.196 3.394-427.273 89.137Zm21.125 32.111C918.034 291.39 1094 266.284 1238.69 291.516c57.58 10.042 110.27 28.158 149.95 54.666 24.58 16.425 44.04 35.903 55.7 59.059 27.75 55.086 50.25 176.693 47.77 280.445-1.55 64.798-11.8 123.013-40.33 149.706-41.49 38.828-162.24 97.883-312.71 98.574-132.4.609-281.939-51.122-339.933-117.029-7.809-8.875-13.856-23.292-18.835-41.111-8.594-30.758-13.307-71.041-14.13-114.561-1.255-66.302 6.578-140.076 24.594-199.902 11.31-37.557 26.478-69.573 46.486-89.504Z" style="fill:#789410" transform="matrix(.14892 0 0 .12102 -74.752 51.714)"/><path d="M1016.59 229.998c2.23-4.46 137.79-79.454 272.01-92.509 94.89-9.23 189.4 77.92 189.36 90.72-.09 26.925-126.37 113.954-207.18 103.047-126.5-17.074-176.74-60.666-254.19-101.258Z" style="fill:#789410" transform="matrix(.22663 0 0 .23921 -136.543 -31.753)"/><path d="M1014.6 229.103c-.5.997-.1 2.189.92 2.724 77.67 40.709 128.09 84.375 254.95 101.498 57.1 7.707 136.76-32.875 179.4-67.332 11.05-8.926 19.62-17.445 24.73-24.597 3.66-5.127 5.55-9.648 5.56-13.181.01-1.39-.78-3.553-2.54-6.245-3.48-5.309-10.8-13.284-21.12-22.284-34.09-29.727-101.04-70.802-168.13-64.276-107.73 10.479-216.34 60.722-256.62 82.696-8.19 4.468-13.59 7.798-15.66 9.413-.89.691-1.34 1.272-1.49 1.584Zm5.98.605c2.66-1.726 7.57-4.817 13.37-7.979 40.01-21.825 147.87-71.752 254.87-82.161 65.76-6.396 131.28 34.06 164.69 63.194 8.54 7.446 14.98 14.147 18.75 19.139 1.41 1.877 2.44 3.49 3.03 4.791.28.611.46 1.111.46 1.51-.01 2.929-1.77 6.601-4.81 10.852-4.93 6.915-13.25 15.128-23.93 23.758-41.85 33.812-119.89 73.937-175.92 66.375-124.53-16.808-174.92-59.442-250.51-99.479Z" style="fill:#789410" transform="matrix(.22663 0 0 .23921 -136.543 -31.753)"/><path d="M983.448 138.317c-1.051 42.317-1.484 59.171-1.943 99.03" style="fill:#71615e" transform="matrix(1.11885 -.02376 .00817 .37583 -1005.278 -9.218)"/><path d="M973.645 136.174c-1.063 42.81-1.499 59.86-1.964 100.183-.186 16.141 4.065 29.688 9.486 30.235 5.422.546 9.975-12.115 10.161-28.256.454-39.395.884-56.051 1.922-97.875.4-16.107-3.667-30.144-9.077-31.327-5.411-1.183-10.128 10.933-10.528 27.04Z" style="fill:#71615e" transform="matrix(1.11885 -.02376 .00817 .37583 -1005.278 -9.218)"/></svg>