<svg xmlns="http://www.w3.org/2000/svg" xml:space="preserve" style="fill-rule:evenodd;clip-rule:evenodd;stroke-linejoin:round;stroke-miterlimit:2" viewBox="0 0 440 440"><ellipse cx="989.877" cy="986.808" rx="1015.09" ry="988.825" style="fill:#f1ece8" transform="matrix(.21476 0 0 .22046 7.877 2.462)"/><path d="M826.689 355.803c-91.934 91.579-98.175 408.993-38.941 476.309 60.003 68.191 214.392 123.141 351.382 122.511 155.43-.714 279.95-62.681 322.81-102.788 79.28-74.187 44.83-361.859-3.33-457.476-81.42-161.651-492.873-177.064-631.921-38.556Z" style="fill:#f8f8f8" transform="matrix(.42714 0 0 .42714 -262.536 -9.768)"/><path d="M821.733 350.828c-22.747 22.658-40.576 58.636-53.433 101.332-18.903 62.771-27.25 140.153-25.933 209.718.881 46.569 6.1 89.642 15.295 122.554 6.387 22.859 14.795 40.935 24.813 52.32 60.937 69.252 217.565 125.534 356.685 124.895 157.78-.726 284.07-63.971 327.58-104.684 32.7-30.602 47.4-96.215 49.17-170.503 2.61-109.296-21.8-237.231-51.03-295.261-33.38-66.279-120.51-109.247-222.63-127.054-151.7-26.455-335.82 2.314-420.517 86.682v.001Zm9.913 9.951c82.161-81.842 261.034-108.459 408.194-82.796 97.13 16.937 180.75 56.494 212.5 119.535 28.56 56.711 52.08 181.796 49.53 288.607-1.02 42.423-6.13 81.957-16.84 113.081-6.85 19.915-15.94 36.318-27.89 47.501-42.21 39.5-164.96 100.189-318.04 100.893-134.86.62-287.011-52.998-346.08-120.128-8.937-10.156-16.131-26.426-21.829-46.82-8.931-31.966-13.924-73.81-14.78-119.039-1.289-68.131 6.826-143.926 25.339-205.403 12.086-40.135 28.514-74.131 49.896-95.431Z" style="fill:silver" transform="matrix(.42714 0 0 .42714 -262.536 -9.768)"/><path d="M875.506 857.94c-19.906.547-38.314-.867-53.358-4.754-4.621-1.194 27.437 20.695 38.716 26.974 19.529 10.871 44.832 22.686 65.868 30.093 28.099 9.895 52.326 15.346 75.988 20.921 27.54 6.489 48.31 9.44 74.7 12.537 22.82 2.677 44.43 4.951 67.62 4.092 16.6-.615 33.62-1.41 50.16-3.175 12.33-1.314 36.69-4.865 52.51-8.028 36.19-7.234 49.39-11.175 81.66-21.425 14.12-4.485 72.22-24.779 89.36-38.666 3.39-2.744-55.53-6.55-68.45-17.775-1.27-1.101-385.795-3.237-474.774-.794Z" style="fill:#da763b" transform="matrix(.42714 0 0 .42714 -262.536 -9.768)"/><path d="M745.705 335.848c-7.718 1.385-6.487 19.878-5.259 37.404.858 12.261 8.773 30.294 12.091 31.842 7.728 3.606 52.726 16.843 99.55 26.142 16.712 3.319 52.262 9.341 76.706 9.293 20.08-.039 43.882-7.081 45.045-7.495 2.822-1.005 7.191-26.087 4.626-42.701-2.708-17.536-14.911-44.628-18.956-44.564-23.682.376-38.848 21.367-64.045 21.156-5.64-.047-134.424-33.829-149.758-31.077Z" style="fill:#da763b" transform="matrix(-.18787 -.3836 .3836 -.18787 363.669 599.206)"/><path d="M876.721 342.1c-9.294-2.532-10.761 30.028-10.591 54.713.11 15.893 7.937 32.371 9.3 32.809 15.523 4.988 50.549 6.958 90.286.244 75.274-12.719 108.204-31.092 110.514-32.047 2.49-1.028 8.36-20.09 9.11-31.728 1.45-22.657-2.56-38.515-5.35-36.556-2.87 2.008-42.56 15.093-82.101 21.184-37.837 5.827-76.017 3.05-79.795 1.955-5.227-1.516-26.307-6.471-41.373-10.574Z" style="fill:#da763b" transform="matrix(-.20735 .37343 -.4026 -.15482 446.333 -116.252)"/><path d="M840.885 363.673c5.202 9.047 23.448 33.982 30.849 62.261 5.372 20.526-2.303 37.771-1.739 39.553 1.014 3.201 64.923 1.176 74.977.646 7.036-.37 34.741 2.287 29.814-.706-.379-.231 8.778-21.644 2.502-48.394-7.205-30.711-23.184-65.268-27.22-65.086-25.008 1.129-33.306 1.95-58.709 4.765-5.559.616-51.301 5.522-50.474 6.961Z" style="fill:#da763b" transform="matrix(.27413 0 0 .42714 -69.12 -43.92)"/><path d="M836 350.126c-3.021.987 19.185 40.085 27.7 70.584 5.488 19.66 5.769 43.116 6.295 44.777 1.014 3.201 64.755 5.381 74.809 4.852 7.035-.37 39.968 0 35.041-2.993-.379-.231 3.329-26.362-2.948-53.113-7.205-30.71-21.792-55.587-25.802-55.932-10.765-.926-39.431-5.231-61.858-6.517-18.668-1.071-45.243-4.27-53.237-1.658Z" style="fill:#da763b" transform="matrix(.27413 0 0 .42714 8.364 -43.622)"/><path d="M910.783 387.803c-45.175 26.066-68.329 75.194-84.766 120.635-8.535 23.598-21.523 108.225-13.337 165.517 8.41 58.86 24.916 114.122 40.075 147.41 7.415 16.284 14.959 27.709 21.006 33.115 15.833 14.157 42.998 18.875 71.642 23.332 9.703 1.51 71.057 6.742 128.977 9.662 45.01 2.269 146.89 2.211 212.74-3.096 30.94-2.493 54.48-6.838 62.89-11.699 21.12-12.201 34.53-27.722 38.85-33.944 32.44-46.792 57.36-113.309 61.24-181.506 2.64-46.561 1.02-107.011-9.96-148.26-7.92-29.781-27.85-59.88-47.1-80.842-13.8-15.032-27.52-25.336-36.37-28.769-34.11-13.237-123.32-20.888-148.22-23.087-42.11-3.718-189.01-3.868-258.073 3.141-19.974 2.027-34.179 5.267-39.594 8.391Zm14.041 24.334c1.936-1.117 5.888-1.715 11.232-2.592 11.158-1.83 26.99-3.274 45.492-4.414 73.502-4.529 188.302-4.065 224.432-.875 23.59 2.084 108.21 8.751 140.53 21.293 6.42 2.492 15.82 10.667 25.84 21.58 16.49 17.954 33.86 43.556 40.65 69.062 10.31 38.791 11.54 95.658 9.05 139.443-3.57 62.771-26.42 124.024-56.28 167.093-3.29 4.743-13.72 16.33-29.81 25.628-6.8 3.93-26.08 6.004-51.1 8.02-64.71 5.215-164.84 5.27-209.06 3.041-56.62-2.854-116.594-7.888-126.078-9.364-12.334-1.919-24.43-3.631-35.141-6.419-8.755-2.28-16.522-5.113-22.095-10.096-4.272-3.82-8.924-12.31-14.164-23.815-14.365-31.547-29.861-83.959-37.831-139.741-7.515-52.601 4.109-130.321 11.945-151.987 14.297-39.525 33.095-83.185 72.388-105.857Z" style="fill:#cdb8ad" transform="matrix(.42714 0 0 .42714 -262.536 -9.768)"/><path d="M938.959 423.292c81.301-21.382 344.361-15.073 401.171 15.732 67.4 36.54 65.66 110.13 68.33 177.791 3.93 99.692-36.07 185.575-64.21 214.616-35.73 36.86-416.016 17.932-443.125-5.883-25.055-22.01-62.72-156.346-48.825-258.231 7.643-56.042 32.473-129.775 86.659-144.025Z" style="fill:#221d1d" transform="matrix(.42714 0 0 .42714 -262.536 -9.768)"/><path d="M934.195 405.179c-26.077 6.858-46.869 24.696-62.581 48.512-21.081 31.955-32.936 74.908-37.872 111.095-10.127 74.256 5.926 165.081 25.492 220.745 9.509 27.055 20.654 46.291 29.529 54.088 2.679 2.353 7.05 5.038 13.295 7.324 8.729 3.195 22.919 6.384 41.096 9.201 55.977 8.677 152.596 14.887 237.526 14.728 57.58-.108 109.87-3.237 141.11-10.215 17.84-3.985 30.02-10.123 35.9-16.191 30-30.947 73.67-122.153 69.48-228.389-1.39-35.202-1.84-71.926-10.5-104.623-9.6-36.24-28.75-67.825-67.61-88.895-18.29-9.917-56.36-18.086-103.24-23.179-104.22-11.321-253.442-9.502-311.625 5.799Zm-21.409 405.642c-5.929-5.84-11.863-19.645-18.213-37.712-18.018-51.262-33.042-134.877-23.716-203.262 4.237-31.063 13.928-68.098 32.024-95.528 10.408-15.777 23.567-28.371 40.841-32.913 55.646-14.634 198.368-15.613 298.048-4.787 40.5 4.4 73.64 10.303 89.44 18.869 28.53 15.47 42.2 38.95 49.25 65.556 7.99 30.149 8 64.051 9.28 96.51 3.68 93.148-32.64 173.707-58.94 200.841-1.34 1.376-3.98 1.981-7.21 3.036-6.14 2.008-13.93 3.675-23.03 5.118-30.02 4.76-73.15 6.776-119.95 6.864-82.85.155-177.11-5.821-231.718-14.285-16.668-2.584-33.803-7.617-36.106-8.307Z" style="fill:#221d1d" transform="matrix(.42714 0 0 .42714 -262.536 -9.768)"/><path d="M982.125 221.321c2.23-4.46-29.632-85.873 0 0 15.678 45.435 81.035-64.255 288.965-103.75 79.94-15.184 203.11 73.214 206.87 110.638 3.76 37.423-102.72 112.887-184.3 113.903-79.19.987-234.09-80.198-311.535-120.791" style="fill:#93b536" transform="matrix(.19996 0 0 .18552 17.1 20.699)"/><path d="m1001.62 219.55-10.309-5.403c-2.35-9.96-10.277-31.618-12.465-36.169-2.541-5.284-6.438-6.181-7.25-6.37-3.453-.804-6.326.169-8.724 2.432-1.214 1.146-3.517 3.531-3.435 8.424.01.605.121 2.161.819 4.73 1.151 4.235 4.762 15.475 12.494 37.885 3.164 9.168 8.04 14.097 13.879 16.407 3.513 1.39 7.753 1.702 12.755.826 83.056 43.152 220.936 111.495 294.396 110.58 59.45-.74 131.65-39.331 168.24-75.858 10.09-10.068 17.55-20.075 21.72-29.1 3.47-7.525 4.79-14.62 4.16-20.887-.59-5.891-3.18-12.863-7.92-20.329-5.83-9.202-15.1-19.597-26.89-30.093-44.44-39.565-125.27-80.776-183.73-69.671-146.95 27.91-223.42 90.371-261.47 109.707-2.25 1.144-4.33 2.123-6.27 2.889Zm23.17 12.047c81.48 42.077 202.18 100.565 268.76 99.735 54.76-.682 121.17-36.472 154.88-70.119 6.76-6.748 12.17-13.365 15.7-19.6 2.57-4.524 4.25-8.587 3.88-12.243-.31-3.092-2.06-6.566-4.54-10.486-4.99-7.873-13.03-16.655-23.11-25.635-40.63-36.172-114.08-75.213-167.53-65.061-134.12 25.474-208.3 80.581-248.04 103.409Z" style="fill:#93b536" transform="matrix(.19996 0 0 .18552 17.1 20.699)"/><path d="M983.448 138.317c-1.051 42.317-1.484 59.171-1.943 99.03" style="fill:#f8f8f8" transform="matrix(1.45146 -.07874 .02713 .5 -1216.122 54.436)"/><path d="M977.272 137.025c-1.058 42.612-1.493 59.583-1.955 99.72-.115 9.915 2.565 18.233 5.981 18.565 3.415.332 6.28-7.448 6.395-17.362.456-39.581.887-56.317 1.93-98.338.246-9.894-2.322-18.506-5.73-19.22-3.408-.713-6.375 6.741-6.621 16.635Z" style="fill:silver" transform="matrix(1.45146 -.07874 .02713 .5 -1216.122 54.436)"/></svg>