<svg xmlns="http://www.w3.org/2000/svg" xml:space="preserve" style="fill-rule:evenodd;clip-rule:evenodd;stroke-linejoin:round;stroke-miterlimit:2" viewBox="0 0 2000 2000">
    <path d="M826.689 355.803c-91.934 91.579-98.175 408.993-38.941 476.309 60.003 68.191 214.392 123.141 351.382 122.511 155.43-.714 279.95-62.681 322.81-102.788 79.28-74.187 44.83-361.859-3.33-457.476-81.42-161.651-492.873-177.064-631.921-38.556Z" style="fill:#f1e8e8" transform="translate(-1478.973 -127.513) scale(2.19174)"/>
    <path d="M820.572 349.662c-22.907 22.817-40.9 59.028-53.848 102.023-18.948 62.923-27.322 140.491-26.002 210.225.884 46.725 6.129 89.942 15.355 122.965 6.468 23.148 15.018 41.435 25.162 52.964 61.157 69.501 218.31 126.095 357.931 125.453 158.33-.728 285.03-64.273 328.69-105.127 32.94-30.82 47.91-96.85 49.7-171.666 2.61-109.587-21.9-237.856-51.21-296.04-33.57-66.659-121.11-110.026-223.81-127.935-152.24-26.548-336.975 2.473-421.968 87.138Zm12.235 12.283c81.864-81.546 260.123-107.911 406.753-82.341 96.54 16.835 179.75 55.992 211.31 118.654 28.49 56.556 51.9 181.307 49.35 287.827-1.01 42.237-6.09 81.599-16.75 112.586-6.75 19.628-15.67 35.813-27.45 46.834-42.06 39.359-164.4 99.748-316.93 100.449-134.35.618-285.984-52.688-344.834-119.568-8.811-10.013-15.863-26.072-21.48-46.176-8.901-31.856-13.867-73.556-14.72-118.628-1.286-67.964 6.802-143.572 25.269-204.897 11.997-39.836 28.26-73.599 49.482-94.74Z" style="fill:#2b2525" transform="translate(-1478.973 -127.513) scale(2.19174)"/>
    <path d="M908.891 844.622c-1.347-.862-2.452 2.103-3.882 2.818-2.571 1.285-7.341 1.841-10.31 1.841-16.694 0-30.681.338-46.762-3.682-12.61-3.153-26.813-5.313-38.537-9.221-1.324-.441-9.249-2.622-9.112-2.45 3.28 4.108 21.542 21.092 31.026 26.671 11.131 6.548 21.838 13.928 33.117 20.207 19.529 10.871 42.352 21.555 63.389 28.963 28.098 9.895 51.238 15.83 74.9 21.405 27.54 6.489 48.31 9.44 74.7 12.537 22.82 2.677 44.43 4.951 67.62 4.092 16.6-.615 33.62-1.41 50.16-3.175 12.33-1.314 36.69-4.865 52.51-8.028 36.19-7.234 49.39-11.175 81.66-21.425 14.12-4.485 33.68-12.931 47.29-18.525 29.51-12.134 48.24-28.183 67.57-38.64 3.84-2.074-19.5 5.199-21.75 5.199-19.69 0-37.06.869-56.36-3.955-5.43-1.358-7.03-12.105-10.43-15.496-1.18-1.188-8.33 6.339-10.31 6.996-9.98 3.329-20.85 5.603-31.29 6.995-25.77 3.436-51.88 3.261-77.7 6.628-24.5 3.197-48.96 6.706-73.64 8.469-43.4 3.101-86.58-3.942-129.24-10.678-16.13-2.548-32.75-2.024-48.968-4.05-22.602-2.825-45.377-7.733-68.119-7.733h-1.473c-6.072 0-12.203-1.472-18.042-1.472-.491 0-.736-.209-.736.368" style="fill:#cf6525" transform="translate(-1478.973 -127.513) scale(2.19174)"/>
    <path d="M752.257 339.768c-7.718 1.385-1.572 16.875 1.05 31.22 3.097 16.942 3.623 33.173 4.349 35.468.323 1.018 56.161 16.201 102.984 25.501 30.441 6.045 55.203 7.793 64.806 7.733 22.041-.137 40.338-4.76 37.998-6.181-.379-.23 7.288-13.859 1.011-40.61-7.205-30.71-17.765-40.95-21.809-40.886-23.683.376-21.986 15.123-47.183 14.912-5.64-.047-127.872-29.91-143.206-27.157Z" style="fill:#cf6525" transform="rotate(-116.093 1801.87 957.786) scale(2.19174)"/>
    <path d="M883.854 342.386c-1.678-.793-14.027 29.038-12.17 53.424.873 11.466 6.889 30.768 7.318 32.124.533 1.68 23.085 5.073 47.458 4.921 9.718-.06 41.244-3.869 72.355-11.644 39.445-9.858 78.725-24.236 77.415-25.031-.38-.23 2.88-16.807 3.3-28.105.92-24.632 14.87-40.085.46-38.54-3.3.354-42.56 15.093-82.101 21.184-37.837 5.827-76.017 3.05-79.795 1.955-5.227-1.516-20.374-3.739-34.24-10.288Z" style="fill:#cf6525" transform="matrix(-1.06395 1.91618 -2.06583 -.79442 2158.398 -673.908)"/>
    <path d="M1346.44 856.959c10.75 6.729 25.12 9.997 40.97 10.605 22.76.874 48.63-3.664 70.47-10.227a5.482 5.482 0 0 0 3.67-6.819 5.48 5.48 0 0 0-6.82-3.668c-20.74 6.231-45.29 10.602-66.9 9.772-13.74-.527-26.26-3.112-35.58-8.946-2.56-1.603-5.94-.824-7.55 1.737a5.483 5.483 0 0 0 1.74 7.546ZM1364.69 425.494c4.63-8.133 18.13-25.115 29.71-34.449 11.51-9.274 24.38-17.606 39.49-21.472a5.477 5.477 0 0 0 3.95-6.662 5.48 5.48 0 0 0-6.66-3.947c-16.67 4.266-30.95 13.323-43.65 23.555-12.62 10.172-27.31 28.695-32.36 37.557a5.488 5.488 0 0 0 2.05 7.467c2.63 1.495 5.98.577 7.47-2.049Z" style="fill:#2b2525" transform="translate(-1478.973 -127.513) scale(2.19174)"/>
    <path d="M1364.69 425.494c4.65-8.164 17.01-21.824 26.01-30.256 8.44-7.917 12.68-11.547 28.11-20.37a5.48 5.48 0 0 0 2.03-7.471 5.474 5.474 0 0 0-7.47-2.034c-16.56 9.472-21.1 13.389-30.17 21.887-9.72 9.124-23 23.994-28.03 32.826a5.488 5.488 0 0 0 2.05 7.467c2.63 1.495 5.98.577 7.47-2.049Z" style="fill:#2b2525" transform="rotate(11.218 890.165 -5590.273) scale(2.19174)"/>
    <path d="M780.456 824.964c11.409 7.682 29.902 15.321 46.467 20.314 14.518 4.376 31.424 9.057 46.759 10.423 10.949.975 21.141.233 29.348-3.147a5.478 5.478 0 0 0 2.978-7.148 5.478 5.478 0 0 0-7.147-2.978c-6.764 2.786-15.185 3.17-24.207 2.366-14.622-1.302-30.728-5.828-44.571-10-15.497-4.672-32.838-11.727-43.511-18.913a5.478 5.478 0 0 0-7.6 1.483 5.478 5.478 0 0 0 1.484 7.6ZM925.171 408.197c-7.819-15.416-25.484-32.554-44.66-41.961-15.3-7.505-35.032-12.768-49.326-13.434a5.478 5.478 0 0 0-5.725 5.214 5.479 5.479 0 0 0 5.214 5.724c13.05.609 31.047 5.475 45.014 12.327 17.004 8.341 32.784 23.413 39.717 37.083a5.477 5.477 0 0 0 7.359 2.406 5.478 5.478 0 0 0 2.407-7.359Z" style="fill:#2b2525" transform="translate(-1478.973 -127.513) scale(2.19174)"/>
    <path d="M840.606 361.088c2.977 9.452 23.727 36.567 31.128 64.846 5.372 20.526-2.303 37.771-1.739 39.553 1.014 3.201 64.923 1.176 74.977.646 7.036-.37 34.741 2.287 29.814-.706-.379-.231 8.778-21.644 2.502-48.394-7.205-30.711-34.159-64.53-38.204-64.466-23.682.375-24.918-.026-50.321 2.789-5.559.617-48.643 4.191-48.157 5.732Z" style="fill:#cf6525" transform="matrix(1.40664 0 0 2.19174 -486.513 -302.76)"/>
    <path d="M986.392 280.291c4.122 5.445 22.168 49.27 26.668 64.511 4.13 13.982 5.08 35.643 4.28 49.788-.3 5.409-.75 9.608-1.55 11.488a5.474 5.474 0 0 0 2.88 7.187c2.78 1.188 6-.104 7.19-2.883 1.06-2.492 2.01-8.006 2.41-15.176.86-15.203-.27-38.476-4.71-53.506-4.76-16.095-24.084-62.267-28.437-68.018a5.477 5.477 0 0 0-7.669-1.061 5.478 5.478 0 0 0-1.062 7.67Z" style="fill:#2b2525" transform="translate(-1345.079 -159.234) scale(2.19174)"/>
    <path d="M988.803 289.729c4.104 5.421 19.777 39.899 24.257 55.073 4.13 13.982 5.08 35.643 4.28 49.788-.3 5.409-.75 9.608-1.55 11.488a5.474 5.474 0 0 0 2.88 7.187c2.78 1.188 6-.104 7.19-2.883 1.06-2.492 2.01-8.006 2.41-15.176.86-15.203-.27-38.476-4.71-53.506-4.78-16.162-21.66-52.805-26.026-58.58a5.478 5.478 0 0 0-7.67-1.061 5.478 5.478 0 0 0-1.061 7.67Z" style="fill:#2b2525" transform="translate(-1494.487 -151.114) scale(2.19174)"/>
    <path d="M925.171 408.197c-7.819-15.416-25.484-32.554-44.66-41.961-15.602-7.653-19.992-8.838-34.569-9.518a5.478 5.478 0 0 0-5.725 5.214 5.478 5.478 0 0 0 5.214 5.724c12.768.596 16.592 1.708 30.257 8.411 17.004 8.341 32.784 23.413 39.717 37.083a5.477 5.477 0 0 0 7.359 2.406 5.478 5.478 0 0 0 2.407-7.359Z" style="fill:#2b2525" transform="translate(-1680.335 290.846) scale(2.19174)"/>
    <path d="M839.286 350.74c3.124 9.919 27.54 44.377 36.055 74.877 5.488 19.66-5.872 38.209-5.346 39.87 1.014 3.201 64.755 5.381 74.809 4.852 7.035-.37 39.968 0 35.041-2.993-.379-.231 3.329-26.362-2.948-53.113-7.205-30.71-29.066-57.388-33.087-57.672-23.535-1.663-31.505-2.39-58.041-3.931-5.618-.326-46.968-3.431-46.483-1.89Z" style="fill:#cf6525" transform="matrix(1.40664 0 0 2.19174 -88.918 -301.229)"/>
    <path d="M986.948 282.975c4.117 5.44 21.612 46.603 26.112 61.827 4.13 13.982 5.08 35.643 4.28 49.788-.3 5.409-.75 9.608-1.55 11.488a5.474 5.474 0 0 0 2.88 7.187c2.78 1.188 6-.104 7.19-2.883 1.06-2.492 2.01-8.006 2.41-15.176.86-15.203-.27-38.476-4.71-53.506-4.76-16.112-23.52-59.576-27.88-65.333a5.478 5.478 0 0 0-7.67-1.062 5.478 5.478 0 0 0-1.062 7.67Z" style="fill:#2b2525" transform="translate(-947.485 -157.702) scale(2.19174)"/>
    <path d="M986.392 280.291c4.122 5.445 22.168 49.27 26.668 64.511 4.13 13.982 5.08 35.643 4.28 49.788-.3 5.409-.75 9.608-1.55 11.488a5.474 5.474 0 0 0 2.88 7.187c2.78 1.188 6-.104 7.19-2.883 1.06-2.492 2.01-8.006 2.41-15.176.86-15.203-.27-38.476-4.71-53.506-4.76-16.095-24.084-62.267-28.437-68.018a5.477 5.477 0 0 0-7.669-1.061 5.478 5.478 0 0 0-1.062 7.67Z" style="fill:#2b2525" transform="translate(-1096.897 -149.582) scale(2.19174)"/>
    <path d="M917.803 399.97c23.163-13.365 237.317-14.306 289.407-9.706 24.25 2.141 111.17 9.3 144.38 22.189 19.08 7.406 62.72 54.055 74.98 100.127 10.65 40.02 12.07 98.678 9.5 143.852-3.72 65.484-27.61 129.369-58.76 174.299-3.8 5.482-15.72 19.036-34.32 29.786-25.35 14.649-204.16 16.141-267.9 12.928-57.27-2.887-117.934-8.02-127.528-9.513-25.641-3.99-50.265-7.251-64.439-19.924-17.197-15.376-44.838-90.154-56.537-172.04-7.851-54.947 4.455-136.12 12.641-158.752 15.366-42.482 36.343-88.877 78.576-113.246Z" style="fill:#cebaba" transform="translate(-1478.973 -127.513) scale(2.19174)"/>
    <path d="M915.067 395.228c-43.38 25.03-65.206 72.49-80.989 116.126-8.322 23.008-20.894 105.528-12.912 161.389 8.275 57.92 24.473 112.313 39.39 145.069 6.751 14.825 13.413 25.356 18.918 30.278 14.82 13.251 40.436 17.081 67.247 21.252 9.636 1.499 70.569 6.672 128.099 9.571 44.76 2.257 146.11 2.2 211.61-3.079 29.13-2.347 51.38-6 59.29-10.576 19.58-11.316 32.09-25.636 36.09-31.407 31.66-45.656 55.94-110.567 59.73-177.109 2.6-45.714 1.09-105.07-9.68-145.569-7.57-28.477-26.72-57.204-45.13-77.248-12.65-13.774-25.05-23.43-33.16-26.576-33.56-13.024-121.38-20.376-145.88-22.539-36.59-3.232-152.89-3.752-227.342.836-22.581 1.391-41.354 3.265-53.004 5.648-5.695 1.165-9.865 2.542-12.277 3.934Zm5.473 9.484c2.45-1.414 7.366-2.516 14.129-3.626 11.369-1.864 27.499-3.349 46.352-4.511 73.919-4.555 189.379-4.066 225.709-.857 23.99 2.118 110.01 9.086 142.88 21.839 7.16 2.78 17.88 11.605 29.05 23.775 17.33 18.871 35.49 45.845 42.62 72.656 10.52 39.54 11.86 97.5 9.33 142.133-3.67 64.426-27.15 127.286-57.8 171.491-3.6 5.193-14.94 17.981-32.56 28.165-7.3 4.213-27.88 6.981-54.7 9.142-65.06 5.243-165.72 5.299-210.18 3.058-57.02-2.874-117.415-7.969-126.966-9.455-24.473-3.808-48.103-6.5-61.631-18.595-4.814-4.304-10.349-13.691-16.252-26.653-14.607-32.078-30.411-85.36-38.515-142.08-7.72-54.033 4.319-133.86 12.369-156.116 14.949-41.329 35.078-86.658 76.165-110.366Z" style="fill:#2b2525" transform="translate(-1478.973 -127.513) scale(2.19174)"/>
    <path d="M578.983 800.234c178.19-46.864 754.75-33.037 879.263 34.48 147.723 80.086 143.91 241.377 149.762 389.672 8.613 218.5-79.056 406.732-140.732 470.383-78.31 80.787-911.8 39.302-971.215-12.894-54.915-48.24-137.467-342.67-107.012-565.976C405.8 993.07 460.22 831.466 578.983 800.234Z"/>
    <path d="M576.947 792.497c-49.385 12.988-88.224 47.46-117.98 92.564-43.571 66.045-67.645 154.964-77.846 229.755-21.488 157.571 12.787 350.276 54.305 468.391 18.273 51.988 38.3 89.697 55.355 104.678 4.813 4.23 14.027 8.646 27.23 12.703 17.867 5.49 43.594 10.783 75.23 15.686 121.479 18.832 331.163 32.234 515.466 31.888 123.286-.23 235.24-6.652 302.132-21.593 30.575-6.825 52.097-15.838 62.18-26.233 62.486-64.464 151.712-254.972 142.967-476.263-2.937-74.734-3.55-152.734-21.918-222.149-18.805-70.929-55.933-133.003-131.986-174.243-37.896-20.543-116.996-36.451-214.112-47-224.412-24.377-545.739-21.13-671.021 11.816h-.002Zm4.07 15.473c124.2-32.66 442.738-35.547 665.222-11.384 94.398 10.256 171.372 25.195 208.215 45.16 71.648 38.848 106.431 97.46 124.14 164.272 18.104 68.328 18.499 145.122 21.414 218.684 8.504 215.702-77.588 401.663-138.474 464.498-8.723 8.995-27.748 15.848-54.18 21.755-66.125 14.768-176.808 20.98-298.69 21.207-183.406.344-392.081-12.96-512.973-31.699-30.687-4.756-55.649-9.843-72.979-15.17-10.264-3.153-17.63-6.14-21.374-9.428-15.892-13.964-33.788-49.511-50.817-97.962-40.857-116.237-74.693-305.862-53.545-460.923 9.9-72.604 33.05-158.996 75.348-223.109 27.489-41.67 63.07-73.9 108.693-85.9Z"/>
    <path d="M981.546 395.411c.564-24.979-5.021-162.89.579-174.09 3.607-7.214 34.865-11.567 97.025-49.495 68.96-42.071 118.45-91.183 226.9-84.451 81.04 5.031 182.69 87.413 200.16 118.201 8.9 15.677-144.2 132.651-271.38 125.463-79.09-4.469-252.705-56.388-252.705-109.718" style="fill:#ff8600" transform="matrix(.8804 0 0 .8007 115.705 88.845)"/>
    <path d="m963.677 209.008-.009.015c-.162.294-.313.583-.455.866l-.014.031a25.213 25.213 0 0 0-2.544 8.983c-1.041 5.359-1.944 12.67-2.252 21.519-1.458 41.925 2.02 134.376 1.568 154.4-.295 13.093 9.132 23.986 21.04 24.311 11.907.325 21.819-10.041 22.109-23.133.34-14.843-1.59-70.064-1.96-114.101 3.23 2.236 6.64 4.435 10.21 6.593 58.48 35.317 164.57 62.98 222.35 66.245 107.77 6.091 233.21-71.672 274.21-111.649 13.08-12.751 18.82-24.702 19.84-31.032 1.22-7.638-.35-13.93-3.25-19.043-7.83-13.792-30.27-37.41-60.75-60.45-43.85-33.144-104.29-65.638-156.51-68.879-113.85-7.067-166.19 43.226-238.58 87.393-48.94 29.865-78.455 38.504-90.107 44.431-8.263 4.203-12.601 9.327-14.896 13.5Zm515.273-2.562c-9.06-9.959-23.03-22.225-39.63-34.774-37.81-28.575-89.46-57.811-134.49-60.605-103.05-6.397-149.68 41.531-215.2 81.508-35.4 21.596-61.12 32.695-77.72 39.543 5.35 5.074 12.27 9.962 20.24 14.778 53.58 32.358 150.85 57.453 203.79 60.445 64.74 3.659 136.45-27.394 187.55-58.527 22.45-13.684 44.31-32.348 55.46-42.368Z" style="fill:#2b2525" transform="matrix(.8804 0 0 .8007 115.705 88.845)"/>
    <path d="M979.319 97.604c-1.066 42.931-.277 98.873-.743 139.31-.134 11.579 1.05 21.769 2.64 22.741 1.591.971 2.991-7.64 3.125-19.22.453-39.281-.365-93.636.671-135.34.284-11.434-.761-22.396-2.332-24.463-1.571-2.067-3.077 5.538-3.361 16.972Z" style="fill:#2b2525" transform="matrix(14.86167 0 0 2.04182 -13600.086 -66.397)"/>
</svg>