<svg xmlns="http://www.w3.org/2000/svg" xml:space="preserve" style="fill-rule:evenodd;clip-rule:evenodd;stroke-linecap:round;stroke-linejoin:round;stroke-miterlimit:1.5" viewBox="0 0 240 240"><ellipse cx="120.207" cy="123.66" rx="111.959" ry="109.643" style="fill:#fff" transform="matrix(1.05396 0 0 1.07622 -6.693 -13.085)"/><g transform="translate(-148.446 -1.353)scale(.2369)"><path d="M826.689 355.803c-91.934 91.579-98.175 408.993-38.941 476.309 60.003 68.191 184.828 117.942 363.312 121.481 219.71 4.356 268.02-61.651 310.88-101.758 79.28-74.187 44.83-361.859-3.33-457.476-81.42-161.651-492.873-177.064-631.921-38.556" style="fill:#faebdd"/><clipPath id="a"><path d="M826.689 355.803c-91.934 91.579-98.175 408.993-38.941 476.309 60.003 68.191 184.828 117.942 363.312 121.481 219.71 4.356 268.02-61.651 310.88-101.758 79.28-74.187 44.83-361.859-3.33-457.476-81.42-161.651-492.873-177.064-631.921-38.556"/></clipPath><g clip-path="url(#a)"><path d="M939.399 789.589c-12.191 9.692-28.175 39.98-72.07 46.3-42.859 6.17-68.979-1.458-95.922-12.82-9.744-4.109 61.846 52.009 152.954 88.115 61.208 24.257 146.389 29.239 204.069 33.497 173.74 12.825 334.94-70.377 339.47-91.885 2.39-11.378-41.79 2.224-86.89-11.736-39.78-12.316-61.69-41.834-64.02-41.211-27.92 7.47-90.19 24.979-183.3 20.233-95.51-4.868-187.667-35.759-194.291-30.493" style="fill:#fb9832" transform="translate(.002)"/><path d="m927.578 774.72 6.43-3.466 6.175-1.186c3.26-.226 8.762.186 16.139 1.504 29.649 5.297 102.928 25.696 178.338 29.539 90.12 4.594 150.4-12.381 177.42-19.612l8.46-.342 5.07 1.648 4.46 2.823c5.08 4.025 24.09 27.233 56.56 37.286 23.02 7.126 45.8 6.123 60.99 5.902 9.24-.134 16.48.185 20.96 1.268l8.57 3.646 3.42 2.786 3.19 4.02 1.98 4.135 1.05 4.369-.3 7.666-2.13 6.11-4.14 6.392c-4.02 5.001-11.5 11.532-22.34 18.567-50.97 33.083-186.71 86.49-330.85 75.85-59.28-4.376-146.762-9.852-209.668-34.782-86.35-34.22-155.537-86.407-161.133-93.168l-4.002-7.546-.654-6.549 1.522-6.203 4.224-6.114 4.39-3.187 5.658-1.93 6.277-.06 5.144 1.48c24.111 10.168 47.479 17.043 85.834 11.521 24.988-3.598 38.696-17.027 48.167-27.296 5.792-6.28 10.545-11.697 14.789-15.071m-72.389 81.672c22.485 12.828 48.739 26.262 76.17 37.132 59.512 23.585 142.381 28.073 198.471 32.213 117.46 8.671 229-28.08 286.85-58.051.72-.376 1.44-.759 2.17-1.149-13.46-.739-28.41-2.672-43.46-7.331-29.06-8.999-52.97-28.79-63.35-38.378-32.31 8.504-92.97 22.626-179.31 18.225-76.32-3.89-166.753-25.325-186.18-30.11-3.305 3.558-7.051 8.092-11.729 12.759-13.708 13.675-33.256 28.449-64.785 32.988a250 250 0 0 1-14.847 1.702" style="fill:#fb9832" transform="translate(.002)"/><path d="M803.555 304.526c-7.718 1.385-4.925 91.329-9.499 115.046-1.63 8.456 105.539 31.834 124.68 12.794 19.14-19.04-.497-117.34-9.836-127.033-7.813-8.11-97.301-2.251-105.345-.807" style="fill:#fb9832" transform="rotate(243.906 1177.659 255.64)"/><path d="M912.128 309.349c-7.511 15.356-8.342 115.821-7.215 116.643 9.619 7.003 154.657-19.874 149.967-26.408-.26-.358-9.36-98.53-1.15-111.238 18.24-28.227-134.133 5.731-141.602 21.003" style="fill:#fb9832" transform="rotate(119.041 903.15 363.732)skewX(8.007)"/><path d="M875.654 352.035c2.551 30.913-2.502 147.223.934 153.701 3.884 7.323 83.307 26.529 97.78 17.47 19.759-12.366 28.002-127.37.686-159.512-5.361-6.309-100.098-20.113-99.4-11.659" style="fill:#fb9832" transform="matrix(.82904 0 0 .92015 476.93 -41.696)"/><path d="M845.069 368.554c2.977 9.452 19.264 29.101 26.665 57.38 5.372 20.526 8.345 57.125 8.91 58.907 1.013 3.201 82.781 3.918 101.233-2.159 8.087-2.664 4.096-36.397 1.534-64.13-2.872-31.104-16.823-64.596-20.859-64.413-25.008 1.128-45.042 3.882-70.445 6.698-5.559.616-47.524 6.176-47.038 7.717" style="fill:#fb9832" transform="matrix(.80711 0 0 1.08156 290.889 -100.657)"/><path d="M1356.34 478.188c-3.07 7.239-11.44 10.624-18.68 7.553-7.24-3.07-10.62-11.439-7.55-18.678 2.51-5.914 7.75-13.058 15.32-20.401 14.68-14.258 38.66-30.355 62.22-41.29 25.12-11.655 50.06-16.521 64.76-11.21 7.4 2.672 11.23 10.845 8.56 18.24s-10.85 11.229-18.24 8.558c-3.06-1.105-6.96-.887-11.36-.249-9.44 1.37-20.5 5.299-31.73 10.507-17.72 8.223-35.75 19.705-48.65 30.702-7.07 6.028-12.64 11.536-14.65 16.268" style="fill:#fb9832" transform="translate(.002)"/><path d="M1311.02 403.418c-2.18 7.554-10.09 11.919-17.64 9.739-7.56-2.179-11.92-10.082-9.74-17.637 2.72-9.443 11.48-20.041 24.64-29.293 25.51-17.918 67.67-32.364 93.27-31.466 7.85.276 14.01 6.88 13.73 14.738-.27 7.858-6.88 14.014-14.73 13.738-17.92-.629-45.6 8.534-66.29 20.273-6.63 3.762-12.53 7.796-17.04 11.958-2.97 2.739-5.43 5.25-6.2 7.95" style="fill:#fb9832" transform="rotate(11.218 447.352 913.807)"/><path d="M955.741 462.615c.914 7.809-4.685 14.892-12.494 15.806s-14.892-4.685-15.806-12.495c-.584-4.988-4.536-9.692-9.584-14.611-7.004-6.827-16.464-13.335-26.923-19.225-19.639-11.06-42.789-19.861-61.145-23.774-5.564-1.186-10.636-1.918-14.948-2.037-2.447-.068-4.498-.167-5.916.468-7.176 3.216-15.612.001-18.827-7.175-3.216-7.175-.001-15.611 7.175-18.827 6.07-2.72 15.909-3.761 28.074-2.123 21.932 2.952 53.501 13.96 79.569 28.64 15.534 8.749 29.106 18.842 37.994 29.11 7.459 8.616 11.821 17.615 12.831 26.243" style="fill:#fb9832" transform="translate(.002)"/><path d="M991.639 298.252c-5.753-5.36-6.073-14.382-.713-20.136s14.384-6.072 20.134-.713c16.51 15.377 26.63 40.453 31.31 67.239 6.73 38.529 2.34 80.148-5.23 97.35-3.17 7.197-11.59 10.467-18.78 7.299-7.2-3.168-10.47-11.583-7.3-18.78 6.29-14.298 8.84-48.942 3.24-80.966-3.54-20.252-10.18-39.668-22.661-51.293" style="fill:#fb9832" transform="translate(61.091 -14.473)"/><path d="M988.318 312.093c-7.227-3.098-10.58-11.48-7.482-18.707s11.48-10.58 18.707-7.482c21.927 9.4 33.937 31.738 38.597 58.419 5.96 34.061.35 74.95-2.8 93.482-1.32 7.752-8.68 12.977-16.43 11.66-7.75-1.316-12.98-8.678-11.66-16.43 2.82-16.615 8.17-53.264 2.83-83.803-2.87-16.402-8.28-31.361-21.762-37.139" style="fill:#fb9832" transform="translate(-34.443 -6.426)"/><path d="M984.22 396.953c1.021 7.796-4.48 14.955-12.276 15.976-7.797 1.02-14.955-4.48-15.976-12.277-.49-3.742-3.735-7.143-7.679-10.817-9.12-8.492-23.034-16.267-37.745-22.227-14.882-6.03-30.626-10.192-43.408-10.875-5.903-.315-10.988-.285-14.254 1.76-6.665 4.174-15.463 2.151-19.636-4.513-4.174-6.664-2.152-15.462 4.512-19.636 6.572-4.115 16.131-6.394 27.62-6.182 20.921.384 49.593 8.762 73.039 20.932 13.932 7.231 26.008 15.821 33.936 24.59 6.88 7.61 10.867 15.633 11.867 23.269" style="fill:#fb9832" transform="translate(-91.872 190.88)"/><path d="M993.494 307.824c-4.48-6.462-2.872-15.345 3.59-19.826 6.466-4.48 15.346-2.871 19.826 3.591 12.32 17.774 17.12 44.429 17.59 71.747.63 36.774-6.1 74.578-6.69 87.573-.35 7.855-7.02 13.944-14.87 13.589-7.86-.355-13.947-7.02-13.592-14.875.576-12.733 7.282-49.764 6.662-85.795-.37-21.221-2.94-42.196-12.516-56.004" style="fill:#fb9832" transform="translate(279.083 -10.652)"/><path d="M1000.33 292.691c-5.781-5.328-6.152-14.348-.824-20.131 5.324-5.784 14.344-6.154 20.134-.826 15.31 14.107 23.72 39.143 26.78 66.777 4.14 37.241-.59 78.993-3.81 97.762-1.33 7.75-8.7 12.962-16.45 11.632-7.75-1.329-12.96-8.701-11.63-16.451 2.96-17.241 7.37-55.59 3.58-89.8-2.23-20.006-6.69-38.75-17.78-48.963" style="fill:#fb9832" transform="translate(174.325 -10.069)"/></g><path d="M814.773 343.841c86.478-86.142 274.277-116.422 429.177-89.411 105.62 18.418 195.21 63.779 229.74 132.333 34.66 68.814 62.79 234.33 48.36 353.639-6.58 54.441-22.54 99.4-48.57 123.762-44.53 41.664-94.51 110.836-322.76 106.311-184.78-3.664-313.527-56.611-375.649-127.209-10.776-12.247-20.036-31.589-26.907-56.18-9.381-33.577-14.758-77.513-15.657-125.021-1.336-70.572 7.174-149.069 26.35-212.749 13.399-44.493 32.212-81.863 55.916-105.475m23.833 23.925c-20.425 20.346-35.868 52.949-47.413 91.288-18.24 60.568-26.192 135.248-24.922 202.372.838 44.29 5.672 85.271 14.418 116.573 5.214 18.663 11.556 33.664 19.735 42.959 57.886 65.785 178.784 112.339 350.966 115.753 211.19 4.187 257.82-58.655 299.01-97.205 10.92-10.218 19.04-25.311 25.3-43.508 10.43-30.302 15.32-68.805 16.31-110.109 2.51-105.067-20.38-228.15-48.48-283.935-30.61-60.77-111.75-97.929-205.38-114.256-143.98-25.107-319.163-.002-399.544 80.068" style="fill:#6c5242"/><path d="M938.959 423.292c80.301-21.009 337.141-10.57 395.131 17.97 64.99 31.988 71.7 107.892 74.37 175.553 3.93 99.692-25.63 166.555-53.78 195.595-35.72 36.86-424.972 15.652-452.082-8.163-25.054-22.01-64.193-135.045-50.298-236.93 7.643-56.042 32.455-129.843 86.659-144.025" style="fill:#faebdd" transform="translate(140.124 72.892)scale(.87532)"/><path d="M933.466 402.298c49.534-12.96 164.404-14.736 261.254-7.38 66.4 5.042 124.43 14.803 148.95 26.873 38.23 18.816 59.7 50.233 71.63 87.211 10.72 33.245 13.43 71.175 14.84 106.958 4.26 108.052-29.37 180.078-59.87 211.554-6.14 6.334-18.97 12.892-37.92 16.969-31.9 6.863-85.47 9.746-144.5 9.537-86.88-.307-185.77-7.076-242.952-16.051-18.735-2.941-33.336-6.245-42.283-9.506-6.775-2.469-11.476-5.397-14.34-7.912-9.061-7.96-20.382-25.358-30.315-49.745-20.319-49.885-37.443-131.044-27.162-206.422 4.99-36.592 17.01-80.039 38.326-112.357 16.138-24.467 37.547-42.719 64.342-49.729m-17.555 384.696c2.831.82 19.47 5.547 35.718 8.097 55.631 8.732 151.851 15.228 236.371 15.527 47.67.168 91.58-1.603 122.08-6.206 9.11-1.375 16.9-2.971 23.02-4.921 2.49-.79 5.76-2.333 6.47-2.672 25.63-26.868 50.78-88.364 47.2-179.148-1.26-31.879-3.23-65.731-12.78-95.35-8.35-25.887-22.72-48.416-49.49-61.589-21.86-10.762-73.86-18.04-133.06-22.536-91.56-6.953-200.165-6.16-246.988 6.091-16.571 4.336-29.116 16.505-39.096 31.637-17.859 27.077-27.372 63.667-31.554 94.325-9.173 67.263 6.223 139.67 24.355 184.185 6.18 15.174 12.088 26.88 17.754 32.56" style="fill:#6c5242" transform="translate(140.124 72.892)scale(.87532)"/></g><g transform="translate(-15.263 -17.795)scale(1.125)"><path d="M139.754 72.362c.65-35.143 50.289-49.89 48.918-4.34-.268 8.932-3.046 19.068-5.29 20.448-3.665 2.253-34.707-5.318-43.628-16.108" style="fill:#faebdd"/><clipPath id="b"><path d="M139.754 72.362c.65-35.143 50.289-49.89 48.918-4.34-.268 8.932-3.046 19.068-5.29 20.448-3.665 2.253-34.707-5.318-43.628-16.108"/></clipPath><g clip-path="url(#b)"><path d="M152.548 76.898c13.678-1.153 34.768-38.545 16.978-35.517-12.654 2.153-29.879 19.307-31.724 27.425-1.68 7.395 9.159 8.564 14.746 8.092" style="fill:#fb9832;stroke:#fb9832;stroke-width:2px"/></g><path d="M139.754 72.362c.65-35.143 50.289-49.89 48.918-4.34-.268 8.932-3.046 19.068-5.29 20.448-3.665 2.253-34.707-5.318-43.628-16.108" style="fill:none;stroke:#6c5242;stroke-width:7.11px"/></g><g transform="rotate(6.175 104.142 2448.679)scale(-1.125 1.125)"><path d="M139.754 72.362c.65-35.143 50.289-49.89 48.918-4.34-.268 8.932-3.046 19.068-5.29 20.448-3.665 2.253-34.707-5.318-43.628-16.108" style="fill:#faebdd"/><clipPath id="c"><path d="M139.754 72.362c.65-35.143 50.289-49.89 48.918-4.34-.268 8.932-3.046 19.068-5.29 20.448-3.665 2.253-34.707-5.318-43.628-16.108"/></clipPath><g clip-path="url(#c)"><path d="M151.345 77.368c10.719 3.826 35.971-39.015 18.181-35.987-12.364 2.104-26.437 14.478-29.214 22.381-2.653 7.553 5.534 11.644 11.033 13.606" style="fill:#fb9832;stroke:#fb9832;stroke-width:2px"/></g><path d="M139.754 72.362c.65-35.143 50.289-49.89 48.918-4.34-.268 8.932-3.046 19.068-5.29 20.448-3.665 2.253-34.707-5.318-43.628-16.108" style="fill:none;stroke:#6c5242;stroke-width:7.11px"/></g></svg>