<svg xmlns="http://www.w3.org/2000/svg" xml:space="preserve" style="fill-rule:evenodd;clip-rule:evenodd;stroke-linejoin:round;stroke-miterlimit:2" viewBox="0 0 200 200">
    <path d="M826.689 355.803c-91.934 91.579-98.175 408.993-38.941 476.309 60.003 68.191 214.392 123.141 351.382 122.511 155.43-.714 279.95-62.681 322.81-102.788 79.28-74.187 44.83-361.859-3.33-457.476-81.42-161.651-492.873-177.064-631.921-38.556Z" style="fill:#c0b09c" transform="matrix(.22603 0 0 .22603 -155.867 -19.895)"/><path d="M823.567 352.669c-22.494 22.407-40.064 58.018-52.779 100.24-18.83 62.532-27.134 139.62-25.823 208.92.877 46.321 6.054 89.167 15.2 121.904 6.26 22.403 14.443 40.144 24.261 51.302 60.592 68.859 216.394 124.648 354.724 124.012 156.91-.721 282.55-63.493 325.81-103.981 32.34-30.26 46.6-95.214 48.35-168.668 2.6-108.836-21.64-236.244-50.75-294.03-33.08-65.68-119.56-108.016-220.75-125.663-150.87-26.308-334.015 2.063-418.243 85.964Zm6.245 6.269c82.63-82.31 262.468-109.325 410.478-83.516 98.05 17.099 182.32 57.286 214.37 120.927 28.69 56.955 52.37 182.567 49.81 289.838-1.02 42.718-6.2 82.524-16.98 113.865-7.01 20.368-16.35 37.116-28.57 48.553-42.45 39.725-165.86 100.886-319.81 101.594-135.64.623-288.626-53.488-348.041-121.01-9.137-10.383-16.556-26.988-22.381-47.837-8.98-32.141-14.015-74.213-14.876-119.69-1.294-68.397 6.864-144.485 25.449-206.201 12.229-40.61 28.916-74.972 50.551-96.523Z" style="fill:#c0b09c" transform="matrix(.22603 0 0 .22603 -155.867 -19.895)"/><path d="M1016.59 229.998c2.23-4.46 46.57-72.932 254.5-112.427 79.94-15.184 203.11 73.214 206.87 110.638 3.76 37.423-102.72 112.887-184.3 113.903-79.19.987-199.62-71.522-277.07-112.114Z" style="fill:#c0b09c" transform="matrix(.10581 0 0 .09817 -7.894 -3.774)"/><path d="M1012.43 227.581a5.482 5.482 0 0 0-.34 3.98c.4 1.321 1.28 2.41 2.43 3.017 78.02 40.888 199.43 113.621 279.2 112.627 58.21-.725 128.88-38.577 164.72-74.344 9.53-9.517 16.63-18.931 20.57-27.461 2.96-6.4 4.18-12.41 3.65-17.74-.52-5.152-2.89-11.203-7.03-17.733-5.61-8.852-14.56-18.821-25.9-28.917-43.43-38.67-122.31-79.309-179.46-68.455-210.96 40.07-255.58 110.502-257.84 115.026Zm11.29.506c12.62-16.133 68.68-71.405 248.19-105.5 54.78-10.404 130.17 29.21 171.81 66.277 10.53 9.38 18.89 18.587 24.11 26.811 3.07 4.854 5.05 9.252 5.43 13.082.37 3.652-.68 7.718-2.71 12.103-3.53 7.646-9.99 15.998-18.53 24.526-34.47 34.407-102.41 70.936-158.41 71.633-76.91.958-192.9-68.2-269.89-108.933v.001Z" style="fill:#c0b09c" transform="matrix(.10581 0 0 .09817 -7.894 -3.774)"/><path d="M983.448 138.317c-1.051 42.317-1.484 59.171-1.943 99.03" style="fill:#f8f8f8" transform="matrix(.7207 -.0391 .02046 .37708 -611.902 -4.733)"/><path d="M976.528 137.689c-1.055 42.461-1.488 59.372-1.949 99.366-.084 7.306 2.951 13.368 6.773 13.529 3.822.161 6.994-5.64 7.078-12.946.459-39.723.89-56.52 1.937-98.693.182-7.299-2.772-13.507-6.591-13.853-3.819-.347-7.067 5.298-7.248 12.597Z" style="fill:#c0b09c" transform="matrix(.7207 -.0391 .02046 .37708 -611.902 -4.733)"/>
</svg>