<svg xmlns="http://www.w3.org/2000/svg" xml:space="preserve" style="fill-rule:evenodd;clip-rule:evenodd;stroke-linecap:round;stroke-linejoin:round;stroke-miterlimit:1.5" viewBox="0 0 440 440">
  <path d="M221.303 25.157c-1.587-4.707.947-9.817 5.654-11.404 4.707-1.586 9.816.947 11.403 5.654 12.633 37.475 3.979 69.964-5.694 82.162-3.087 3.892-8.752 4.546-12.644 1.46-3.892-3.086-4.546-8.752-1.46-12.644 7.668-9.669 12.755-35.522 2.741-65.228Z" style="fill:#8b7355"/>
  <path d="M354.747 12.183c-14.963 41.532-48.203 73.373-83.707 65.957-19.15-4-33.489-20.547-34-29.21-.516-8.759 4.628-20.427 19.734-29.152 12.705-7.338 31.979-7.973 40.3-5.727 13.649 3.684 30.492 8.437 57.673-1.868Z" style="fill:#99ae50"/>
  <clipPath id="a">
    <path d="M354.747 12.183c-14.963 41.532-48.203 73.373-83.707 65.957-19.15-4-33.489-20.547-34-29.21-.516-8.759 4.628-20.427 19.734-29.152 12.705-7.338 31.979-7.973 40.3-5.727 13.649 3.684 30.492 8.437 57.673-1.868Z"/>
  </clipPath>
  <g clip-path="url(#a)">
    <path d="M240.09 51.715c-.31.465-1.04 1.407-2.126 1.797-.016.006-3.043-.132-3.049-.138-.684-.753-1.702-1.306-2.045-2.263-.111-.309-.724-2.015.727-4.033 3.846-5.347 18.881-10.041 32.521-5.42 13.502 4.576 26.546 8.392 39.475 4.432 6.144-1.882 12.058-5.343 18.903-10.011.878-.598.868-.63.901-.617.832.318.161 1.023.991 1.34-18.238 14.3-29.094 19.469-60.947 10.854-.372-.101-9.949-3.337-20.543 1.003-1.751.717-3.901 1.903-4.671 2.847l.021-.041c.021-.043.006-.012-.045.071-.026.033-.05.066-.073.098-.477-.33-.561-.39-.909-.604.48.372.63.927.869.685Zm0 0c.048-.072.086-.133.113-.179l.024-.03a.872.872 0 0 1-.137.209Z" style="fill:#8b7355"/>
  </g>
  <path d="M354.747 12.183c-14.963 41.532-48.203 73.373-83.707 65.957-19.15-4-33.489-20.547-34-29.21-.516-8.759 4.628-20.427 19.734-29.152 12.705-7.338 31.979-7.973 40.3-5.727 13.649 3.684 30.492 8.437 57.673-1.868Z" style="fill:none;stroke:#8b7355;stroke-width:6px"/>
  <path d="M76.548 139.366c-45.308 45.132-38.135 223.7 2.154 262.545 24.675 23.79 103.308 21.698 145.103 23.13 38.446 1.316 135.683-3.178 156.444-21.602 29.286-25.989 41.538-210.052.129-261.589-45.189-56.242-235.305-70.744-303.83-2.484Z" style="fill:#fff"/>
  <clipPath id="b">
    <path d="M76.548 139.366c-45.308 45.132-38.135 223.7 2.154 262.545 24.675 23.79 103.308 21.698 145.103 23.13 38.446 1.316 135.683-3.178 156.444-21.602 29.286-25.989 41.538-210.052.129-261.589-45.189-56.242-235.305-70.744-303.83-2.484Z"/>
  </clipPath>
  <g clip-path="url(#b)">
    <path d="M110.686 363.139c5.447 28.98-22.128 40.346-40.014 46.991-6.95 2.583 37.429 27.161 105.637 25.355 4.996-.132 122.759 7.248 154.564-.071 20.299-4.671 70.752-31.954 62.987-30.598-25.926 4.528-57.484-17.866-47.807-41.414 2.053-4.996-50.54 7.693-107.253 7.967-62.019.3-128.715-11.43-128.114-8.23Z" style="fill:#e4892e"/>
    <path d="m106.755 363.878.057-1.815.778-1.576.914-.863 1.086-.57c.539-.201 1.441-.401 2.704-.451 10.936-.436 70.608 9.037 126.487 8.766 45.292-.219 87.951-8.38 102.154-9.078 3.825-.188 6.25.462 7.18 1.104l1.208 1.204.602 1.258.185 1.386-.357 1.679c-3.264 7.942-.811 15.696 4.522 21.936 8.657 10.13 24.702 16.497 38.897 14.018l1.48-.098 1.092.201 1.405.759.961 1.128.465 1.213.082 1.125-.341 1.416-.624 1.049c-.651.838-3.128 2.741-7.016 5.056-13.146 7.827-44.005 23.158-58.906 26.587-31.967 7.357-150.334.039-155.355.172-55.92 1.48-96.155-14.618-106.387-22.362-2.65-2.005-3.753-4.008-3.984-5.237l-.014-1.758.273-.951.468-.877.987-1.066 1.521-.852c6.9-2.564 15.307-5.832 22.561-10.649 10.024-6.655 17.819-16.406 14.915-31.854ZM76.891 412.04a32.07 32.07 0 0 0 2.528 1.519c14.656 7.836 50.01 19.166 96.785 17.928 4.969-.132 122.13 7.311 153.772.029 12.524-2.882 36.768-14.58 51.073-22.492-12.798-1.577-25.231-8.047-32.856-16.969-6.302-7.374-9.402-16.345-7.28-25.654a89.794 89.794 0 0 0-5.961.443c-18.412 2.043-56.259 8.332-96.133 8.525-49.741.241-102.484-7.226-121.282-8.585a58.89 58.89 0 0 0-2.316-.117c1.301 13.944-4.584 23.951-13.178 31.371-7.354 6.35-16.803 10.716-25.152 14.002ZM127.262 170.03c-5.192 2.849-52.15-9.549-53.077-29.652-.352-7.629-29.933 63.308-30.313 72.851-.947 23.717 54.07 34.258 61.242 18.116 3.192-7.186 29.051-65.103 22.148-61.315Z" style="fill:#e4892e"/>
    <path d="m125.338 166.523 1.71-.607 1.755.043.973.338.871.554.777.812.639 1.178c.382 1.017.495 3.259-.26 6.366-3.225 13.27-20.45 51.946-23.034 57.762-1.538 3.462-4.606 6.138-8.858 7.843-5.258 2.108-12.496 2.745-20.145 1.938-11.166-1.178-23.182-5.403-30.901-11.835-5.812-4.844-9.266-10.931-8.99-17.845.143-3.59 4.102-15.54 9.306-28.936 7.665-19.731 17.906-42.696 21.017-46.4l1.291-1.184 1.251-.58.851-.153 1.047.051 1.435.538.756.583.716.918.467 1.138.169 1.148c.143 3.112 1.836 5.924 4.286 8.512 4.411 4.659 11.238 8.489 18.207 11.418 8.321 3.498 16.883 5.687 22.122 6.204 1.28.127 2.901.042 2.901.042s-.26.1-.359.154Zm3.645 7.117Zm-5.328.756a24.868 24.868 0 0 1-1.645-.107c-5.784-.572-15.251-2.93-24.436-6.791-8.037-3.378-15.83-7.921-20.916-13.293-1.518-1.603-2.803-3.285-3.818-5.032-5.717 11.602-15.139 34.284-20.688 49.854-2.452 6.878-4.199 12.241-4.284 14.362-.178 4.471 2.36 8.248 6.118 11.38 6.636 5.53 17.022 9.012 26.62 10.025 6.194.654 12.069.3 16.327-1.408 2.093-.839 3.768-1.961 4.525-3.665 2.22-4.996 15.477-34.679 20.876-50.75a64.755 64.755 0 0 0 1.321-4.575ZM330.335 172.297c4.3 4.073 52.921-9.771 52.68-34.046-.076-7.637 24.547 75.558 19.406 83.608-11.684 18.298-52.561 16.054-55.256 6.182-2.071-7.586-22.546-61.158-16.83-55.744Z" style="fill:#e4892e"/>
    <path d="M332.458 168.921c.654-.032 5.878-.314 10.167-1.458 8.929-2.382 20.607-7.33 28.469-14.411 4.639-4.179 7.977-9.078 7.921-14.762l.174-1.478.657-1.373.953-.94.999-.514 1.683-.215.837.159.886.384 1.226 1.066.845 1.388c3.163 6.497 16.524 52.13 19.314 73.901.537 4.187.672 7.574.378 9.783-.209 1.571-.659 2.754-1.174 3.561-3.734 5.847-10.006 9.958-17.275 12.453-10.253 3.518-22.46 3.828-31.265 1.966-4.161-.88-7.606-2.272-9.925-3.944-2.163-1.561-3.486-3.432-4.022-5.393-1.49-5.458-12.517-34.741-16.442-48.692-1.224-4.351-1.651-7.55-1.444-8.747l.279-.997.454-.861.691-.793 1.033-.686 1.368-.381 1.211.045 1.469.537.533.402Zm-4.506 6.567-.368-.287c.123.117.247.211.368.287Zm6.383 1.49c.518 2.055 1.202 4.598 1.966 7.01 4.78 15.088 13.414 38.203 14.723 42.999.173.633.894 1.006 1.704 1.473 1.59.918 3.721 1.624 6.18 2.144 7.608 1.609 18.155 1.333 27.013-1.706 5.4-1.853 10.193-4.716 13.018-9.021.036-.285.211-1.758.177-2.93-.102-3.464-.818-8.363-1.898-14.027-3.143-16.495-9.379-39.284-13.569-52.571-1.809 3.114-4.272 6.009-7.201 8.647-8.784 7.912-21.785 13.535-31.761 16.196-4.073 1.087-7.674 1.672-10.352 1.786ZM275.44 94.745c-15.246 4.296-31.383 59.366-22.381 64.42 9.506 5.338 31.23 12.041 39.832 7.493 10.381-5.489 32.435-54.41 17.817-63.315-6.587-4.013-19.273-13.104-35.268-8.598Z" style="fill:#e4892e"/>
    <path d="M274.355 90.895c17.397-4.901 31.27 4.667 38.435 9.032 5.474 3.335 7.586 10.942 6.45 20.456-1.553 13.003-8.636 29.775-15.368 40.037-3.244 4.946-6.55 8.42-9.111 9.774-3.114 1.646-7.631 2.235-12.77 1.849-10.5-.79-23.859-5.442-30.891-9.39-1.542-.866-2.847-2.39-3.65-4.659-1.131-3.194-1.269-8.46-.367-14.73 1.908-13.27 8.184-31.475 15.573-42.286 3.688-5.396 7.814-8.988 11.699-10.083Zm-19.143 64.891c5.432 3.006 14.874 6.422 23.318 7.788 5.007.81 9.629 1.061 12.492-.453 2.106-1.113 4.604-4.489 7.282-8.857 4.567-7.449 9.143-17.813 11.56-27.35 1.274-5.029 1.96-9.81 1.616-13.746-.249-2.855-.919-5.231-2.853-6.409-6.01-3.662-17.507-12.276-32.102-8.164-1.533.432-2.999 1.687-4.505 3.349-1.917 2.115-3.77 4.897-5.523 8.072-5.536 10.03-9.986 23.886-11.496 34.387-.503 3.5-.686 6.599-.41 8.995.105.918.526 2.125.621 2.388ZM181.149 90.899c14.35 6.707 21.359 63.663 11.657 67.194-10.244 3.728-32.767 6.826-40.52.945-9.354-7.096-23.198-58.942-7.332-65.364 7.15-2.894 21.14-9.811 36.195-2.775Z" style="fill:#e4892e"/>
    <path d="M182.843 87.275c3.656 1.71 7.147 5.922 9.913 11.845 5.54 11.864 8.787 30.845 8.522 44.248-.125 6.334-1.114 11.508-2.747 14.476-1.16 2.11-2.694 3.402-4.357 4.007-7.578 2.758-21.513 5.187-32.002 4.266-5.134-.451-9.496-1.763-12.303-3.892-2.308-1.751-5.008-5.714-7.409-11.12-4.981-11.216-9.256-28.913-8.684-41.996.419-9.573 3.735-16.738 9.677-19.143 7.776-3.147 23.016-10.344 39.39-2.691Zm8.386 67.134c.136-.244.746-1.366.999-2.256.66-2.319.982-5.407 1.052-8.942.209-10.607-1.939-25.001-5.778-35.795-1.216-3.417-2.594-6.462-4.143-8.859-1.218-1.884-2.461-3.36-3.904-4.034-13.737-6.421-26.476.218-33 2.859-2.1.849-3.145 3.086-3.853 5.863-.976 3.828-1.073 8.657-.63 13.826.841 9.803 3.679 20.77 6.98 28.86 1.935 4.744 3.854 8.48 5.752 9.92 2.58 1.957 7.181 2.457 12.253 2.469 8.554.018 18.425-1.824 24.272-3.911Z" style="fill:#e4892e"/>
  </g>
  <path d="M74.431 137.241c41.655-41.494 127.595-53.093 199.621-43.193 48.297 6.639 90.245 22.998 108.664 45.923 10.184 12.674 17.294 33.135 21.662 57.336 6.439 35.673 7.033 79.538 3.481 117.945-2.376 25.69-6.611 48.943-12.163 65.706-3.877 11.706-8.496 20.324-13.455 24.725-6.485 5.754-20.076 10.366-37.09 13.738-38.348 7.601-94.383 9.545-121.448 8.618-25.165-.862-63.636-.463-95.736-5.153-22.062-3.223-41.137-8.971-51.348-18.816-8.336-8.037-15.389-21.81-20.824-39.151-7.953-25.373-12.562-58.472-13.268-91.86-.706-33.401 2.496-67.086 10.095-93.613 5.182-18.089 12.45-32.883 21.809-42.205Zm4.234 4.251c-8.765 8.731-15.421 22.664-20.275 39.607-7.455 26.021-10.557 59.068-9.865 91.833.694 32.78 5.187 65.281 12.995 90.193 5.072 16.182 11.484 29.125 19.264 36.626 9.529 9.188 27.461 14.19 48.05 17.198 31.878 4.658 70.084 4.238 95.074 5.093 26.759.917 82.162-.991 120.076-8.506 15.67-3.106 28.302-7.041 34.274-12.341 4.413-3.916 8.293-11.707 11.742-22.124 5.439-16.421 9.557-39.205 11.885-64.372 3.503-37.879 2.939-81.143-3.411-116.326-4.158-23.036-10.742-42.58-20.435-54.644-17.732-22.068-58.311-37.346-104.804-43.736-70.159-9.644-153.995 1.081-194.57 41.499Z" style="fill:#8b7355"/>
  <path d="M132.534 163.448c26.091-20.925 180.246-17.77 195.968 1.247 29.804 36.05 35.801 72.345 36.058 106.789.217 29.053-5.979 83.71-20.836 97.895-15.592 14.885-200.486 16.002-231.688.31-17.395-8.749-26.462-72.696-23.136-107.374 4.41-45.984 16.382-77.013 43.634-98.867Z" style="fill:#46413e"/>
  <path d="M130.031 160.327c5.82-4.667 17.572-8.407 32.768-10.899 33.689-5.526 84.849-5.648 121.837-1.316 13.792 1.615 25.638 3.861 33.956 6.643 6.342 2.122 10.783 4.718 12.993 7.392 30.513 36.907 36.712 74.045 36.975 109.308.154 20.656-2.902 54.053-9.915 77.175-3.203 10.562-7.334 19.035-12.159 23.642-1.706 1.628-5.002 3.282-9.754 4.636-9.298 2.649-24.892 4.699-43.744 6.058-43.386 3.127-104.242 2.707-144.38-1.61-17.762-1.91-31.57-4.674-38.369-8.094-5.852-2.943-11.226-11.217-15.274-22.744-8.589-24.458-12.421-63.833-10.047-88.585 4.537-47.305 17.079-79.124 45.113-101.606Zm5.005 6.241c-26.469 21.227-37.871 51.465-42.155 96.129-2.282 23.797 1.375 61.656 9.632 85.17 2.013 5.732 4.28 10.582 6.846 14.058 1.413 1.914 2.872 3.385 4.474 4.19 6.306 3.172 19.158 5.516 35.63 7.287 39.741 4.274 99.994 4.681 142.95 1.584 15.618-1.125 28.927-2.707 38.069-4.752 5.197-1.163 8.908-2.248 10.479-3.748 5.557-5.305 9.581-16.765 12.68-30.224 4.903-21.289 7.047-47.562 6.919-64.748-.251-33.625-6.045-69.077-35.14-104.27-1.564-1.891-4.881-3.401-9.366-4.902-7.922-2.65-19.213-4.746-32.348-6.284-36.313-4.253-86.538-4.16-119.612 1.264-13.418 2.201-23.919 5.125-29.058 9.246Z" style="fill:#6d6158"/>
</svg>