<svg xmlns="http://www.w3.org/2000/svg" xml:space="preserve" style="fill-rule:evenodd;clip-rule:evenodd;stroke-linejoin:round;stroke-miterlimit:2" viewBox="0 0 440 440">
  <path d="M1288.03 364.478c-121.3 7.598-290.485-58.047-311.248-104.862-17.236-38.863 83.088-90.286 151.868-111.623 105.36-32.683 197.97-38.227 257.56-32.475 147.19 14.208 244.29 56.896 244.08 80.684-.22 24.477-68.14 151.105-342.26 168.276Z" style="fill:#99ae50" transform="matrix(.15588 .01397 -.01632 .1821 79.669 -24.55)"/>
  <path d="M1288.73 372.66c-86.82 5.438-197.65-25.715-263.61-61.376-29.873-16.155-50.567-33.578-57.298-48.756-6.255-14.101-.785-29.818 13.686-45.261 28.792-30.729 94.212-61.582 143.882-76.987 107.12-33.231 201.31-38.762 261.89-32.914 105.07 10.142 185.03 34.751 223.53 56.783 10.94 6.264 18.74 12.459 23.3 18.07 4.04 4.976 5.8 9.762 5.76 14.045-.07 8.074-6.3 26.455-23.88 48.466-38.2 47.806-130.86 115.627-327.26 127.93Zm-1.39-16.364c187.35-11.737 276.39-75.223 312.82-120.828 14.4-18.026 20.49-32.715 20.54-39.328.02-2.017-1.69-4.067-4.06-6.475-3.72-3.786-9.3-7.76-16.49-11.876-37-21.178-114.02-44.37-215.01-54.118-58.59-5.656-149.63-.099-253.22 32.035-40.19 12.465-91.48 35.399-122.41 59.987-9.607 7.632-17.207 15.361-21.527 23.01-3.509 6.213-4.779 12.278-2.241 18.002 5.727 12.911 24.208 26.964 49.618 40.707 63.06 34.095 168.97 64.083 251.98 58.884Z" style="fill:#99ae50" transform="matrix(.15588 .01397 -.01632 .1821 79.669 -24.55)"/>
  <path d="M980.076 81.216c1.581-10.195 4.48-11.895 6.47-3.794 1.989 8.101 2.321 22.955.74 33.149-3.262 21.039-5.295 51.278-5.256 79.535.024 16.905.784 33.18 2.703 45.561 1.58 10.197 1.247 25.05-.743 33.147-1.99 8.098-4.888 6.393-6.469-3.804-3.157-20.373-4.66-46.749-4.699-74.567-.054-38.825 2.772-80.319 7.254-109.227Z" style="fill:#b18c67" transform="matrix(1.95474 0 0 .38147 -1691.779 -20.161)"/>
  <g transform="matrix(.49282 0 0 .49282 -334.478 -52.69)">
    <path d="M826.689 355.803c-91.934 91.579-100.171 404.489-45.004 475.176 16.203 20.76 29.673 31.105 44.202 42.505 18.131 14.226 33.586 23.649 57.473 34.081 72.276 31.567 170.38 47.451 255.77 47.058 63.07-.29 126.79-3.609 176.29-18.519 72.48-21.831 121.05-60.438 146.52-84.269 79.28-74.187 44.83-361.859-3.33-457.476-81.42-161.651-492.873-177.064-631.921-38.556Z" style="fill:#fff"/>
    <clipPath id="a">
      <path d="M826.689 355.803c-91.934 91.579-100.171 404.489-45.004 475.176 16.203 20.76 29.673 31.105 44.202 42.505 18.131 14.226 33.586 23.649 57.473 34.081 72.276 31.567 170.38 47.451 255.77 47.058 63.07-.29 126.79-3.609 176.29-18.519 72.48-21.831 121.05-60.438 146.52-84.269 79.28-74.187 44.83-361.859-3.33-457.476-81.42-161.651-492.873-177.064-631.921-38.556Z"/>
    </clipPath>
    <g clip-path="url(#a)">
      <path d="M901.399 850.65c-13.461 5.474-20.671 10.798-37.183 13.815-25.68 4.69-58.696 3.988-58.613 4.092 2.003 2.508 56.244 36.938 108.45 57.461 33.306 13.094 69.493 15.057 78.708 17.229 27.539 6.489 135.169 15.625 158.359 14.766 10.13-.375 89.97-1.34 154.51-16.191 41.19-9.479 147.24-44.948 130.1-58.706-3.66-2.942-35.05 2.314-57.2-4.521-22.54-6.955-42.77-19.728-45.06-18.971-19.53 6.433-172.39 10.337-206.29 12.345-24.67 1.461-201.107-31.352-225.781-21.319Z" style="fill:#e4892e"/>
      <path d="M898.342 843.131c2.791-1.134 7.102-1.974 12.704-2.307 10.698-.636 27.042.319 46.138 2.205 61.436 6.069 152.376 21.853 169.516 20.837 33.55-1.987 184.9-5.583 204.23-11.951l2.43-.433 2.16.162c1.01.182 2.59.674 4.61 1.563 6.93 3.041 23.13 12.182 40.79 17.633 17 5.245 39.68 2.857 49.87 3.221 5.19.185 8.59 1.575 10.02 2.725l2.02 1.956 1.66 2.543 1.02 3.037.16 3.142c-.29 3.554-2.56 8.051-7.73 12.363-20.24 16.881-96.63 42.112-130.49 49.905-65.17 14.998-145.8 16.013-156.03 16.392-23.51.87-132.6-8.399-160.521-14.977-9.347-2.203-46.032-4.293-79.816-17.575-42.359-16.652-86.042-42.328-102.86-53.237-5.39-3.495-8.442-6.061-8.962-6.713l-1.135-1.908-.528-1.816-.016-2.586.712-2.284 1.304-1.932 1.635-1.379 3.137-1.184 2.154-.106c5.38-.004 33.704.168 56.233-3.947 15.821-2.89 22.687-8.104 35.585-13.349Zm-66.184 32.906c20.718 12.307 53.171 29.968 84.864 42.427 32.828 12.906 68.517 14.742 77.6 16.882 27.168 6.401 133.328 15.403 156.198 14.556 10.03-.372 89.09-1.285 152.99-15.99 28.29-6.511 87.8-25.458 115.17-40.908 1.2-.673 2.39-1.437 3.53-2.218-12.17.18-32.79-.242-46.38-4.435-17.85-5.51-38.25-15.9-42.87-18.303-28.29 6.093-172.64 10.07-205.6 12.023-17.4 1.031-109.72-14.728-172.072-20.887-15.549-1.536-29.175-2.464-39.151-2.312-5.456.082-9.607.332-11.98 1.297-14.026 5.703-21.579 11.137-38.783 14.28-10.862 1.984-23.005 3.033-33.516 3.588Z" style="fill:#e4892e"/>
      <path d="M801.606 355.53c-7.718 1.385-14.879 19.517-16.807 33.971-3.589 26.912 7.253 25.573 9.717 40.253 1.425 8.493 136.859 30.539 174.352 15.14 6.756-2.774 9.073-30.962 2.356-48.664-6.307-16.622-22.117-43.49-26.162-43.426-10.727.17-41.079 12.949-79.693 9.805-46.635-3.798-55.375-8.585-63.763-7.079Z" style="fill:#e4892e" transform="rotate(-116.093 1177.658 255.638)"/>
      <path d="M800.172 347.541c3.248-.583 6.538-.533 11.176.092 8.32 1.122 22.286 4.248 54.679 6.886 25.971 2.115 48.044-3.344 62.49-6.819 7.214-1.735 12.814-2.954 16.417-3.011l2.501.306 2.465 1.011c1.303.735 3.08 2.179 4.995 4.414 6.7 7.821 18.568 28.832 23.918 42.93 5.267 13.881 5.574 33.516 2.689 45.114-1.933 7.774-6 12.48-9.55 13.938-9.677 3.974-25.393 5.836-43.755 5.93-40.541.207-94.569-7.641-120.64-14.408-8.957-2.325-15.031-4.912-17.337-6.771l-2.388-2.633-1.321-3.423c-.765-4.558-2.709-7.065-4.422-9.844-3.959-6.419-7.91-13.517-5.335-32.825 1.526-11.437 6.104-24.856 11.613-32.449 3.58-4.933 7.837-7.726 11.805-8.438Zm142.426 13.622c-4.07.612-9.935 2.282-17.272 3.979-15.396 3.561-36.458 7.524-60.616 5.557-28.327-2.307-42.843-4.973-51.757-6.408-4.384-.706-7.011-1.196-9.524-.836-.397.427-2.413 2.629-3.456 4.469-3.464 6.114-6.105 14.976-7.128 22.65-2.074 15.551 1.623 19.687 4.765 24.918 1.638 2.728 3.146 5.658 4.177 9.517 2.094.788 6.108 2.232 9.848 3.203 25.171 6.533 77.338 14.087 116.479 13.887 15.02-.076 28.026-1.18 36.419-4.23.435-1.219 1.596-4.638 1.982-7.348 1.313-9.233.693-21.998-2.879-31.412-3.787-9.979-11.178-23.828-17.085-32.699-1.27-1.907-2.902-3.965-3.953-5.247Z" style="fill:#e4892e" transform="rotate(-116.093 1177.658 255.638)"/>
      <path d="M892.667 338.084c-13.988-5.251-42.077 86.696-25.872 97.071 2.887 1.848 29.806 13.536 97.409 4.516 36.676-4.894 91.676-21.197 97.696-28.177 10.72-12.441 11.68-24.665 8.14-46.635-2.3-14.214-5.42-23.359-18.93-30.684-11.4-6.185-53.896 6.362-91.263 9.759-32.409 2.946-60.46-3.327-67.18-5.85Z" style="fill:#e4892e" transform="rotate(119.041 903.15 363.731) skewX(8.007)"/>
      <path d="M896.468 330.439c6.376 2.393 33.022 8.207 63.771 5.412 26.146-2.376 54.801-9.236 73.551-11.017 10.06-.955 17.72-.227 22 2.093 15.74 8.542 19.67 19.01 22.35 35.586 4.08 25.332 2.04 39.385-10.33 53.729-1.04 1.208-2.75 2.689-5.22 4.158-3.35 1.99-8.79 4.4-15.67 6.909-21.02 7.671-56.484 16.899-82.754 20.404-71.218 9.503-99.425-3.612-102.466-5.559-4.78-3.06-7.939-10.665-7.991-21.503-.092-19.028 7.868-49.235 16.769-68.38 4.594-9.88 9.899-17.004 14.188-19.889l2.496-1.399 2.959-.972 3.252-.235 3.095.663Zm159.862 75.906c8.74-10.407 8.57-20.757 5.61-39.139-1.92-11.855-4.24-19.674-15.5-25.783-1.47-.795-3.8-.843-6.68-.818-4.17.036-9.22.579-14.9 1.387-18.41 2.621-42.837 7.972-65.406 10.024-30.822 2.802-57.869-2.441-67.975-5.43-.501.592-1.088 1.321-1.523 1.973-1.579 2.365-3.168 5.337-4.74 8.719-6.854 14.741-13.135 36.777-14.738 53.536-.488 5.107-.552 9.685.049 13.294.301 1.811.375 3.416 1.363 4.048 2.732 1.75 28.361 12.01 92.351 3.472 25.073-3.345 58.919-12.149 78.989-19.47 5.96-2.174 12.21-5.359 13.1-5.813Z" style="fill:#e4892e" transform="rotate(119.041 903.15 363.731) skewX(8.007)"/>
      <path d="M816.644 355.225c-11.177.66-4.243 25.892 7.352 54.421 11.417 28.09 20.829 55.351 32.902 57.976 9.511 2.068 103.367.307 116.684-1.829.292-.047-12.718-29.978-27.31-69.86-9.135-24.966-4.67-51.41-10.442-54.822-6.697-3.958-108.391 13.477-119.186 14.114Z" style="fill:#e4892e" transform="matrix(.6418 0 0 1 452.819 -79.958)"/>
      <path d="M815.486 347.143c8.599-.508 75.12-11.749 104.802-14.195 8.194-.676 14.362-.58 17.441-.073l3.613.885 3.055 1.381 2.42 1.809 1.97 2.419c.796 1.288 1.496 3.032 1.984 5.193 2.075 9.186.606 29.82 7.813 49.516 13.114 35.842 24.949 63.635 26.973 68.87l.672 3.049-.752 2.556-2.584 2.733-2.593 1.384-3.651.997c-9.646 1.547-60.112 3.051-92.905 2.993-15.63-.029-27.621-.636-30.904-1.35-5.788-1.259-12.489-5.361-17.713-12.678-7.836-10.977-15.158-30.737-23.368-50.938-6.718-16.529-11.856-31.998-13.106-42.522-.667-5.623-.154-10.105 1.23-13.089l2.763-3.9 3.58-2.585 4.324-1.676 4.936-.779Zm8.528 15.444c-.093 2.273-.121 6.223.542 9.593 1.875 9.545 6.269 22.11 11.677 35.417 6.731 16.56 12.713 32.834 19.015 43.755 1.984 3.437 5.385 7.243 6.587 8.546 3.523.147 13.143.513 21.98.528 23.073.042 55.534-.584 73.963-1.514-4.81-11.737-13.952-34.159-23.818-61.123-5.126-14.01-6.192-28.464-6.976-39.359-.24-3.326-.744-6.994-1.146-9.601-23.645 1.45-81.575 11.009-101.824 13.758Z" style="fill:#e4892e" transform="matrix(.6418 0 0 1 452.819 -79.958)"/>
      <path d="M934.5 340.934c4.61 5.991-3.911 43.392-18.893 73.672-9.392 18.981-42.89 62.625-37.621 62.718 38.752.681 121.463 2.986 128.144 3.725 12.21 1.348 19.73-20.137 35.28-54.541 12.26-27.117 21.82-71.791-2.19-73.352-24.26-1.577-108.252-16.812-104.72-12.222Z" style="fill:#e4892e" transform="matrix(.6418 0 0 1 634.224 -79.259)"/>
      <path d="m923.161 344.528-1.235-2.45-.112-2.268.738-2.052 1.471-1.84 4.12-2.514 3.083-.904 3.19-.44c3.962-.305 14.211.537 27.232 2.28 25.461 3.407 63.812 9.763 78.852 10.741 12.03.782 21.18 6.921 24.52 17.935 4.93 16.316-2.36 45.614-11.46 65.754-11.31 25.011-18.81 43.389-26.47 51.72-3.34 3.627-7.07 5.918-10.63 7.181l-5.93 1.363-6.54.014c-6.592-.728-88.144-2.939-126.351-3.611l-2.792-.242-2.936-.713-2.599-1.149-1.922-1.356-2.273-3.272-.124-3.825c1.703-7.452 29.942-45.312 38.56-62.73 10.177-20.568 17.312-44.517 19.124-59.032.513-4.109.121-9.152.121-9.152s.249.414.363.562Zm-28.001 125.02c38.049.837 93.946 2.46 109.44 3.259.88-.904 2.24-2.382 3.16-3.729 6.16-8.996 12.38-24.647 21.51-44.832 6.99-15.478 13.19-36.956 12-51.992-.27-3.39-.9-6.399-2.14-8.813-.42-.805-1.37-1.865-1.72-2.246-15.89-1.12-54.927-7.485-80.925-10.964-2.768-.37-5.604-.704-8.214-.99a49.27 49.27 0 0 1-.381 5.174c-1.923 15.402-9.431 40.823-20.23 62.648-6.114 12.358-23.701 39.242-32.5 52.485Zm51.894-129.826c-.184-.755-.573-1.548-1.215-2.381.447.58.861 1.38 1.215 2.381Z" style="fill:#e4892e" transform="matrix(.6418 0 0 1 634.224 -79.259)"/>
    </g>
    <path d="M819.529 348.615c85.261-84.93 270.551-114.177 423.261-87.546 103.23 18.001 191.14 61.726 224.88 128.726 29.38 58.323 53.98 186.891 51.36 296.739-1.8 75.29-17.01 141.694-50.16 172.709-26.16 24.483-76.06 64.147-150.52 86.576-50.32 15.154-115.06 18.655-179.17 18.95-86.77.399-186.439-15.83-259.881-47.906-24.804-10.833-40.848-20.624-59.675-35.397-15.111-11.857-29.085-22.653-45.937-44.245-22.885-29.323-36.119-98.661-36.615-177.602-.438-69.527 8.576-146.52 27.914-209.039 13.264-42.881 31.505-79.015 54.543-101.965Zm14.321 14.376c-21.091 21.009-37.336 54.33-49.478 93.585-18.771 60.685-27.434 135.429-27.009 202.915.461 73.299 11.071 138.019 32.321 165.246 15.553 19.928 28.519 29.822 42.466 40.765 17.435 13.68 32.301 22.734 55.271 32.766 71.111 31.057 167.649 46.596 251.669 46.21 62.03-.286 124.71-3.423 173.41-18.089 70.5-21.234 117.74-58.783 142.51-81.962 11.62-10.877 20.4-26.865 27.07-46.236 10.61-30.864 15.66-70.072 16.67-112.141 2.53-106.259-20.78-230.71-49.2-287.127-31.39-62.323-114.23-101.12-210.25-117.864-146.15-25.487-323.853.651-405.45 81.932Z" style="fill:#b18c67"/>
    <path d="M915.949 407.423c35.859-18.629 239.171-21.759 291.261-17.159 24.25 2.141 111.17 9.3 144.38 22.189 19.08 7.406 62.72 54.055 74.98 100.127 10.65 40.02 12.07 98.678 9.5 143.852-3.72 65.484-27.61 129.369-58.76 174.299-3.8 5.482-15.72 19.036-34.32 29.786-25.35 14.649-52.03 12.276-124.36 13.186-57.34.721-261.474-8.278-271.068-9.771-25.641-3.99-50.265-7.251-64.439-19.924-17.197-15.376-44.838-90.154-56.537-172.04-7.851-54.947 8.39-134.551 16.576-157.182 15.367-42.482 29.518-84.884 72.787-107.363Z" style="fill:#46413e"/>
    <path d="M912.207 400.221c11.234-5.836 38.146-10.529 71.87-13.671 75.853-7.066 187.143-7.613 223.843-4.371 24.63 2.174 112.88 9.618 146.61 22.707 8.33 3.235 21.14 13.091 34.15 27.253 18.66 20.326 38.05 49.476 45.73 78.354 10.84 40.731 12.38 100.424 9.77 146.399-3.82 67.052-28.3 132.458-60.2 178.464-4.1 5.91-16.88 20.6-36.93 32.189-26.17 15.123-53.64 13.335-128.31 14.274-57.63.725-262.784-8.367-272.425-9.867-27.376-4.259-53.469-8.363-68.602-21.893-5.672-5.071-12.606-15.878-19.561-31.152-14.991-32.92-31.284-87.581-39.601-145.791-8.046-56.313 8.589-137.897 16.979-161.091 16.06-44.402 31.453-88.31 76.677-111.804Zm7.483 14.405c-41.314 21.463-54.223 62.357-68.895 102.921-7.982 22.069-23.83 99.692-16.174 153.273 8.062 56.431 23.771 109.445 38.304 141.36 5.698 12.513 10.962 21.623 15.608 25.778 13.217 11.817 36.368 14.234 60.277 17.954 9.546 1.485 212.67 10.393 269.72 9.675 35.95-.452 60.55-.077 79.32-1.421 17.39-1.245 29.4-3.93 41.07-10.676 17.15-9.911 28.22-22.329 31.72-27.383 30.41-43.855 53.69-106.22 57.33-170.136 2.52-44.372 1.21-101.995-9.24-141.304-7.03-26.409-24.94-52.961-42.01-71.549-10.82-11.782-21.13-20.407-28.07-23.098-32.69-12.688-118.28-19.563-142.15-21.671-36.23-3.199-146.06-2.609-220.917 4.365-30.867 2.875-55.611 6.57-65.893 11.912Z" style="fill:#6d6158"/>
  </g>
</svg>