<?xml version="1.0" encoding="UTF-8" standalone="no"?>
<!DOCTYPE svg PUBLIC "-//W3C//DTD SVG 1.1//EN" "http://www.w3.org/Graphics/SVG/1.1/DTD/svg11.dtd">
<svg width="100%" height="100%" viewBox="0 0 440 440" version="1.1" xmlns="http://www.w3.org/2000/svg" xmlns:xlink="http://www.w3.org/1999/xlink" xml:space="preserve" xmlns:serif="http://www.serif.com/" style="fill-rule:evenodd;clip-rule:evenodd;stroke-linecap:round;stroke-linejoin:round;stroke-miterlimit:1.5;">
    <g transform="matrix(0.24938,0,0,0.24938,-67.1568,-62.7814)">
        <g transform="matrix(4.90504,0,0,4.90504,607.811,279.568)">
            <g transform="matrix(-0.349818,0,0,0.409781,461.283,-34.0719)">
                <path d="M1002.67,148.416C1002.71,138.506 993.312,130.434 981.704,130.402C970.096,130.37 960.641,138.388 960.603,148.298C960.397,201.83 960.139,232.285 960.094,250.3C960.07,260.21 969.474,268.272 981.082,268.293C992.691,268.314 1002.13,260.286 1002.16,250.376C1002.2,232.369 1002.46,201.926 1002.67,148.416Z" style="fill:rgb(177,140,103);"/>
            </g>
            <g transform="matrix(0.817515,0,0,0.817515,-68.436,-5.35439)">
                <ellipse cx="228.198" cy="32.053" rx="29.399" ry="27.778" style="fill:rgb(167,197,76);stroke:rgb(177,140,103);stroke-width:6px;"/>
            </g>
        </g>
        <g transform="matrix(1.97618,0,0,1.97618,-1057.44,107.469)">
            <path d="M826.689,355.803C734.755,447.382 726.518,760.292 781.685,830.979C797.888,851.739 811.358,862.084 825.887,873.484C844.018,887.71 859.473,897.133 883.36,907.565C955.636,939.132 1053.74,955.016 1139.13,954.623C1202.2,954.333 1265.92,951.014 1315.42,936.104C1387.9,914.273 1436.47,875.666 1461.94,851.835C1541.22,777.648 1506.77,489.976 1458.61,394.359C1377.19,232.708 965.737,217.295 826.689,355.803Z" style="fill:white;"/>
            <clipPath id="_clip1">
                <path d="M826.689,355.803C734.755,447.382 726.518,760.292 781.685,830.979C797.888,851.739 811.358,862.084 825.887,873.484C844.018,887.71 859.473,897.133 883.36,907.565C955.636,939.132 1053.74,955.016 1139.13,954.623C1202.2,954.333 1265.92,951.014 1315.42,936.104C1387.9,914.273 1436.47,875.666 1461.94,851.835C1541.22,777.648 1506.77,489.976 1458.61,394.359C1377.19,232.708 965.737,217.295 826.689,355.803Z"/>
            </clipPath>
            <g clip-path="url(#_clip1)">
                <g transform="matrix(2.42592,0,0,2.42592,598.938,3.05196)">
                    <g transform="matrix(0.412214,0,0,0.412214,-246.891,-1.25806)">
                        <path d="M904.784,836.218C904.784,836.218 881.936,853.289 858.475,861.944C842.828,867.715 805.603,868.557 805.603,868.557C805.603,868.557 861.847,905.495 914.053,926.018C947.359,939.112 983.546,941.075 992.761,943.247C1020.3,949.736 1127.93,958.872 1151.12,958.013C1161.25,957.638 1241.09,956.673 1305.63,941.822C1346.82,932.343 1433.9,879.749 1433.9,879.749C1433.9,879.749 1406.62,881.941 1378.97,875.019C1356.09,869.292 1335.76,858.867 1333.47,859.624C1313.94,866.057 1161.08,869.961 1127.18,871.969C1102.51,873.43 904.784,836.218 904.784,836.218Z" style="fill:rgb(228,137,46);"/>
                        <path d="M906.286,828.242C906.286,828.242 1102.24,865.315 1126.7,863.866C1160.25,861.879 1311.6,858.283 1330.93,851.915L1333.08,851.494L1335.04,851.546C1336.02,851.664 1337.56,852.028 1339.54,852.716C1346.54,855.141 1362.93,862.638 1380.94,867.145C1407.27,873.737 1433.25,871.658 1433.25,871.658C1437.01,871.357 1440.47,873.676 1441.63,877.259C1442.78,880.843 1441.32,884.75 1438.1,886.697C1438.1,886.697 1349.38,940.083 1307.45,949.732C1242.28,964.73 1161.65,965.745 1151.42,966.124C1127.91,966.994 1018.82,957.725 990.899,951.147C981.552,948.944 944.867,946.854 911.083,933.572C858.166,912.769 801.148,875.341 801.148,875.341C798.178,873.391 796.822,869.735 797.801,866.32C798.78,862.904 801.868,860.523 805.42,860.443C805.42,860.443 840.802,859.812 855.665,854.329C878.095,846.055 899.926,829.716 899.926,829.716C901.746,828.356 904.053,827.821 906.286,828.242ZM1333.65,867.962C1306.34,874.103 1160.78,878.109 1127.66,880.071C1104.7,881.431 933.131,849.746 906.698,844.831C899.588,849.813 880.633,862.421 861.284,869.559C853.987,872.25 842.225,873.954 831.401,875.016C852.253,887.476 885.388,906.028 917.022,918.464C949.85,931.37 985.539,933.206 994.622,935.346C1021.79,941.747 1127.95,950.749 1150.82,949.902C1160.85,949.53 1239.91,948.617 1303.81,933.912C1330.33,927.809 1376.18,903.444 1404.62,887.384C1396.14,886.647 1386.59,885.294 1377,882.893C1358.69,878.31 1337.92,869.755 1333.65,867.962Z" style="fill:rgb(228,137,46);"/>
                    </g>
                    <g transform="matrix(-0.200105,0.360387,-0.388534,-0.149412,437.21,-104.022)">
                        <path d="M910.626,340.154C896.638,334.904 847.446,430.645 866.795,435.155C881.43,438.567 897.166,446.915 964.768,437.895C1001.44,433.001 1043.66,420.704 1052.13,417.626C1069.64,411.265 1038.88,336.449 1025.38,329.124C1013.98,322.939 917.346,342.677 910.626,340.154Z" style="fill:rgb(228,137,46);"/>
                        <path d="M914.427,332.509C914.197,332.423 913.438,332.249 913.438,332.249C913.438,332.249 918.071,332.054 922.142,331.575C936.146,329.928 960.428,325.886 982.038,323.018C996.99,321.033 1010.71,319.629 1019.22,319.819C1024.36,319.934 1028.05,320.792 1030.05,321.876C1033.5,323.749 1038.19,328.981 1042.76,336.57C1051.9,351.764 1061.88,376.746 1064.73,394.767C1065.97,402.651 1065.76,409.455 1064.22,414.121C1063.85,415.271 1063.39,416.331 1062.88,417.301L1060.74,420.461L1057.68,423.264L1053.97,425.206C1045.31,428.35 1002.19,440.939 964.731,445.937C895.148,455.222 878.958,446.584 863.894,443.072C858.216,441.749 854.503,437.15 854.174,429.064C853.745,418.527 860.022,399.569 868.915,381.333C877.66,363.402 888.791,346.22 897.144,338.428C900.374,335.415 903.454,333.529 906.047,332.631L910.092,331.839L912.288,331.956L914.427,332.509ZM1048.77,410.575C1048.93,409.841 1049.13,408.747 1049.16,407.9C1049.27,405.416 1049.02,402.545 1048.52,399.41C1045.92,382.937 1036.72,360.136 1028.36,346.247C1025.51,341.499 1023.06,337.779 1020.88,336.473C1020.41,336.418 1016.49,335.977 1013.14,336.062C1005.17,336.267 993.983,337.507 981.951,339.104C957.043,342.411 928.616,347.246 916.164,348.273C913.13,348.523 910.733,348.461 909.053,348.263C908.119,349.046 906.09,350.8 904.719,352.373C897.97,360.121 890.065,373.199 883.503,386.655C877.03,399.928 871.812,413.579 870.721,422.852C870.53,424.476 870.696,426.555 870.792,427.502C884.72,430.952 900.869,438.383 964.806,429.852C998.86,425.308 1037.8,414.264 1048.77,410.575Z" style="fill:rgb(228,137,46);"/>
                    </g>
                    <g transform="matrix(0.200105,0.360387,0.388534,-0.149412,4.28142,-98.8673)">
                        <path d="M910.626,340.154C896.638,334.904 847.446,430.645 866.795,435.155C881.43,438.567 897.166,446.915 964.768,437.895C1001.44,433.001 1043.66,420.704 1052.13,417.626C1069.64,411.265 1038.88,336.449 1025.38,329.124C1013.98,322.939 917.346,342.677 910.626,340.154Z" style="fill:rgb(228,137,46);"/>
                        <path d="M914.427,332.509L912.288,331.956L910.092,331.839L906.047,332.631C903.454,333.529 900.374,335.415 897.144,338.428C888.791,346.22 877.66,363.402 868.915,381.333C860.022,399.569 853.745,418.527 854.174,429.064C854.503,437.15 858.216,441.749 863.894,443.072C878.958,446.584 895.148,455.222 964.731,445.937C1002.19,440.939 1045.31,428.35 1053.97,425.206L1057.68,423.264L1060.74,420.461L1062.88,417.301C1063.39,416.331 1063.85,415.271 1064.22,414.121C1066.47,407.314 1065.58,395.618 1062.11,382.753C1057.46,365.53 1048.74,345.732 1041.05,333.827C1037.08,327.692 1033.09,323.527 1030.05,321.876C1028.05,320.792 1024.36,319.934 1019.22,319.819C1010.71,319.629 996.99,321.033 982.038,323.018C960.428,325.886 936.146,329.928 922.142,331.575C918.071,332.054 913.438,332.249 913.438,332.249C913.438,332.249 914.197,332.423 914.427,332.509ZM909.054,348.263C910.733,348.46 913.13,348.523 916.164,348.273C928.616,347.246 957.043,342.411 981.951,339.104C993.983,337.507 1005.17,336.267 1013.14,336.062C1016.49,335.977 1020.41,336.418 1020.88,336.473C1023.06,337.779 1025.51,341.499 1028.36,346.247C1036.72,360.136 1045.92,382.937 1048.52,399.41C1049.02,402.545 1049.27,405.416 1049.16,407.9C1049.13,408.747 1048.93,409.841 1048.77,410.575C1037.8,414.264 998.86,425.308 964.806,429.852C900.869,438.383 884.72,430.952 870.792,427.502C870.696,426.555 870.53,424.476 870.721,422.852C871.812,413.579 877.03,399.928 883.503,386.655C890.065,373.199 897.97,360.121 904.719,352.373C906.09,350.8 908.12,349.045 909.054,348.263Z" style="fill:rgb(228,137,46);"/>
                    </g>
                    <g transform="matrix(0.264556,0,0,0.412214,14.5453,-33.9297)">
                        <path d="M925.117,342.237C909.044,342.955 902.144,377.321 893.493,400.871C886.373,420.255 869.183,474.579 884.746,476.062C895.518,477.088 999.449,480.31 1006.13,481.049C1018.34,482.397 1099.49,366.972 1075.48,365.412C1051.22,363.835 942.656,341.452 925.117,342.237Z" style="fill:rgb(228,137,46);"/>
                        <path d="M924.238,334.14C930.077,333.878 945.08,335.681 963.849,338.73C1002.69,345.04 1060.04,356.25 1076.76,357.336L1081.67,358.146L1086.06,359.933L1089.58,362.723L1091.92,366.792C1093.52,371.76 1091.25,381.619 1085.49,393.707C1072.04,421.927 1041.47,464.497 1025.33,479.909C1021.4,483.662 1017.82,486.111 1015.34,487.237L1010.11,488.854L1007.34,489.155L1003.99,489.048C997.32,488.311 893.635,485.114 882.888,484.09L879.267,483.475L876.015,482.388L871.38,479.502C869.198,477.571 867.331,474.596 866.472,470.66C862.988,454.716 875.243,415.183 881.184,399.009C887.412,382.054 892.934,359.678 901.251,347.508C907.191,338.816 915.974,334.509 924.238,334.14ZM1007.33,472.97C1007.74,472.999 1008.06,473.026 1008.28,473.05C1007.97,473.015 1007.65,472.988 1007.33,472.97ZM891.726,468.365C912.323,469.46 979.86,471.66 1001.72,472.671C1008.95,463.981 1048.44,415.937 1061.3,388.957C1064.11,383.069 1065.83,376.33 1066.62,372.708C1043.49,369.793 993.079,360.224 957.642,354.467C944.236,352.289 933.332,350.546 927.794,350.338C926.633,351.651 923.254,355.598 921.551,358.932C915.356,371.059 910.914,388.817 905.803,402.734C900.964,415.907 891.232,445.693 891.073,462.878C891.056,464.693 891.415,466.848 891.726,468.365Z" style="fill:rgb(228,137,46);"/>
                    </g>
                    <g transform="matrix(-0.264556,0,0,0.412214,430.045,-37.6472)">
                        <path d="M925.117,342.237C909.044,342.955 902.144,377.321 893.493,400.871C886.373,420.255 869.183,474.579 884.746,476.062C895.518,477.088 999.449,480.31 1006.13,481.049C1018.34,482.397 1099.49,366.972 1075.48,365.412C1051.22,363.835 942.656,341.452 925.117,342.237Z" style="fill:rgb(228,137,46);"/>
                        <path d="M924.238,334.14C915.974,334.509 907.191,338.816 901.251,347.508C892.934,359.678 887.412,382.054 881.184,399.009C875.243,415.183 862.988,454.716 866.472,470.66C867.331,474.596 869.198,477.571 871.38,479.502L876.015,482.388L879.267,483.475L882.888,484.09C893.635,485.114 997.32,488.311 1003.99,489.048L1007.34,489.155L1010.11,488.854L1015.34,487.237C1017.82,486.111 1021.4,483.662 1025.33,479.909C1041.47,464.497 1072.04,421.927 1085.49,393.707C1091.25,381.619 1093.52,371.76 1091.92,366.792L1089.58,362.723L1086.06,359.933L1081.67,358.146L1076.76,357.336C1060.04,356.25 1002.69,345.04 963.849,338.73C945.08,335.681 930.077,333.878 924.238,334.14ZM1007.33,472.97C1007.65,472.988 1007.97,473.015 1008.28,473.05C1008.06,473.026 1007.74,472.999 1007.33,472.97ZM1066.62,372.708C1065.83,376.33 1064.11,383.069 1061.3,388.957C1048.44,415.937 1008.95,463.981 1001.72,472.671C979.869,471.66 912.378,469.462 891.751,468.367C891.423,466.676 891.03,464.165 891.088,462.05C891.283,454.908 893.048,445.748 895.343,436.571C898.617,423.478 903.002,410.357 905.803,402.734C910.914,388.817 915.356,371.059 921.551,358.932C923.253,355.599 926.632,351.652 927.794,350.338C933.331,350.547 944.236,352.289 957.642,354.467C993.079,360.224 1043.49,369.793 1066.62,372.708Z" style="fill:rgb(228,137,46);"/>
                    </g>
                </g>
            </g>
            <path d="M822.393,351.491C906.921,267.291 1090.69,238.665 1242.09,265.067C1343.88,282.816 1430.77,325.557 1464.05,391.62C1493.23,449.562 1517.58,577.307 1514.97,686.438C1513.21,760.425 1498.67,825.801 1466.1,856.28C1440.22,880.502 1390.85,919.743 1317.18,941.933C1267.19,956.99 1202.85,960.418 1139.16,960.71C1052.94,961.107 953.899,945.016 880.923,913.144C856.486,902.471 840.678,892.827 822.129,878.273C807.251,866.599 793.478,855.984 776.887,834.724C754.329,805.821 741.619,737.405 741.13,659.593C740.695,590.474 749.639,513.932 768.863,451.779C781.903,409.623 799.745,374.052 822.393,351.491ZM830.986,360.116C809.506,381.513 792.861,415.396 780.494,455.377C761.61,516.428 752.877,591.622 753.305,659.517C753.773,733.943 764.908,799.588 786.484,827.234C802.297,847.495 815.465,857.569 829.645,868.695C847.358,882.594 862.46,891.794 885.796,901.987C957.373,933.248 1054.53,948.924 1139.1,948.536C1201.56,948.249 1264.65,945.038 1313.66,930.275C1384.96,908.802 1432.73,870.83 1457.78,847.39C1469.83,836.116 1479.01,819.589 1485.91,799.511C1496.65,768.309 1501.79,728.677 1502.8,686.147C1505.36,579.17 1481.78,453.895 1453.17,397.097C1421.31,333.84 1337.46,294.056 1240,277.061C1092.54,251.345 913.315,278.106 830.986,360.116Z" style="fill:rgb(177,140,103);"/>
            <g transform="matrix(0.98977,0,0,1,8.43439,-2.84217e-14)">
                <path d="M915.949,407.423C951.808,388.794 1155.12,385.664 1207.21,390.264C1231.46,392.405 1318.38,399.564 1351.59,412.453C1370.67,419.859 1414.31,466.508 1426.57,512.58C1437.22,552.6 1438.64,611.258 1436.07,656.432C1432.35,721.916 1408.46,785.801 1377.31,830.731C1373.51,836.213 1361.59,849.767 1342.99,860.517C1317.64,875.166 1290.96,872.793 1218.63,873.703C1161.29,874.424 957.156,865.425 947.562,863.932C921.921,859.942 897.297,856.681 883.123,844.008C865.926,828.632 838.285,753.854 826.586,671.968C818.735,617.021 834.976,537.417 843.162,514.786C858.529,472.304 872.68,429.902 915.949,407.423Z" style="fill:rgb(70,65,62);"/>
                <path d="M912.138,400.237C923.38,394.396 950.311,389.695 984.061,386.551C1059.92,379.484 1171.23,378.938 1207.94,382.179C1232.57,384.354 1320.84,391.803 1354.58,404.897C1362.92,408.134 1375.75,417.996 1388.77,432.169C1407.43,452.494 1426.82,481.638 1434.5,510.513C1445.33,551.237 1446.87,610.92 1444.26,656.888C1440.45,723.929 1415.97,789.325 1384.07,835.324C1379.97,841.237 1367.18,855.933 1347.12,867.526C1320.94,882.658 1293.45,880.879 1218.74,881.819C1161.11,882.544 955.931,873.451 946.289,871.95C918.887,867.687 892.774,863.574 877.626,850.031C871.954,844.96 865.018,834.153 858.062,818.879C843.073,785.962 826.782,731.308 818.466,673.105C810.422,616.805 827.054,535.239 835.442,512.05C851.504,467.644 866.91,423.733 912.138,400.237ZM919.76,414.61C878.449,436.071 865.554,476.961 850.883,517.522C842.899,539.596 827.048,617.238 834.705,670.832C842.769,727.27 858.48,780.29 873.015,812.208C878.713,824.722 883.974,833.831 888.62,837.985C901.822,849.789 924.953,852.198 948.836,855.914C958.381,857.399 1161.48,866.305 1218.53,865.587C1254.47,865.135 1279.07,865.51 1297.84,864.167C1315.2,862.924 1327.19,860.244 1338.85,853.508C1355.99,843.602 1367.05,831.19 1370.55,826.139C1400.96,782.277 1424.25,719.902 1427.88,655.975C1430.41,611.596 1429.1,553.963 1418.64,514.647C1411.61,488.235 1393.7,461.678 1376.63,443.087C1365.82,431.317 1355.52,422.698 1348.6,420.01C1315.91,407.325 1230.34,400.455 1206.48,398.348C1170.26,395.15 1060.45,395.74 985.598,402.713C954.758,405.586 930.033,409.273 919.76,414.61Z" style="fill:rgb(109,97,88);"/>
            </g>
        </g>
    </g>
</svg>
