<svg xmlns="http://www.w3.org/2000/svg" xml:space="preserve" style="fill-rule:evenodd;clip-rule:evenodd;stroke-linecap:round;stroke-linejoin:round;stroke-miterlimit:1.5" viewBox="0 0 208 29"><path d="M0 0h500v500H0z" style="fill:none" transform="scale(.41408 .05668)"/><path d="M6.228 6.157c-.319 20.957-.387 24.958-.382 31.254M6.339 8.142c2.765-3.578 13.922-2.817 13.871 4.55-.075 10.959-8.167 9.264-12.632 8.907 1.735.391 8.461-.668 11.257 4.257 2.45 4.316 1.532 8.68 1.514 11.367" style="fill:none;stroke:#ea5455;stroke-width:4.27px" transform="translate(-1.716 -.772)scale(.7022)"/><path d="M42.866 9.641c-7.431-8.287-17.921.484-11.632 8.79 3.282 4.336 13.885 8.046 9.207 17.096-3.863 7.473-15.009 4.477-15.527-1.156" style="fill:none;stroke:#ea5455;stroke-width:4.61px" transform="matrix(.63802 0 0 .66438 19.337 -.542)"/><path d="M42.866 9.641c-7.431-8.287-17.921.484-11.632 8.79 3.282 4.336 13.885 8.046 9.207 17.096-3.863 7.473-15.009 4.477-15.527-1.156" style="fill:none;stroke:#ea5455;stroke-width:4.61px" transform="matrix(.63802 0 0 .66438 3.313 -.514)"/><path d="M43.485 27.468c19.174-33.525 48.05 4.623 62.06 4.495s16.61-9.974 19.54-12.998c9.536-9.843 20.511-8.403 33.618 5.267 5.311 5.54 8.958 5.239 13.864 3.551 4.581-1.576 8.07-7.985 17.262-6.046" style="fill:none;stroke:#ffd460;stroke-width:3px;stroke-dasharray:6,9,0,0,0,0" transform="translate(10.468 -8.405)"/><path d="M177.515 11.967c6.002-.595 8.684-.794 9.391-.292.659.469.868 3.038 1.415 9.419" style="fill:none;stroke:#ffd460;stroke-width:3px" transform="rotate(55 193.117 27.54)"/></svg>