<svg xmlns="http://www.w3.org/2000/svg" xml:space="preserve" style="fill-rule:evenodd;clip-rule:evenodd;stroke-linejoin:round;stroke-miterlimit:2" viewBox="0 0 1200 1200" id="tags-pic">
  <path d="M882.084 363.359V489.62c0 34.843-29.363 63.131-65.53 63.131H295.241c-36.167 0-65.53-28.288-65.53-63.131V363.359c0-34.843 29.363-63.131 65.53-63.131h521.313c36.167 0 65.53 28.288 65.53 63.131Z" style="fill:#f3e4cd" transform="matrix(.62854 0 0 .65242 -58.077 -110.861)"/>
  <text x="428.481" y="430.981" style="font-family:&quot;ChalkboardSE-Regular&quot;,&quot;Chalkboard SE&quot;,cursive;font-size:45.591px;fill:#008675;stroke:#008675;stroke-width:.57px" transform="matrix(1.66502 0 0 1.86844 -544.652 -612.982)">#n<tspan x="488.744px 512.723px" y="430.981px 430.981px">ew</tspan>s</text>
  <path d="M882.084 363.359V489.62c0 34.843-34.35 63.131-76.66 63.131H306.371c-42.31 0-76.66-28.288-76.66-63.131V363.359c0-34.843 34.35-63.131 76.66-63.131h499.053c42.31 0 76.66 28.288 76.66 63.131Z" style="fill:#eeeec8" transform="matrix(.53728 0 0 .65242 630.586 482.322)"/>
  <text x="428.481" y="430.981" style="font-family:&quot;ChalkboardSE-Regular&quot;,&quot;Chalkboard SE&quot;,cursive;font-size:45.591px;fill:#cca266;stroke:#efdadb;stroke-width:.57px" transform="matrix(1.66502 0 0 1.86844 123.048 -19.798)">#l<tspan x="476.795px 486.288px 505.061px" y="430.981px 430.981px 430.981px">ife</tspan></text>
  <path d="M882.084 363.359V489.62c0 34.843-23.049 63.131-51.438 63.131H281.149c-28.39 0-51.438-28.288-51.438-63.131V363.359c0-34.843 23.048-63.131 51.438-63.131h549.497c28.389 0 51.438 28.288 51.438 63.131Z" style="fill:#efdadb" transform="matrix(.80073 0 0 .65242 -80.976 339.94)"/>
  <text x="428.481" y="430.981" style="font-family:&quot;ChalkboardSE-Regular&quot;,&quot;Chalkboard SE&quot;,cursive;font-size:45.591px;fill:#e47359;stroke:#e47359;stroke-width:.57px" transform="matrix(1.66502 0 0 1.86844 -527.998 -162.18)">#fr<tspan x="503.928px 527.157px 548.934px 567.809px 591.789px 616.868px" y="430.981px 430.981px 430.981px 430.981px 430.981px 430.981px">ontend</tspan></text>
  <path d="M882.084 363.359V489.62c0 34.843-27.76 63.131-61.952 63.131h-528.47c-34.192 0-61.951-28.288-61.951-63.131V363.359c0-34.843 27.759-63.131 61.951-63.131h528.47c34.192 0 61.952 28.288 61.952 63.131Z" style="fill:#d5ebee" transform="matrix(.66484 0 0 .65242 560.442 46.122)"/>
  <text x="428.481" y="430.981" style="font-family:&quot;ChalkboardSE-Regular&quot;,&quot;Chalkboard SE&quot;,cursive;font-size:45.591px;fill:#999cb4;stroke:#999cb4;stroke-width:.57px" transform="matrix(1.66502 0 0 1.86844 82.205 -455.998)">#tr<tspan x="503.018px 527.274px 548.175px 572.155px" y="430.981px 430.981px 430.981px 430.981px">avel</tspan></text>
  <path d="M882.084 363.359V489.62c0 34.843-19.788 63.131-44.162 63.131h-564.05c-24.373 0-44.161-28.288-44.161-63.131V363.359c0-34.843 19.788-63.131 44.161-63.131h564.05c24.374 0 44.162 28.288 44.162 63.131Z" style="fill:#dfefdb" transform="matrix(.93266 0 0 .65242 12.012 773.478)"/>
  <text x="428.481" y="430.981" style="font-family:&quot;ChalkboardSE-Regular&quot;,&quot;Chalkboard SE&quot;,cursive;font-size:45.591px;fill:#008675;stroke:#008675;stroke-width:.57px" transform="matrix(1.66502 0 0 1.86844 -404.702 271.358)">#N<tspan x="494.073px 516.292px 537.148px 561.933px 586.793px 607.667px 618.728px 643.161px 668.24px 691.666px" y="430.981px 430.981px 430.981px 430.981px 430.981px 430.981px 430.981px 430.981px 430.981px 430.981px">etherlands</tspan></text>
  <path d="M1700.56 45.407c3-16.612 19.28-27.718 36.32-24.787 17.04 2.931 28.43 18.798 25.43 35.41-8.37 46.209-18.73 123.388-29.43 264.604-1.28 16.822-16.32 29.471-33.58 28.228-17.25-1.243-30.23-15.909-28.95-32.732 10.95-144.487 21.65-223.443 30.21-270.723Z" style="fill:#81b0bc" transform="matrix(.38276 0 0 .39263 382.991 27.529)"/>
  <path d="M1833.01 54.419c1.93-16.764 17.45-28.852 34.64-26.977 17.2 1.875 29.6 17.008 27.68 33.771-23.93 208.525-20.54 220.612-24.26 260.403-1.58 16.798-16.84 29.191-34.08 27.657-17.23-1.534-29.94-16.417-28.37-33.216 3.75-39.98.36-52.122 24.39-261.638Z" style="fill:#81b0bc" transform="matrix(.38276 0 0 .39263 371.284 27.575)"/>
  <path d="M1658.55 165.869c-16.97 3.262-33.47-7.526-36.82-24.076-3.35-16.55 7.72-32.635 24.7-35.897 44.62-8.574 163.7-7.942 284.87 1.145 17.25 1.294 30.18 15.999 28.85 32.817-1.33 16.819-16.41 29.423-33.66 28.129-113.97-8.546-225.97-10.182-267.94-2.118ZM1654.04 272.806c-17.05 2.896-33.3-8.243-36.27-24.861-2.97-16.618 8.46-32.461 25.5-35.358 46.77-7.948 177.55-8.522 277.3 5.034 17.13 2.329 29.11 17.783 26.72 34.49-2.39 16.707-18.24 28.38-35.38 26.051-92.77-12.607-214.38-12.748-257.87-5.356Z" style="fill:#81b0bc" transform="matrix(.38276 0 0 .39263 375.231 26.968)"/>
  <path d="M1700.56 45.407c3-16.612 19.28-27.718 36.32-24.787 17.04 2.931 28.43 18.798 25.43 35.41-8.37 46.209-18.73 123.388-29.43 264.604-1.28 16.822-16.32 29.471-33.58 28.228-17.25-1.243-30.23-15.909-28.95-32.732 10.95-144.487 21.65-223.443 30.21-270.723Z" style="fill:#f0bfbd" transform="matrix(.38276 0 0 .39263 -546.64 764.754)"/>
  <path d="M1833.01 54.419c1.93-16.764 17.45-28.852 34.64-26.977 17.2 1.875 29.6 17.008 27.68 33.771-23.93 208.525-20.54 220.612-24.26 260.403-1.58 16.798-16.84 29.191-34.08 27.657-17.23-1.534-29.94-16.417-28.37-33.216 3.75-39.98.36-52.122 24.39-261.638Z" style="fill:#f0bfbd" transform="matrix(.38276 0 0 .39263 -558.347 764.8)"/>
  <path d="M1658.55 165.869c-16.97 3.262-33.47-7.526-36.82-24.076-3.35-16.55 7.72-32.635 24.7-35.897 44.62-8.574 163.7-7.942 284.87 1.145 17.25 1.294 30.18 15.999 28.85 32.817-1.33 16.819-16.41 29.423-33.66 28.129-113.97-8.546-225.97-10.182-267.94-2.118ZM1654.04 272.806c-17.05 2.896-33.3-8.243-36.27-24.861-2.97-16.618 8.46-32.461 25.5-35.358 46.77-7.948 177.55-8.522 277.3 5.034 17.13 2.329 29.11 17.783 26.72 34.49-2.39 16.707-18.24 28.38-35.38 26.051-92.77-12.607-214.38-12.748-257.87-5.356Z" style="fill:#f0bfbd" transform="matrix(.38276 0 0 .39263 -554.4 764.193)"/>
  <path d="M1700.56 45.407c3-16.612 19.28-27.718 36.32-24.787 17.04 2.931 28.43 18.798 25.43 35.41-8.37 46.209-18.73 123.388-29.43 264.604-1.28 16.822-16.32 29.471-33.58 28.228-17.25-1.243-30.23-15.909-28.95-32.732 10.95-144.487 21.65-223.443 30.21-270.723Z" style="fill:#f5d8a9" transform="matrix(.38276 0 0 .39263 327.033 963.592)"/>
  <path d="M1833.01 54.419c1.93-16.764 17.45-28.852 34.64-26.977 17.2 1.875 29.6 17.008 27.68 33.771-23.93 208.525-20.54 220.612-24.26 260.403-1.58 16.798-16.84 29.191-34.08 27.657-17.23-1.534-29.94-16.417-28.37-33.216 3.75-39.98.36-52.122 24.39-261.638Z" style="fill:#f5d8a9" transform="matrix(.38276 0 0 .39263 315.326 963.638)"/>
  <path d="M1658.55 165.869c-16.97 3.262-33.47-7.526-36.82-24.076-3.35-16.55 7.72-32.635 24.7-35.897 44.62-8.574 163.7-7.942 284.87 1.145 17.25 1.294 30.18 15.999 28.85 32.817-1.33 16.819-16.41 29.423-33.66 28.129-113.97-8.546-225.97-10.182-267.94-2.118ZM1654.04 272.806c-17.05 2.896-33.3-8.243-36.27-24.861-2.97-16.618 8.46-32.461 25.5-35.358 46.77-7.948 177.55-8.522 277.3 5.034 17.13 2.329 29.11 17.783 26.72 34.49-2.39 16.707-18.24 28.38-35.38 26.051-92.77-12.607-214.38-12.748-257.87-5.356Z" style="fill:#f5d8a9" transform="matrix(.38276 0 0 .39263 319.273 963.031)"/>
</svg>