<svg xmlns="http://www.w3.org/2000/svg" xml:space="preserve" style="fill-rule:evenodd;clip-rule:evenodd;stroke-linejoin:round;stroke-miterlimit:2" viewBox="0 0 1266 1005" id="tags-pic"><g transform="matrix(.99083 0 0 .99025 -7.734 -226.44)"><path d="M7.806 228.67h1277.56v1014.67H7.806z" style="fill:none"/><clipPath id="a"><path d="M7.806 228.67h1277.56v1014.67H7.806z"/></clipPath><g clip-path="url(#a)"><path d="M1234.89 318.913c-4.12-70.789-37-80.177-113.65-79.819l-947.503.632c-99.024-1.302-95.421 27.793-99.486 165.784l14.645 796.72c4.204 8.32 920.064 14.82 920.064 14.82 129.89 0 221.03 15.64 229.5-21.92l-3.57-876.217Z" style="fill:#715858" transform="matrix(1.01645 0 0 1.00985 -18.183 -11.57)"/><path d="M1063.13 854.275H272.023s21.482-167.734 32.115-168.827c128.802-13.246 628.418.248 727.542-3.194 13.84-.481 31.45 172.021 31.45 172.021Z" style="fill:#ad9c9c" transform="matrix(1.6059 0 0 -.32909 -423.64 1467.89)"/><path d="M1063.13 854.275H272.023s21.482-167.734 32.115-168.827c128.802-13.246 628.418.248 727.542-3.194 13.84-.481 31.45 172.021 31.45 172.021Z" style="fill:#8b7d7d" transform="matrix(.37839 0 0 -.13434 365.905 1301.528)"/><path d="M138.503 327.356h1021.86v832.624H138.503z" style="fill:#f8c3d7" transform="matrix(1.07537 0 0 1.0664 -47.2 -77.166)"/><path d="M469.335 377.734c0-15.821-12.845-28.666-28.666-28.666H188.117c-15.822 0-28.666 12.845-28.666 28.666v57.332c0 15.821 12.844 28.666 28.666 28.666h252.552c15.821 0 28.666-12.845 28.666-28.666v-57.332Z" style="fill:#ff8d7e" transform="matrix(.85226 0 0 1.00985 27.163 -27.599)"/><text x="227.76" y="398.108" style="font-family:&quot;ArialMT&quot;,&quot;Arial&quot;,sans-serif;font-size:12px;fill:#fff" transform="matrix(6.3723 0 0 6.37603 -1229.743 -2128.713)">#cat</text><path d="M469.335 377.734c0-15.821-1.372-26.337-17.193-26.337l-278.146 2.502c-15.822 0-14.545 8.014-14.545 23.835v57.332c0 15.821.659 25.799 12.041 25.646l285.709-2.498c6.874 1.229 12.134-7.327 12.134-23.148v-57.332Z" style="fill:#83b13c" transform="matrix(1.80042 0 0 1.00985 -116.662 130.126)"/><text x="227.76" y="398.108" style="font-family:&quot;ArialMT&quot;,&quot;Arial&quot;,sans-serif;font-size:12px;fill:#fff" transform="matrix(6.3723 0 0 6.37603 -1222.384 -1970.988)">#Netherlands</text><path d="M469.335 377.734c0-15.821-12.845-28.666-28.666-28.666H188.117c-15.822 0-28.666 12.845-28.666 28.666v57.332c0 15.821 12.844 28.666 28.666 28.666h252.552c15.821 0 28.666-12.845 28.666-28.666v-57.332Z" style="fill:#7aaabe" transform="matrix(1.00926 0 0 1.00985 315.73 -25.93)"/><text x="227.76" y="398.108" style="font-family:&quot;ArialMT&quot;,&quot;Arial&quot;,sans-serif;font-size:12px;fill:#fff" transform="matrix(6.3723 0 0 6.37603 -888.61 -2127.861)">#life</text><path d="M469.335 377.734c0-15.821-12.845-28.666-28.666-28.666H188.117c-15.822 0-28.666 12.845-28.666 28.666v57.332c0 15.821 12.844 28.666 28.666 28.666h252.552c15.821 0 28.666-12.845 28.666-28.666v-57.332Z" style="fill:#009c82" transform="matrix(1.00926 0 0 1.00985 684.562 -24.438)"/><text x="227.76" y="398.108" style="font-family:&quot;ArialMT&quot;,&quot;Arial&quot;,sans-serif;font-size:12px;fill:#fff" transform="matrix(6.3723 0 0 6.37603 -543.778 -2129.692)">#blog</text></g></g></svg>