<svg xmlns="http://www.w3.org/2000/svg">

  <svg viewBox="0 0 23 17" fill="none" id="email">
    <path fill="currentColor" d="M.072 2.203A2.828 2.828 0 0 1 1.082.618C1.592.218 2.224 0 2.875 0h17.25c.651 0 1.283.218 1.793.618.509.4.865.96 1.01 1.585L11.5 9.086.072 2.203ZM0 3.82v10.064l8.342-5.04L0 3.82Zm9.719 5.855L.275 15.38a2.887 2.887 0 0 0 2.6 1.619h17.25c.544 0 1.078-.152 1.538-.439.46-.287.828-.697 1.061-1.182L13.28 9.674l-1.78 1.073-1.781-1.073v.002Zm4.94-.83L23 13.885V3.82l-8.342 5.023v.002Z"/>
  </svg>
  <svg viewBox="0 0 24 24" fill="none"  id="iconin">
    <path fill="currentColor" d="M0 1.719C0 .769.789 0 1.762 0h20.476C23.21 0 24 .77 24 1.719v20.562c0 .95-.789 1.719-1.762 1.719H1.762C.79 24 0 23.23 0 22.281V1.719Zm7.415 18.372V9.253H3.813v10.838h3.602Zm-1.8-12.318c1.255 0 2.037-.831 2.037-1.872-.023-1.063-.78-1.872-2.014-1.872-1.232 0-2.038.81-2.038 1.872 0 1.041.781 1.872 1.99 1.872h.024Zm7.361 12.318v-6.053c0-.324.024-.648.12-.879.26-.646.852-1.317 1.848-1.317 1.304 0 1.824.993 1.824 2.451v5.798h3.602v-6.216c0-3.33-1.776-4.878-4.146-4.878-1.911 0-2.768 1.05-3.248 1.79v.037h-.024l.024-.037V9.252h-3.6c.046 1.018 0 10.838 0 10.838h3.6Z"/>
  </svg>
  <svg viewBox="0 0 21 20" fill="none"  id="github">
    <path fill="currentColor" d="M10.5 0C4.699 0 0 4.588 0 10.253c0 4.537 3.006 8.369 7.18 9.727.524.09.721-.218.721-.487 0-.243-.013-1.05-.013-1.91-2.638.475-3.32-.627-3.53-1.204-.119-.295-.63-1.205-1.077-1.448-.367-.192-.892-.667-.013-.68.827-.012 1.418.744 1.615 1.052.944 1.55 2.454 1.114 3.058.845.092-.666.367-1.115.669-1.371-2.336-.256-4.777-1.14-4.777-5.062 0-1.115.406-2.038 1.076-2.756-.105-.256-.473-1.307.105-2.717 0 0 .88-.269 2.887 1.051a9.963 9.963 0 0 1 2.625-.346c.893 0 1.785.115 2.625.346 2.008-1.333 2.888-1.05 2.888-1.05.577 1.409.21 2.46.105 2.716.67.718 1.076 1.628 1.076 2.756 0 3.934-2.454 4.806-4.79 5.062.38.32.708.936.708 1.897 0 1.371-.013 2.473-.013 2.82 0 .268.197.589.722.486a10.5 10.5 0 0 0 5.179-3.74A10.105 10.105 0 0 0 21 10.253C21 4.588 16.301 0 10.5 0Z"/>
  </svg>

</svg>