<svg xmlns="http://www.w3.org/2000/svg" xml:space="preserve" style="fill-rule:evenodd;clip-rule:evenodd;stroke-linejoin:round;stroke-miterlimit:2" viewBox="0 0 240 240">
  <g transform="matrix(.25413 0 0 .25413 -166.74 -8.307)">
    <path d="M826.689 355.803c-91.934 91.579-98.175 408.993-38.941 476.309 60.003 68.191 214.392 123.141 351.382 122.511 155.43-.714 279.95-62.681 322.81-102.788 79.28-74.187 44.83-361.859-3.33-457.476-81.42-161.651-492.873-177.064-631.921-38.556Z" style="fill:#f1e8e8"/>
    <clipPath id="a">
      <path d="M826.689 355.803c-91.934 91.579-98.175 408.993-38.941 476.309 60.003 68.191 214.392 123.141 351.382 122.511 155.43-.714 279.95-62.681 322.81-102.788 79.28-74.187 44.83-361.859-3.33-457.476-81.42-161.651-492.873-177.064-631.921-38.556Z"/>
    </clipPath>
    <g clip-path="url(#a)">
      <path d="M911.94 841.62c-1.347-.861-47.922 7.999-64.003 3.979-12.61-3.153-26.813-5.313-38.537-9.221-1.324-.441-9.249-2.622-9.112-2.45 3.28 4.108 21.542 21.092 31.026 26.671 11.131 6.548 21.838 13.928 33.117 20.207 19.529 10.871 42.352 21.555 63.389 28.963 28.098 9.895 51.238 15.83 74.9 21.405 27.54 6.489 45.96 3.493 72.36 6.59 22.82 2.678 145.61-3.364 161.43-6.526 36.19-7.235 50.53-14.584 82.8-24.835 14.12-4.484 40.39-16.479 54-22.072 29.51-12.135 29.1-15.711 48.43-26.168 3.84-2.074-86.12-16.83-96.56-15.437-25.77 3.435-60.54 13.829-86.35 17.196-24.51 3.197-43.62.844-68.3 2.607-43.41 3.101-92.98 2.286-135.65-4.45-16.13-2.548-32.12.646-48.333-1.381-22.601-2.825-73.661-11.544-74.607-15.078Z" style="fill:#cf6525"/>
    </g>
    <path d="M812.804 341.864c86.982-86.644 275.826-117.351 431.626-90.183 106.61 18.592 196.9 64.63 231.75 133.827 34.82 69.125 63.13 235.381 48.64 355.229-6.68 55.218-23.03 100.754-49.44 125.464-44.67 41.804-174.15 107.352-336.16 108.097-142.963.657-303.622-58.023-366.243-129.189-10.991-12.491-20.492-32.192-27.5-57.272-9.433-33.765-14.855-77.945-15.759-125.719-1.341-70.857 7.214-149.67 26.468-213.606 13.552-45.002 32.643-82.766 56.618-106.648Zm27.771 27.879c-20.155 20.076-35.319 52.285-46.711 90.115-18.162 60.311-26.069 134.676-24.804 201.515.833 44.024 5.623 84.761 14.316 115.875 5.077 18.173 11.178 32.816 19.142 41.867 57.387 65.217 205.512 116.436 336.522 115.833 148.85-.684 268.41-59.069 309.46-97.479 10.63-9.945 18.47-24.667 24.57-42.378 10.34-30.07 15.17-68.282 16.15-109.268 2.5-104.574-20.21-227.091-48.18-282.614-30.29-60.127-110.73-96.608-203.37-112.763-143.08-24.95-317.218-.272-397.095 79.297Z" style="fill:#2b2525"/>
    <path d="M764.891 307.071c-7.718 1.385-14.206 49.572-11.584 63.917 3.097 16.942 2.678 22.817 2.922 25.211.873 8.568 55.485 23.005 102.308 32.304 16.713 3.32 47.434 6.516 71.878 6.468 20.08-.04 37.534-5.944 36.478-6.585-.379-.23 3.839-8.736-2.438-35.487-7.205-30.71-50.865-60.881-54.91-60.817-23.682.375-129.32-27.763-144.654-25.011Z" style="fill:#cf6525" transform="rotate(-116.093 1177.659 255.64)"/>
    <path d="M902.571 320.208c-1.679-.792-32.744 51.216-30.887 75.602.873 11.466.247 23.164 1.375 23.985 9.618 7.004 28.724 9.157 53.097 9.005 9.718-.06 51.667-6.29 76.474-12.946 25.31-6.794 80.28-19.909 75.59-26.444-.25-.358.89-10.037 1.31-21.335.92-24.632 22.01-60.516 7.6-58.972-3.3.354-47.2 16.289-86.74 22.379-37.841 5.827-83.953-4.725-97.819-11.274Z" style="fill:#cf6525" transform="rotate(119.041 903.153 363.734) skewX(8.007)"/>
    <path d="M860.298 354.69c8.845 10.188 20.118 111.629 17.531 127.909-2.181 13.733 106.721 23.007 101.794 20.013-.379-.23 4.36-60.034.711-87.178-4.376-32.563-17.367-47.181-21.339-47.675-23.941-2.982-104.97-20.296-98.697-13.069Z" style="fill:#cf6525" transform="matrix(.82905 0 0 .92015 476.929 -41.696)"/>
    <path d="M845.069 368.554c2.977 9.452 19.264 29.101 26.665 57.38 5.372 20.526-2.303 37.771-1.739 39.553 1.014 3.201 64.923 1.176 74.977.646 7.036-.37 34.741 2.287 29.814-.706-.379-.231 8.778-21.644 2.502-48.394-7.205-30.711-13.584-61.908-17.619-61.725-25.008 1.128-41.129 3.394-66.532 6.209-5.559.616-48.554 5.496-48.068 7.037Z" style="fill:#cf6525" transform="matrix(.80711 0 0 1.08156 290.889 -100.657)"/>
    <path d="M1346.03 821.305c1.01.43 11.39 4.809 20.22 7 21.12 5.238 49.92 9.107 69.91 9.566 6.83.157 12.4.115 15.61-.852 8.32-2.5 17.11 2.225 19.61 10.545 2.5 8.319-2.23 17.103-10.55 19.603-15.33 4.608-67.74.231-102.16-8.309-17.74-4.4-30.95-10.833-35.59-16.015-5.79-6.474-5.24-16.433 1.23-22.226 6.29-5.625 15.86-5.267 21.72.688ZM1374.54 468.213c-3.09 8.119-12.19 12.202-20.31 9.112-8.12-3.089-12.2-12.189-9.11-20.309 9.3-24.434 24.04-48.207 40.22-64.173 16.03-15.824 40.99-28.184 59.08-32.813 8.41-2.154 16.99 2.93 19.15 11.346 2.15 8.416-2.93 16.997-11.35 19.151-13.69 3.503-32.63 12.746-44.77 24.721-13.32 13.146-25.25 32.847-32.91 52.965Z" style="fill:#2b2525"/>
    <path d="M1337.07 452.348c-4.71 7.304-14.45 9.417-21.76 4.715-7.3-4.703-9.42-14.451-4.71-21.755 7.83-12.176 33.49-35.525 52.95-44.735 7.09-3.352 33.1-20.027 56.32-20.934 8.68-.339 16 6.433 16.34 15.114.34 8.68-6.43 16.003-15.11 16.342-18.39.718-38.47 15.278-44.08 17.933-14.61 6.912-34.07 24.182-39.95 33.32Z" style="fill:#2b2525" transform="rotate(11.219 447.354 913.806)"/>
    <path d="M774.723 833.479c-7.206-4.852-9.117-14.642-4.265-21.847 4.851-7.206 14.641-9.118 21.847-4.266 9.594 6.46 30.391 10.634 44.796 12.679 31.068 4.409 50.8-3.766 69.276-8.933 8.366-2.339 17.057 2.554 19.397 10.92 2.339 8.366-2.554 17.058-10.92 19.397-21.89 6.121-45.367 15.007-82.176 9.783-18.753-2.661-45.465-9.324-57.955-17.733ZM942.484 410.137c3.93 7.748.83 17.228-6.918 21.157-7.747 3.93-17.227.83-21.157-6.918-6.298-12.418-27.795-31.516-43.242-39.093-12.718-6.239-29.088-10.735-40.971-11.29-8.678-.404-15.394-7.778-14.989-16.456.405-8.677 7.778-15.394 16.456-14.989 15.462.721 36.82 6.355 53.368 14.472 20.734 10.171 49 36.449 57.453 53.117Z" style="fill:#2b2525"/>
    <path d="M994.518 294.73c-4.686-7.315-2.551-17.058 4.764-21.744 7.318-4.686 17.058-2.551 21.738 4.764 8.91 13.901 20.97 45.665 24.25 64.461 5.62 32.211 5.12 59.095 1.1 80.551-1.6 8.538-9.83 14.172-18.37 12.572-8.54-1.599-14.17-9.83-12.57-18.368 3.46-18.473 3.66-41.616-1.17-69.348-2.69-15.407-12.44-41.493-19.742-52.888Z" style="fill:#2b2525" transform="matrix(1 0 0 1 61.09 -14.473)"/>
    <path d="M980.618 295.923c-5.242-6.926-3.875-16.806 3.052-22.049 6.926-5.243 16.81-3.875 22.05 3.051 4.62 6.107 22.64 44.778 27.68 61.868 6.71 22.705 6.67 67.807 4.82 79.413-1.36 8.579-9.43 14.436-18.01 13.07-8.58-1.366-14.44-9.439-13.07-18.018 1.52-9.58 1.61-46.808-3.93-65.549-4.206-14.246-18.739-46.695-22.592-51.786Z" style="fill:#2b2525" transform="matrix(1 0 0 1 -34.444 -6.426)"/>
    <path d="M962.358 407.023c2.931 8.177-1.328 17.196-9.506 20.127-8.178 2.931-17.197-1.328-20.128-9.506-4.99-13.923-21.456-24.285-38.455-30.521-10.852-3.98-22.185-6.141-31.891-5.654-4.74.238-9.021.992-12.218 2.995-7.363 4.611-17.084 2.377-21.694-4.986-4.611-7.362-2.377-17.083 4.986-21.694 16.122-10.097 44.933-10.018 71.658-.215 26.194 9.609 49.558 27.999 57.248 49.454Z" style="fill:#2b2525" transform="translate(-91.873 190.88)"/>
    <path d="M1007.14 431.528c.03-.191.07-.437.09-.629 1.68-13.792 2.03-65.306-.66-85.568-1.91-14.349-11.842-31.852-15.366-36.507-5.242-6.926-3.875-16.806 3.052-22.049 6.924-5.243 16.804-3.876 22.054 3.051 4.95 6.542 18.79 31.193 21.47 51.359 2.59 19.543 2.63 65.879 1.32 86.445-.5 7.729-1.7 12.953-2.41 14.606-3.41 7.988-12.67 11.701-20.65 8.286-7.44-3.179-11.17-11.424-8.9-18.994Z" style="fill:#2b2525" transform="matrix(1 0 0 1 279.083 -10.652)"/>
    <path d="M1006.13 402.578c.09-.565.77-5.102.96-8.566.75-13.152-.04-33.302-3.88-46.303-4.263-14.438-21.098-56.064-25.002-61.223-5.243-6.927-3.876-16.807 3.051-22.05 6.926-5.242 16.806-3.875 22.051 3.051 4.57 6.038 25.1 54.408 30.09 71.306 4.73 16.011 6.04 40.795 5.12 56.991-.49 8.823-1.92 15.566-3.23 18.633-3.41 7.988-12.67 11.701-20.66 8.287-7.81-3.339-11.53-12.264-8.5-20.126Z" style="fill:#2b2525" transform="matrix(1 0 0 1 174.325 -10.069)"/>
    <path d="M917.803 399.97c23.163-13.365 237.317-14.306 289.407-9.706 24.25 2.141 111.17 9.3 144.38 22.189 19.08 7.406 62.72 54.055 74.98 100.127 10.65 40.02 12.07 98.678 9.5 143.852-3.72 65.484-27.61 129.369-58.76 174.299-3.8 5.482-15.72 19.036-34.32 29.786-25.35 14.649-204.16 16.141-267.9 12.928-57.27-2.887-117.934-8.02-127.528-9.513-25.641-3.99-50.265-7.251-64.439-19.924-17.197-15.376-44.838-90.154-56.537-172.04-7.851-54.947 4.455-136.12 12.641-158.752 15.366-42.482 36.343-88.877 78.576-113.246Z" style="fill:#cebaba" transform="matrix(.85453 0 0 .85453 156.55 93.3)"/>
    <path d="M903.995 376.039c6.173-3.562 22.24-7.829 45.01-10.14 69.745-7.078 218.115-6.912 260.635-3.157 25.53 2.254 116.97 10.381 151.95 23.954 10.01 3.888 25.82 15.219 41.46 32.245 20.58 22.416 41.75 54.689 50.22 86.536 11.29 42.438 13.11 104.62 10.39 152.523-4.03 70.821-29.95 139.882-63.64 188.474-4.81 6.938-19.67 24.36-43.21 37.965-9.19 5.311-34.79 10.753-68.6 13.478-66.4 5.35-169.13 5.41-214.51 3.122-58.56-2.952-120.576-8.28-130.385-9.806-31.551-4.91-61.166-11.034-78.607-26.628-6.906-6.174-15.846-19.015-24.314-37.611-15.542-34.13-32.537-90.77-41.16-151.118-8.51-59.561 5.138-147.526 14.011-172.058 17.472-48.304 42.729-100.071 90.75-127.779Zm425.835 460.168c13.29-7.822 22.03-17.258 24.78-21.218 28.61-41.27 50.46-99.979 53.88-160.126 2.41-42.444 1.38-97.578-8.62-135.18-6.24-23.441-22.37-46.868-37.52-63.367-8.2-8.927-15.5-16.067-20.76-18.105-31.45-12.206-113.85-18.398-136.81-20.425-35.8-3.162-149.56-3.587-222.396.901-23.185 1.429-48.749 5.449-52.082 5.983-35.544 21.252-51.991 61.719-65.094 97.944-7.498 20.731-18.463 95.113-11.271 145.446 6.682 46.771 18.773 91.12 30.956 122.266 6.35 16.233 11.526 28.508 16.646 33.086 4.111 3.676 10.005 5.395 16.464 7.077 10.303 2.681 21.943 4.297 33.807 6.143 9.379 1.459 68.69 6.397 124.67 9.219 43.85 2.211 143.13 2.157 207.29-3.014 20.5-1.652 44.18-6.262 46.06-6.63Z" style="fill:#2b2525" transform="matrix(.85453 0 0 .85453 156.55 93.3)"/>
    <path d="M958.915 455.014c69.474-18.271 294.266-12.88 342.812 13.444 57.595 31.224 56.108 94.109 58.39 151.927 3.358 85.19-30.823 158.578-54.87 183.395-30.532 31.498-355.496 15.323-378.662-5.027-21.41-18.809-53.596-133.602-41.722-220.666 6.531-47.89 27.75-110.896 74.052-123.073Z"/>
    <path d="M950.909 424.57c50.766-13.351 180.963-15.252 271.894-5.374 42.709 4.639 77.274 12.555 93.93 21.588 37.479 20.319 56.107 50.658 65.362 85.605 7.674 28.993 8.238 61.54 9.477 92.755 3.794 96.191-36.566 178.523-63.722 206.544-6.35 6.548-19.167 13.869-38.42 18.169-27.447 6.129-73.361 9.006-123.932 9.1-84.436.159-182.142-7.097-225.188-16.358-18.084-3.892-29.686-9.967-34.5-14.197-8.71-7.65-20.29-26.167-29.621-52.714-17.358-49.384-31.502-129.976-22.517-195.855 4.506-33.04 15.53-72.187 34.778-101.363 15.619-23.675 36.537-41.083 62.459-47.9Zm-4.126 348.871c32.668 9.72 133.023 16.718 218.595 16.558 35.344-.067 68.192-1.426 92.768-4.62 10.408-1.354 22.91-4.683 26.482-5.669 20.688-23.507 46.862-86.218 44.033-158.084-.863-21.817-1.034-44.407-4.554-65.536-4.017-24.16-12.536-46.487-37.377-59.96-12.476-6.762-38.753-10.87-70.72-14.343-83.3-9.047-202.583-8.558-249.089 3.672-14.787 3.89-24.32 17.189-31.925 32.046-10.298 20.11-16.119 44.133-18.942 64.836-7.639 56.01 4.773 124.483 19.532 166.47 3.32 9.445 8.76 20.054 11.197 24.63Z"/>
  </g>
  <path d="M980.823 306.183c-13.9-5.318-15.773-29.661-14.421-42.255 4.073-37.936 77.508-98.678 146.288-120.015 105.36-32.682 186.69-34.445 246.27-28.694 147.19 14.208 207.33 66.331 209.13 79.702 4.58 33.993-127.8 170.065-329.92 172.97-79.25 1.139-212.05-44.381-257.347-61.708Z" style="fill:#607533" transform="matrix(.1328 0 0 .14548 -4.218 -11.497)"/>
  <path d="M976.458 315.692c-8.324-3.184-14.418-10.451-17.823-19.8-3.919-10.761-4.406-24.291-3.474-32.97 1.807-16.832 15.293-38.043 36.466-58.554 29.793-28.857 74.493-56.898 117.433-70.218 107.42-33.32 190.34-35.048 251.09-29.184 106.35 10.266 168.53 40.105 196.99 61.581 15.2 11.47 21.47 21.956 22.16 27.116.73 5.439-.7 12.933-5.07 21.751-5.27 10.62-14.92 23.855-28.71 38.13-51.48 53.295-161.74 122.566-307.17 124.656-80.62 1.159-215.81-44.88-261.892-62.508Zm580.462-119.097c-.66-.869-6.49-8.358-14.17-14.154-26.68-20.135-85.26-47.343-184.97-56.968-58.43-5.639-138.15-3.841-241.45 28.203-39.6 12.284-80.79 38.219-108.26 64.835-17.009 16.473-28.976 32.904-30.427 46.422-.691 6.434-.478 16.476 2.427 24.453 1.151 3.158 2.307 6.212 5.118 7.287C1029.7 313.7 1160.12 358.7 1237.99 357.581c137.53-1.977 241.9-67.276 290.59-117.676 11.96-12.39 20.5-23.778 25.07-32.995 2.08-4.191 3.45-7.646 3.27-10.315Z" style="fill:#607533" transform="matrix(.1328 0 0 .14548 -4.218 -11.497)"/>
  <path d="M976.579 97.706c.392-15.8 3.214-26.996 6.298-24.985 3.083 2.011 5.268 16.472 4.875 32.273-1.035 41.677-.014 87.356-.467 126.613-.183 15.9-2.851 28.046-5.954 27.107-3.103-.94-5.473-14.611-5.29-30.512.467-40.462-.529-87.539.538-130.496Z" style="fill:#2b2525" transform="matrix(1.59804 0 0 .31186 -1450.801 -19.544)"/>
</svg>