<?xml version="1.0" encoding="UTF-8" standalone="no"?>
<!DOCTYPE svg PUBLIC "-//W3C//DTD SVG 1.1//EN" "http://www.w3.org/Graphics/SVG/1.1/DTD/svg11.dtd">
<svg width="100%" height="100%" viewBox="0 0 240 240" version="1.1" xmlns="http://www.w3.org/2000/svg" xmlns:xlink="http://www.w3.org/1999/xlink" xml:space="preserve" xmlns:serif="http://www.serif.com/" style="fill-rule:evenodd;clip-rule:evenodd;stroke-linejoin:round;stroke-miterlimit:2;">
    <g transform="matrix(1.05396,0,0,1.07622,-6.69305,-13.0851)">
        <ellipse cx="120.207" cy="123.66" rx="111.959" ry="109.643" style="fill:white;"/>
    </g>
    <g transform="matrix(0.114309,0,0,0.114309,-15.991,-0.667787)">
        <g id="v-1">
            <g transform="matrix(7.77619,0,0,7.77619,230.879,117.866)">
                <g transform="matrix(0.0855611,0.0200375,-0.0245983,0.105036,47.6423,-25.2922)">
                    <path d="M1439.71,427.724C1113.24,475.258 988.633,342.797 992.976,293.147C997.05,246.568 1236.3,149.602 1378.56,125.173C1628.81,82.201 1817.14,129.048 1824.69,162.942C1830.36,188.42 1761.51,380.869 1439.71,427.724Z" style="fill:rgb(130,169,102);"/>
                    <path d="M1443.09,443.122C1204.35,477.882 1069.47,418.616 1011.27,363.271C983.088,336.474 972.284,309.615 973.821,292.035C974.528,283.955 979.349,274.529 989.017,264.658C999.928,253.519 1017.59,240.998 1040.16,228.126C1122.59,181.111 1272.87,127.335 1374.6,109.866C1554.56,78.964 1703.34,93.77 1779.08,117.082C1800.79,123.763 1816.96,131.329 1827.1,138.65C1836.99,145.789 1842.07,153.338 1843.58,160.15C1845.54,168.948 1841.33,195.374 1822.3,229.055C1782.18,300.058 1677.36,409.011 1443.09,443.122ZM1436.33,412.325C1652.57,380.839 1750.38,281.514 1787.41,215.975C1796.54,199.822 1801.92,185.871 1804.36,175.76C1805.49,171.107 1806.23,167.677 1805.8,165.735C1805.65,165.105 1804.8,164.677 1804.08,164.019C1802.5,162.593 1800.48,161.186 1798.1,159.757C1790.35,155.104 1779.32,150.601 1765.51,146.348C1693.8,124.277 1552.91,111.221 1382.52,140.479C1285.08,157.211 1141.14,208.722 1062.18,253.754C1043.25,264.552 1028.19,274.825 1019.04,284.17C1015.32,287.965 1012.4,291.152 1012.13,294.259C1010.65,311.192 1028.83,338.376 1066.51,363.564C1130.08,406.058 1248.48,439.677 1436.33,412.325Z" style="fill:rgb(130,169,102);"/>
                </g>
                <g transform="matrix(1.59803,0,0,0.311857,-1450.8,-19.5442)">
                    <path d="M982.62,84.795C984.554,72.325 988.099,70.245 990.533,80.154C992.966,90.063 993.372,108.233 991.439,120.703C988.189,141.661 986.563,185.093 986.798,221.561C986.874,233.253 987.152,244.258 987.713,253.511C988.046,259 988.386,263.873 989.041,266.7C991.417,276.97 991.719,295.192 989.715,307.367C987.711,319.543 984.155,321.09 981.779,310.821C978.133,295.064 975.791,262.122 975.541,223.472C975.215,173.025 978.124,113.786 982.62,84.795Z" style="fill:rgb(108,82,66);"/>
                </g>
            </g>
            <g transform="matrix(1.84216,0,0,1.84216,-908.551,133.662)">
                <path d="M826.689,355.803C734.755,447.382 728.514,764.796 787.748,832.112C847.751,900.303 972.576,950.054 1151.06,953.593C1370.77,957.949 1419.08,891.942 1461.94,851.835C1541.22,777.648 1506.77,489.976 1458.61,394.359C1377.19,232.708 965.737,217.295 826.689,355.803Z" style="fill:white;"/>
                <clipPath id="_clip1">
                    <path d="M826.689,355.803C734.755,447.382 728.514,764.796 787.748,832.112C847.751,900.303 972.576,950.054 1151.06,953.593C1370.77,957.949 1419.08,891.942 1461.94,851.835C1541.22,777.648 1506.77,489.976 1458.61,394.359C1377.19,232.708 965.737,217.295 826.689,355.803Z"/>
                </clipPath>
                <g clip-path="url(#_clip1)">
                    <g transform="matrix(3.93496,0,0,3.93496,656.113,32.6896)">
                        <g transform="matrix(0.254132,0,0,0.254132,-166.739,-8.30747)">
                            <path d="M939.399,789.589C927.208,799.281 906.37,825.554 862.476,831.874C819.616,838.044 791.411,821.391 771.407,823.069C760.869,823.953 833.253,875.078 924.361,911.184C985.569,935.441 1070.75,940.423 1128.43,944.681C1302.17,957.506 1463.23,873.791 1467.76,852.283C1470.15,840.905 1429.92,855.319 1384.83,841.359C1345.05,829.043 1319.32,799.226 1316.99,799.849C1289.07,807.319 1226.8,824.828 1133.69,820.082C1038.18,815.214 946.023,784.323 939.399,789.589Z" style="fill:rgb(251,152,50);"/>
                            <path d="M927.578,774.72L934.008,771.254L940.183,770.068C943.443,769.842 948.945,770.254 956.322,771.572C985.971,776.869 1059.25,797.268 1134.66,801.111C1224.78,805.705 1285.06,788.73 1312.08,781.499L1320.46,781.142L1325.22,782.613L1329.49,785.12C1335.22,789.255 1357.45,812.997 1390.45,823.213C1413.27,830.278 1434.74,829.064 1448.81,828.643C1457.76,828.375 1464.68,828.631 1468.91,829.67L1477.73,833.63L1481.15,836.657L1484.17,840.857L1486.51,847.479L1486.34,856.193L1484.22,862.294L1480.1,868.68C1476.08,873.687 1468.61,880.233 1457.78,887.293C1406.85,920.515 1271.18,974.266 1127.03,963.625C1067.75,959.249 980.268,953.773 917.362,928.843C849.62,901.997 791.968,866.987 769.019,849.214C760.212,842.394 755.398,836.549 753.856,833.616L751.489,825.853L751.686,820.446L752.92,816.232L755.956,811.237L759.966,807.597L764.6,805.251L769.82,804.14C779.464,803.331 790.749,805.63 804.054,808.716C818.769,812.13 836.916,816.362 859.769,813.072C898.725,807.464 916.759,783.322 927.578,774.72ZM844.308,852.242C868.738,865.819 898.826,880.631 931.359,893.524C990.871,917.109 1073.74,921.597 1129.83,925.737C1247.27,934.406 1358.73,897.416 1416.53,867.303C1417.06,867.025 1417.59,866.742 1418.13,866.455C1406.13,865.661 1392.88,863.735 1379.21,859.504C1349.85,850.415 1323.55,829.957 1312.62,820.675C1280.45,829.161 1219.59,843.481 1132.73,839.053C1055.8,835.132 964.544,813.388 946.102,808.832C931.869,821.509 908.388,844.455 865.183,850.676C857.848,851.732 850.898,852.201 844.308,852.242Z" style="fill:rgb(251,152,50);"/>
                        </g>
                        <g transform="matrix(-0.111777,-0.22823,0.22823,-0.111777,205.832,354.011)">
                            <path d="M803.555,304.526C795.837,305.911 798.63,395.855 794.056,419.572C792.426,428.028 899.595,451.406 918.736,432.366C937.876,413.326 918.239,315.026 908.9,305.333C901.087,297.223 811.599,303.082 803.555,304.526Z" style="fill:rgb(251,152,50);"/>
                        </g>
                        <g transform="matrix(-0.123365,0.22218,-0.239533,-0.0921132,255.012,-71.6619)">
                            <path d="M912.128,309.349C904.617,324.705 903.786,425.17 904.913,425.992C914.532,432.995 1059.57,406.118 1054.88,399.584C1054.62,399.226 1045.52,301.054 1053.73,288.346C1071.97,260.119 919.597,294.077 912.128,309.349Z" style="fill:rgb(251,152,50);"/>
                        </g>
                        <g transform="matrix(0.210687,0,0,0.23384,-45.5364,-18.9037)">
                            <path d="M875.654,352.035C878.205,382.948 873.152,499.258 876.588,505.736C880.472,513.059 959.895,532.265 974.368,523.206C994.127,510.84 1002.37,395.836 975.054,363.694C969.693,357.385 874.956,343.581 875.654,352.035Z" style="fill:rgb(251,152,50);"/>
                        </g>
                        <g transform="matrix(0.205113,0,0,0.274858,-92.8153,-33.8877)">
                            <path d="M845.069,368.554C848.046,378.006 864.333,397.655 871.734,425.934C877.106,446.46 880.079,483.059 880.644,484.841C881.657,488.042 963.425,488.759 981.877,482.682C989.964,480.018 985.973,446.285 983.411,418.552C980.539,387.448 966.588,353.956 962.552,354.139C937.544,355.267 917.51,358.021 892.107,360.837C886.548,361.453 844.583,367.013 845.069,368.554Z" style="fill:rgb(251,152,50);"/>
                        </g>
                    </g>
                    <g transform="matrix(3.93496,0,0,3.93496,656.113,32.6896)">
                        <g transform="matrix(0.254132,0,0,0.254132,-166.739,-8.30747)">
                            <path d="M1356.34,478.188C1353.27,485.427 1344.9,488.812 1337.66,485.741C1330.42,482.671 1327.04,474.302 1330.11,467.063C1332.62,461.149 1337.86,454.005 1345.43,446.662C1360.11,432.404 1384.09,416.307 1407.65,405.372C1432.77,393.717 1457.71,388.851 1472.41,394.162C1479.81,396.834 1483.64,405.007 1480.97,412.402C1478.3,419.797 1470.12,423.631 1462.73,420.96C1459.67,419.855 1455.77,420.073 1451.37,420.711C1441.93,422.081 1430.87,426.01 1419.64,431.218C1401.92,439.441 1383.89,450.923 1370.99,461.92C1363.92,467.948 1358.35,473.456 1356.34,478.188Z" style="fill:rgb(251,152,50);"/>
                        </g>
                        <g transform="matrix(0.249276,0.0494416,-0.0494416,0.249276,-119.387,-25.988)">
                            <path d="M1311.02,403.418C1308.84,410.972 1300.93,415.337 1293.38,413.157C1285.82,410.978 1281.46,403.075 1283.64,395.52C1286.36,386.077 1295.12,375.479 1308.28,366.227C1333.79,348.309 1375.95,333.863 1401.55,334.761C1409.4,335.037 1415.56,341.641 1415.28,349.499C1415.01,357.357 1408.4,363.513 1400.55,363.237C1382.63,362.608 1354.95,371.771 1334.26,383.51C1327.63,387.272 1321.73,391.306 1317.22,395.468C1314.25,398.207 1311.79,400.718 1311.02,403.418Z" style="fill:rgb(251,152,50);"/>
                        </g>
                        <g transform="matrix(0.254132,0,0,0.254132,-166.739,-8.30747)">
                            <path d="M955.741,462.615C956.655,470.424 951.056,477.507 943.247,478.421C935.437,479.335 928.355,473.736 927.441,465.926C926.857,460.938 922.905,456.234 917.857,451.315C910.853,444.488 901.393,437.98 890.934,432.09C871.295,421.03 848.145,412.229 829.789,408.316C824.225,407.13 819.153,406.398 814.841,406.279C812.394,406.211 810.343,406.112 808.925,406.747C801.749,409.963 793.313,406.748 790.098,399.572C786.882,392.397 790.097,383.961 797.273,380.745C803.343,378.025 813.182,376.984 825.347,378.622C847.279,381.574 878.848,392.582 904.916,407.262C920.45,416.011 934.022,426.104 942.91,436.372C950.369,444.988 954.731,453.987 955.741,462.615Z" style="fill:rgb(251,152,50);"/>
                        </g>
                        <g transform="matrix(0.128831,0,0,0.128831,-27.7671,-0.379241)">
                            <g transform="matrix(1.9726,0,0,1.9726,-958.21,-90.0887)">
                                <path d="M991.639,298.252C985.886,292.892 985.566,283.87 990.926,278.116C996.286,272.363 1005.31,272.044 1011.06,277.403C1027.57,292.78 1037.69,317.856 1042.37,344.642C1049.1,383.171 1044.71,424.79 1037.14,441.992C1033.97,449.189 1025.55,452.459 1018.36,449.291C1011.16,446.123 1007.89,437.708 1011.06,430.511C1017.35,416.213 1019.9,381.569 1014.3,349.545C1010.76,329.293 1004.12,309.877 991.639,298.252Z" style="fill:rgb(251,152,50);"/>
                            </g>
                            <g transform="matrix(1.9726,0,0,1.9726,-1146.66,-74.2157)">
                                <path d="M988.318,312.093C981.091,308.995 977.738,300.613 980.836,293.386C983.934,286.159 992.316,282.806 999.543,285.904C1021.47,295.304 1033.48,317.642 1038.14,344.323C1044.1,378.384 1038.49,419.273 1035.34,437.805C1034.02,445.557 1026.66,450.782 1018.91,449.465C1011.16,448.149 1005.93,440.787 1007.25,433.035C1010.07,416.42 1015.42,379.771 1010.08,349.232C1007.21,332.83 1001.8,317.871 988.318,312.093Z" style="fill:rgb(251,152,50);"/>
                            </g>
                        </g>
                        <g transform="matrix(0.254132,0,0,0.254132,-190.087,40.2013)">
                            <path d="M984.22,396.953C985.241,404.749 979.74,411.908 971.944,412.929C964.147,413.949 956.989,408.449 955.968,400.652C955.478,396.91 952.233,393.509 948.289,389.835C939.169,381.343 925.255,373.568 910.544,367.608C895.662,361.578 879.918,357.416 867.136,356.733C861.233,356.418 856.148,356.448 852.882,358.493C846.217,362.667 837.419,360.644 833.246,353.98C829.072,347.316 831.094,338.518 837.758,334.344C844.33,330.229 853.889,327.95 865.378,328.162C886.299,328.546 914.971,336.924 938.417,349.094C952.349,356.325 964.425,364.915 972.353,373.684C979.233,381.294 983.22,389.317 984.22,396.953Z" style="fill:rgb(251,152,50);"/>
                        </g>
                        <g transform="matrix(0.128831,0,0,0.128831,-6.11599,-1.17596)">
                            <g transform="matrix(1.9726,0,0,1.9726,-696.257,-76.3673)">
                                <path d="M993.494,307.824C989.014,301.362 990.622,292.479 997.084,287.998C1003.55,283.518 1012.43,285.127 1016.91,291.589C1029.23,309.363 1034.03,336.018 1034.5,363.336C1035.13,400.11 1028.4,437.914 1027.81,450.909C1027.46,458.764 1020.79,464.853 1012.94,464.498C1005.08,464.143 998.993,457.478 999.348,449.623C999.924,436.89 1006.63,399.859 1006.01,363.828C1005.64,342.607 1003.07,321.632 993.494,307.824Z" style="fill:rgb(251,152,50);"/>
                            </g>
                            <g transform="matrix(1.9726,0,0,1.9726,-902.902,-75.2176)">
                                <path d="M1000.33,292.691C994.549,287.363 994.178,278.343 999.506,272.56C1004.83,266.776 1013.85,266.406 1019.64,271.734C1034.95,285.841 1043.36,310.877 1046.42,338.511C1050.56,375.752 1045.83,417.504 1042.61,436.273C1041.28,444.023 1033.91,449.235 1026.16,447.905C1018.41,446.576 1013.2,439.204 1014.53,431.454C1017.49,414.213 1021.9,375.864 1018.11,341.654C1015.88,321.648 1011.42,302.904 1000.33,292.691Z" style="fill:rgb(251,152,50);"/>
                            </g>
                        </g>
                    </g>
                </g>
                <path d="M809.932,338.981C897.649,251.605 1088.01,220.274 1245.13,247.672C1353.19,266.516 1444.49,313.541 1479.82,383.677C1514.86,453.256 1543.44,620.591 1528.86,741.225C1522.05,797.579 1505.12,843.954 1478.16,869.173C1432.96,911.469 1382.3,981.927 1150.59,977.333C963.244,973.618 832.904,919.374 769.922,847.798C758.617,834.951 748.765,814.727 741.558,788.932C732.048,754.893 726.56,710.357 725.649,662.195C724.3,590.922 732.922,511.65 752.289,447.338C766.064,401.594 785.562,363.257 809.932,338.981ZM843.447,372.626C823.688,392.309 808.93,423.943 797.761,461.032C779.712,520.968 771.872,594.872 773.129,661.296C773.955,704.932 778.679,745.313 787.295,776.153C792.173,793.613 797.922,807.731 805.573,816.427C862.6,881.234 981.902,926.49 1151.53,929.853C1359.25,933.972 1405.2,872.415 1445.72,834.497C1455.92,824.951 1463.37,810.769 1469.22,793.767C1479.44,764.037 1484.18,726.25 1485.15,685.726C1487.63,581.872 1465.18,460.18 1437.4,405.04C1407.59,345.849 1328.16,310.358 1236.97,294.455C1095.21,269.735 922.59,293.789 843.447,372.626Z" style="fill:rgb(108,82,66);"/>
                <g transform="matrix(0.875316,0,0,0.875316,140.124,72.8917)">
                    <path d="M938.959,423.292C1019.26,402.283 1276.1,412.722 1334.09,441.262C1399.08,473.25 1405.79,549.154 1408.46,616.815C1412.39,716.507 1382.83,783.37 1354.68,812.41C1318.96,849.27 929.708,828.062 902.598,804.247C877.544,782.237 838.405,669.202 852.3,567.317C859.943,511.275 884.755,437.474 938.959,423.292Z" style="fill:rgb(237,219,147);"/>
                    <path d="M933.466,402.298C983,389.338 1097.87,387.562 1194.72,394.918C1261.12,399.96 1319.15,409.721 1343.67,421.791C1381.9,440.607 1403.37,472.024 1415.3,509.002C1426.02,542.247 1428.73,580.177 1430.14,615.96C1434.4,724.012 1400.77,796.038 1370.27,827.514C1364.13,833.848 1351.3,840.406 1332.35,844.483C1300.45,851.346 1246.88,854.229 1187.85,854.02C1100.97,853.713 1002.08,846.944 944.898,837.969C926.163,835.028 911.562,831.724 902.615,828.463C895.84,825.994 891.139,823.066 888.275,820.551C879.214,812.591 867.893,795.193 857.96,770.806C837.641,720.921 820.517,639.762 830.798,564.384C835.788,527.792 847.808,484.345 869.124,452.027C885.262,427.56 906.671,409.308 933.466,402.298ZM915.911,786.994C918.742,787.814 935.381,792.541 951.629,795.091C1007.26,803.823 1103.48,810.319 1188,810.618C1235.67,810.786 1279.58,809.015 1310.08,804.412C1319.19,803.037 1326.98,801.441 1333.1,799.491C1335.59,798.701 1338.86,797.158 1339.57,796.819C1365.2,769.951 1390.35,708.455 1386.77,617.671C1385.51,585.792 1383.54,551.94 1373.99,522.321C1365.64,496.434 1351.27,473.905 1324.5,460.732C1302.64,449.97 1250.64,442.692 1191.44,438.196C1099.88,431.243 991.275,432.036 944.452,444.287C927.881,448.623 915.336,460.792 905.356,475.924C887.497,503.001 877.984,539.591 873.802,570.249C864.629,637.512 880.025,709.919 898.157,754.434C904.337,769.608 910.245,781.314 915.911,786.994Z" style="fill:rgb(108,82,66);"/>
                </g>
            </g>
        </g>
    </g>
</svg>
