<svg xmlns="http://www.w3.org/2000/svg" xml:space="preserve" style="fill-rule:evenodd;clip-rule:evenodd;stroke-linecap:round;stroke-linejoin:round;stroke-miterlimit:1.5" viewBox="0 0 240 240">
  <path d="M826.689 355.803c-91.934 91.579-153.955 500.019-74.735 542.021 87.803 46.552 250.186 57.429 387.176 56.799 155.43-.714 316.07-15.484 365.04-47.859 72.14-47.699 2.6-416.788-45.56-512.405-81.42-161.651-492.873-177.064-631.921-38.556Z" style="fill:#5f6252" transform="matrix(.25396 0 0 .25396 -165.044 -9.53)"/>
  <path d="M812.795 341.855c86.983-86.647 275.835-117.356 431.635-90.187 106.62 18.592 196.91 64.633 231.76 133.834 34.49 68.462 80.04 273.92 78.74 407.809-.35 36.203-4.2 67.39-12.04 89.899-6.55 18.807-16.2 32.261-27.86 39.977-16.13 10.665-43.15 20.035-77.88 27.325-74.81 15.701-187.66 23.292-297.93 23.799-140.33.645-306.543-11.404-396.488-59.093-12.983-6.883-24.036-20.316-31.726-40-9.093-23.273-14.033-56.419-14.904-95.244-1.929-85.98 15.511-201.069 44.028-293.522 19.766-64.082 45.32-117.359 72.665-144.597Zm27.789 27.897c-24.14 24.046-45.377 71.735-62.827 128.306-27.305 88.526-44.136 198.705-42.288 281.033.747 33.308 4.413 61.832 12.214 81.798 3.577 9.155 7.455 16.338 13.494 19.54 85.661 45.417 244.213 55.12 377.863 54.506 92.19-.424 186.24-5.807 257.18-16.993 44.19-6.968 78.99-15.638 97.09-27.601 5.65-3.736 9.22-10.972 12.39-20.079 6.74-19.347 9.55-46.216 9.86-77.332 1.23-127.905-41.59-324.313-74.53-389.715-30.29-60.124-110.73-96.602-203.37-112.756-143.06-24.949-317.201-.273-397.076 79.293Z" style="fill:#5f6252" transform="matrix(.25396 0 0 .25396 -165.044 -9.53)"/>
  <path d="M970.381 284.027c.741-16.812 140.569-70.394 239.649-85.333 134.79-20.321 233.92-6.292 277.52-3.993 18.29.965 26.83 162.143-140.04 204.401-111.64 28.27-228.21-14.44-303.76-49.875-56.942-26.706-74.194-46.492-73.369-65.2Z" style="fill:#aeaf9e" transform="matrix(.17032 0 0 .14258 -37.216 -17.223)"/>
  <path d="m935.201 281.814 3.605-17.002 7.718-13.284c4.11-5.132 12.13-12.276 24.175-19.257 41.291-23.928 151.741-62.786 234.921-75.326 137.69-20.759 238.94-6.632 283.48-4.283l12.86 3.325 13.29 10.38 9.78 16.505c2.31 5.757 4.41 13.238 5.72 22.261 7.6 52.765-12.53 193.755-175.94 235.135-119 30.134-243.41-14.1-323.94-51.872-40.889-19.179-64.106-36.61-76.382-51.335-3.15-3.779-5.783-7.52-7.988-11.184l-6.418-13.236-3.999-15.141-.882-15.686Zm96.979 14.978c7.25 4.452 15.53 9.088 24.44 13.266 70.57 33.098 179.3 74.284 283.58 47.879 89.97-22.783 118.59-84.98 121.47-122.967-49.98-4.048-136.25-11.258-247.23 5.473-55.83 8.418-135.99 37.989-182.26 56.349Z" style="fill:#aeaf9e" transform="matrix(.17032 0 0 .14258 -37.216 -17.223)"/>
  <path d="M978.858 94.971c.4-16.086 2.206-26.287 4.031-22.766 1.826 3.52 2.984 19.438 2.584 35.524-1.025 41.275-.198 95.083-.646 133.962-.189 16.382-1.852 28.331-3.711 26.666-1.859-1.664-3.215-16.316-3.026-32.698.471-40.841-.309-97.329.768-140.688Z" style="fill:#5f6252" transform="matrix(2.6582 0 0 .30166 -2489.821 -19.747)"/>
  <ellipse cx="86.948" cy="130.122" rx="24.62" ry="23.106" style="fill:#aeaf9e;stroke:#aeaf9e;stroke-width:1px" transform="translate(-7.066 -5.056)"/>
  <ellipse cx="86.948" cy="130.122" rx="24.62" ry="23.106" style="fill:#aeaf9e;stroke:#aeaf9e;stroke-width:1px" transform="translate(80.388 -2.75)"/>
</svg>