<svg xmlns="http://www.w3.org/2000/svg" xml:space="preserve" style="fill-rule:evenodd;clip-rule:evenodd;stroke-linecap:round;stroke-linejoin:round;stroke-miterlimit:1.5" viewBox="0 0 240 240">
  <path d="M826.689 355.803c-91.934 91.579-98.175 408.993-38.941 476.309 60.003 68.191 214.392 123.141 351.382 122.511 155.43-.714 279.95-62.681 322.81-102.788 79.28-74.187 44.83-361.859-3.33-457.476-81.42-161.651-492.873-177.064-631.921-38.556Z" style="fill:#101820" transform="matrix(.25396 0 0 .25396 -165.044 -9.53)"/>
  <path d="M812.795 341.855c86.983-86.647 275.835-117.356 431.635-90.187 106.62 18.592 196.91 64.633 231.76 133.834 34.82 69.126 63.13 235.386 48.64 355.237-6.67 55.222-23.03 100.76-49.44 125.472-44.67 41.805-174.16 107.355-336.17 108.1-142.967.657-303.631-58.025-366.253-129.193-10.993-12.492-20.494-32.195-27.503-57.278-9.434-33.765-14.856-77.947-15.76-125.722-1.341-70.858 7.215-149.673 26.469-213.61 13.552-45.005 32.645-82.77 56.622-106.653Zm27.789 27.897c-20.153 20.075-35.316 52.282-46.707 90.11-18.162 60.31-26.068 134.673-24.803 201.511.833 44.022 5.622 84.758 14.315 115.871 5.077 18.171 11.176 32.812 19.139 41.862 57.385 65.215 205.502 116.431 336.512 115.829 148.85-.684 268.4-59.067 309.45-97.476 10.63-9.943 18.47-24.664 24.56-42.372 10.35-30.069 15.18-68.28 16.16-109.265 2.49-104.571-20.22-227.086-48.18-282.607-30.29-60.124-110.73-96.602-203.37-112.756-143.06-24.949-317.201-.273-397.076 79.293Z" style="fill:#101820" transform="matrix(.25396 0 0 .25396 -165.044 -9.53)"/>
  <path d="M999.101 265.678c3.849-24.687 95.019-70.172 194.499-80.746 193.1-20.526 303.88 26.831 301.81 33.681-7.22 23.918-8.19 105.901-140.63 140.966-111.41 29.498-228.13 8.781-294.82-32.944-51.06-31.948-63.729-42.538-60.859-60.957Z" style="fill:#9a9500" transform="matrix(.2172 0 0 .2172 -93.677 -31.244)"/>
  <path d="M971.806 261.425c1.861-11.945 13.304-29.635 37.074-45.191 36.89-24.144 107.1-50.832 181.8-58.772 184.75-19.638 298.31 21.949 317.63 35.216l7.33 6.393 4.27 6.284 3.06 10.748-1.11 10.491c-4.9 16.213-8.32 55.57-41.74 93.395-22.36 25.309-58.2 50.392-118.27 66.295-119.66 31.681-244.92 8.583-316.54-36.23-27.94-17.486-45.2-29.382-55.267-39.172-17.697-17.219-21-31.726-18.237-49.457Zm56.804 9.681c1.31 1.334 2.94 2.892 4.48 4.147 8.99 7.313 22.41 16.001 41.53 27.963 61.75 38.638 169.92 56.973 273.09 29.659 45.89-12.15 73.92-30.131 91.01-49.466 15.18-17.185 21.66-35.065 25.2-49.407-34.94-10.414-136.6-35.504-267.4-21.6-55.76 5.927-108.77 23.467-142.99 41.635-9.71 5.152-19.76 12.887-24.92 17.069Z" style="fill:#101820" transform="matrix(.2172 0 0 .2172 -93.677 -31.244)"/>
  <path d="M978.858 94.971c.4-16.086 2.206-26.287 4.031-22.766 1.826 3.52 2.984 19.438 2.584 35.524-1.025 41.275-.198 95.083-.646 133.962-.189 16.382-1.852 28.331-3.711 26.666-1.859-1.664-3.215-16.316-3.026-32.698.471-40.841-.309-97.329.768-140.688Z" style="fill:#101820" transform="matrix(2.6582 0 0 .30166 -2489.821 -19.747)"/>
  <ellipse cx="86.948" cy="130.122" rx="24.62" ry="23.106" style="fill:#9a9500;stroke:#9a9500;stroke-width:1px" transform="translate(-9.19 -.706)"/>
  <ellipse cx="86.948" cy="130.122" rx="24.62" ry="23.106" style="fill:#9a9500;stroke:#9a9500;stroke-width:1px" transform="translate(81.898 1.973)"/>
</svg>