<?xml version="1.0" encoding="UTF-8" standalone="no"?>
<!DOCTYPE svg PUBLIC "-//W3C//DTD SVG 1.1//EN" "http://www.w3.org/Graphics/SVG/1.1/DTD/svg11.dtd">
<svg width="100%" height="100%" viewBox="0 0 240 240" version="1.1" xmlns="http://www.w3.org/2000/svg" xmlns:xlink="http://www.w3.org/1999/xlink" xml:space="preserve" xmlns:serif="http://www.serif.com/" style="fill-rule:evenodd;clip-rule:evenodd;stroke-linejoin:round;stroke-miterlimit:2;">
    <g transform="matrix(0.128598,0,0,0.128598,-29.6904,-15.1573)">
        <g transform="matrix(7.77619,0,0,7.77619,230.879,117.866)">
            <g transform="matrix(0.114769,0.010287,-0.0126285,0.140892,9.65177,-21.1197)">
                <path d="M1288.03,364.478C1166.73,372.076 997.545,306.431 976.782,259.616C959.546,220.753 1059.87,169.33 1128.65,147.993C1234.01,115.31 1326.62,109.766 1386.21,115.518C1533.4,129.726 1630.5,172.414 1630.29,196.202C1630.07,220.679 1562.15,347.307 1288.03,364.478Z" style="fill:rgb(93,123,28);"/>
                <path d="M1289.03,375.05C1201.44,380.537 1089.58,349.162 1023.04,313.182C992.468,296.65 971.428,278.753 964.539,263.219C958.011,248.501 963.533,232.085 978.637,215.966C1007.74,184.902 1073.82,153.656 1124.02,138.083C1231.89,104.622 1326.73,99.099 1387.74,104.988C1493.63,115.209 1574.17,140.089 1612.96,162.292C1624.31,168.789 1632.37,175.232 1637.1,181.05C1641.48,186.445 1643.35,191.635 1643.31,196.278C1643.23,204.539 1636.98,223.364 1618.99,245.883C1580.46,294.101 1487.12,362.642 1289.03,375.05ZM1287.04,353.905C1472.71,342.275 1561.06,279.509 1597.16,234.315C1611.16,216.797 1617.22,202.553 1617.27,196.126C1617.29,194.51 1615.71,192.94 1613.81,191.011C1610.25,187.383 1604.88,183.589 1598,179.645C1561.29,158.639 1484.86,135.718 1384.68,126.048C1326.51,120.434 1236.13,125.999 1133.28,157.902C1093.5,170.243 1042.7,192.928 1012.08,217.271C1002.77,224.669 995.368,232.149 991.18,239.564C987.973,245.243 986.704,250.781 989.025,256.013C994.594,268.571 1012.72,282.148 1037.44,295.513C1099.91,329.29 1204.8,359.056 1287.04,353.905Z" style="fill:rgb(93,123,28);"/>
            </g>
            <g transform="matrix(1.59803,0,0,0.311857,-1450.8,-19.5442)">
                <path d="M979.272,77.94C981.206,65.469 984.751,63.39 987.185,73.299C989.619,83.208 990.024,101.377 988.091,113.848C984.964,134.008 983.02,162.991 983.058,190.068C983.08,205.756 983.757,220.902 985.537,232.392C987.47,244.865 987.063,263.034 984.629,272.939C982.195,282.844 978.649,280.758 976.716,268.285C973.421,247.02 971.835,219.517 971.795,190.481C971.739,150.476 974.653,107.726 979.272,77.94Z" style="fill:rgb(73,53,35);"/>
            </g>
        </g>
        <g transform="matrix(1.97618,0,0,1.97618,-1065.72,53.2656)">
            <path d="M826.689,355.803C734.755,447.382 728.514,764.796 787.748,832.112C847.751,900.303 1002.14,955.253 1139.13,954.623C1294.56,953.909 1419.08,891.942 1461.94,851.835C1541.22,777.648 1506.77,489.976 1458.61,394.359C1377.19,232.708 965.737,217.295 826.689,355.803Z" style="fill:white;"/>
            <clipPath id="_clip1">
                <path d="M826.689,355.803C734.755,447.382 728.514,764.796 787.748,832.112C847.751,900.303 1002.14,955.253 1139.13,954.623C1294.56,953.909 1419.08,891.942 1461.94,851.835C1541.22,777.648 1506.77,489.976 1458.61,394.359C1377.19,232.708 965.737,217.295 826.689,355.803Z"/>
            </clipPath>
            <g clip-path="url(#_clip1)">
                <g transform="matrix(3.93496,0,0,3.93496,656.113,32.6896)">
                    <g transform="matrix(0.254132,0,0,0.254132,-166.739,-8.30747)">
                        <path d="M928.557,812.936C920.273,813.167 859.946,850.479 843.865,846.459C831.255,843.307 833.859,849.29 834.36,850.841C838.326,863.131 911.019,897 932.055,904.408C960.154,914.303 981.731,921.225 1005.39,926.8C1032.93,933.289 1048.68,934.667 1075.08,937.764C1097.9,940.442 1220.69,934.4 1236.51,931.238C1272.7,924.003 1287.04,916.654 1319.31,906.403C1333.43,901.919 1359.7,889.924 1373.31,884.331C1402.82,872.196 1396.82,878.555 1414.24,865.147C1423.83,857.761 1391.88,856.918 1366.46,851.313C1345.41,846.673 1325.11,811.327 1320.9,813.956C1309.74,820.927 1220.66,828.958 1135.72,838.395C1111.15,841.124 945.26,812.471 928.557,812.936Z" style="fill:rgb(233,136,0);"/>
                    </g>
                    <g transform="matrix(-0.111777,-0.22823,0.22823,-0.111777,205.832,354.011)">
                        <path d="M770.719,293.412C763.001,294.797 781.147,381.741 776.573,405.459C774.942,413.915 809.354,418.488 856.177,427.787C872.89,431.106 919.804,434.11 933.08,428.685C943.436,424.453 939.581,410.79 935.832,395.236C929.222,367.815 910.103,324.767 900.765,315.074C892.952,306.965 861.639,317.741 831.405,310.325C798.045,302.142 778.763,291.969 770.719,293.412Z" style="fill:rgb(233,136,0);"/>
                    </g>
                    <g transform="matrix(-0.123365,0.22218,-0.239533,-0.0921132,255.012,-71.6619)">
                        <path d="M914.065,293.431C906.555,308.787 903.786,425.17 904.913,425.992C914.532,432.995 977.823,422.51 1002.63,415.854C1027.94,409.06 1082.91,395.945 1078.22,389.41C1077.97,389.052 1079.11,379.373 1079.53,368.075C1080.45,343.443 1086.57,268.966 1082.4,270.097C1050.76,278.695 1043.45,287.027 1003.91,293.117C966.07,298.945 921.535,278.159 914.065,293.431Z" style="fill:rgb(233,136,0);"/>
                    </g>
                    <g transform="matrix(0.210687,0,0,0.23384,-45.5364,-18.9037)">
                        <path d="M854.913,353.219C855.751,357.71 873.554,394.303 878.736,428.418C882.751,454.851 879.148,503.817 882.584,510.295C886.468,517.617 961.417,524.136 982.597,523.98C988.385,523.937 986.859,443.447 983.211,416.303C978.834,383.74 967.378,368.857 963.407,368.363C954.671,367.275 939.893,361.426 921.986,358.479C890.816,353.348 854.469,350.838 854.913,353.219Z" style="fill:rgb(233,136,0);"/>
                    </g>
                    <g transform="matrix(0.205113,0,0,0.274858,-92.8153,-33.8877)">
                        <path d="M845.069,368.554C848.046,378.006 864.333,397.655 871.734,425.934C877.106,446.46 880.079,483.059 880.644,484.841C881.657,488.042 963.425,488.759 981.877,482.682C989.964,480.018 985.973,446.285 983.411,418.552C980.539,387.448 966.588,353.956 962.552,354.139C937.544,355.267 917.51,358.021 892.107,360.837C886.548,361.453 844.583,367.013 845.069,368.554Z" style="fill:rgb(233,136,0);"/>
                    </g>
                </g>
            </g>
            <path d="M812.804,341.864C899.786,255.22 1088.63,224.513 1244.43,251.681C1351.04,270.273 1441.33,316.311 1476.18,385.508C1511,454.633 1539.31,620.889 1524.82,740.737C1518.14,795.955 1501.79,841.491 1475.38,866.201C1430.71,908.005 1301.23,973.553 1139.22,974.298C996.257,974.955 835.598,916.275 772.977,845.109C761.986,832.618 752.485,812.917 745.477,787.837C736.044,754.072 730.622,709.892 729.718,662.118C728.377,591.261 736.932,512.448 756.186,448.512C769.738,403.51 788.829,365.746 812.804,341.864ZM840.575,369.743C820.42,389.819 805.256,422.028 793.864,459.858C775.702,520.169 767.795,594.534 769.06,661.373C769.893,705.397 774.683,746.134 783.376,777.248C788.453,795.421 794.554,810.064 802.518,819.115C859.905,884.332 1008.03,935.551 1139.04,934.948C1287.89,934.264 1407.45,875.879 1448.5,837.469C1459.13,827.524 1466.97,812.802 1473.07,795.091C1483.41,765.021 1488.24,726.809 1489.22,685.823C1491.72,581.249 1469.01,458.732 1441.04,403.209C1410.75,343.082 1330.31,306.601 1237.67,290.446C1094.59,265.496 920.452,290.174 840.575,369.743Z" style="fill:rgb(73,53,35);"/>
            <g transform="matrix(3.93496,0,0,3.93496,656.113,32.6896)">
                <g transform="matrix(0.254132,0,0,0.254132,-166.739,-8.30747)">
                    <path d="M1309.62,824.101C1304.12,820.601 1302.5,813.298 1306,807.803C1309.5,802.307 1316.8,800.686 1322.3,804.185C1331.79,810.23 1352.64,827.896 1377.99,835.526C1408.26,844.638 1420.14,847.19 1446.76,842.459C1453.17,841.318 1459.3,845.601 1460.44,852.015C1461.58,858.43 1457.3,864.564 1450.89,865.704C1420.05,871.184 1406.24,868.689 1371.18,858.134C1343.28,849.735 1320.07,830.755 1309.62,824.101Z" style="fill:rgb(73,53,35);"/>
                </g>
                <g transform="matrix(0.254132,0,0,0.254132,-166.739,-8.30747)">
                    <path d="M1360.64,493.734C1358.09,499.732 1351.16,502.536 1345.16,499.992C1339.16,497.448 1336.36,490.513 1338.9,484.515C1347.01,465.396 1387.41,421.404 1422.38,401.008C1440.14,390.649 1456.99,386.839 1468.66,391.053C1474.78,393.267 1477.96,400.039 1475.75,406.167C1473.53,412.295 1466.76,415.472 1460.63,413.258C1458.01,412.311 1454.86,412.821 1451.35,413.762C1446.07,415.18 1440.29,417.895 1434.28,421.403C1403.7,439.233 1367.73,477.02 1360.64,493.734Z" style="fill:rgb(73,53,35);"/>
                </g>
                <g transform="matrix(0.249276,0.0494416,-0.0494416,0.249276,-119.387,-25.988)">
                    <path d="M1317.02,438.822C1313.5,444.3 1306.18,445.884 1300.71,442.358C1295.23,438.831 1293.64,431.52 1297.17,426.042C1301.58,419.198 1319.77,395.472 1345.54,377.296C1363.43,364.68 1384.89,354.847 1407.8,354.195C1414.31,354.009 1419.75,359.146 1419.93,365.659C1420.12,372.172 1414.98,377.61 1408.47,377.795C1390.26,378.313 1373.37,386.563 1359.15,396.59C1336.76,412.379 1320.85,432.877 1317.02,438.822Z" style="fill:rgb(73,53,35);"/>
                </g>
                <g transform="matrix(0.254132,0,0,0.254132,-166.739,-8.30747)">
                    <path d="M776.921,830.215C771.516,826.576 770.083,819.234 773.722,813.829C777.36,808.425 784.702,806.991 790.107,810.63C799.736,817.114 820.331,823.77 834.933,823.824C853.447,823.892 867.16,822.429 878.657,819.25C890.307,816.028 907.178,805.462 917.013,798.833C922.415,795.191 929.758,796.621 933.4,802.023C937.042,807.426 935.612,814.768 930.209,818.41C918.657,826.198 898.635,838.221 884.951,842.005C871.771,845.65 856.069,847.512 834.846,847.433C815.961,847.363 789.374,838.599 776.921,830.215Z" style="fill:rgb(73,53,35);"/>
                </g>
                <g transform="matrix(0.254132,0,0,0.254132,-166.739,-8.30747)">
                    <path d="M953.316,462.899C954.073,469.37 949.434,475.238 942.963,475.995C936.492,476.753 930.623,472.114 929.866,465.643C929.385,461.533 926.766,457.526 923.213,453.422C915.982,445.068 904.771,437.079 892.132,429.962C872.273,418.778 848.861,409.885 830.298,405.928C820.445,403.828 812.351,402.536 807.926,404.519C801.98,407.183 794.99,404.519 792.326,398.574C789.662,392.628 792.325,385.638 798.271,382.973C804.054,380.382 813.433,379.482 825.022,381.042C846.715,383.962 877.933,394.87 903.718,409.39C918.98,417.985 932.331,427.882 941.064,437.97C948.156,446.163 952.356,454.694 953.316,462.899Z" style="fill:rgb(73,53,35);"/>
                </g>
                <g transform="matrix(0.128831,0,0,0.128831,-27.7671,-0.379241)">
                    <g transform="matrix(1.9726,0,0,1.9726,-958.21,-90.0887)">
                        <path d="M997.831,292.608C994.317,287.121 995.918,279.814 1001.4,276.3C1006.89,272.785 1014.2,274.386 1017.71,279.872C1026.42,293.46 1038.19,324.514 1041.39,342.887C1046.87,374.282 1049.24,414.454 1045.32,435.367C1044.12,441.771 1037.95,445.996 1031.55,444.796C1025.14,443.597 1020.92,437.424 1022.12,431.02C1025.68,412.003 1023.11,375.491 1018.13,346.942C1015.38,331.112 1005.33,304.316 997.831,292.608Z" style="fill:rgb(73,53,35);"/>
                    </g>
                    <g transform="matrix(1.9726,0,0,1.9726,-1146.66,-74.2157)">
                        <path d="M983.756,293.549C979.824,288.354 980.849,280.944 986.044,277.012C991.239,273.08 998.649,274.105 1002.58,279.3C1007.11,285.28 1024.69,323.173 1029.63,339.907C1034.02,354.764 1041.03,387.597 1044.24,409.682C1045.82,420.579 1046.32,429.222 1045.72,432.969C1044.69,439.404 1038.64,443.796 1032.2,442.772C1025.77,441.748 1021.38,435.692 1022.4,429.258C1022.82,426.649 1021.98,420.668 1020.88,413.079C1017.82,392.037 1011.17,360.75 1006.99,346.595C1002.67,331.993 987.705,298.766 983.756,293.549Z" style="fill:rgb(73,53,35);"/>
                    </g>
                </g>
                <g transform="matrix(0.254132,0,0,0.254132,-190.087,40.2013)">
                    <path d="M981.229,410.088C984.176,415.899 981.85,423.009 976.039,425.956C970.228,428.902 963.118,426.577 960.172,420.766C956.842,414.2 950.074,408.183 941.768,402.662C927.496,393.178 908.647,385.615 890.824,381.455C879.361,378.78 868.339,377.492 859.33,378.228C854.804,378.598 850.888,379.365 848.071,381.129C842.549,384.587 835.259,382.911 831.801,377.39C828.343,371.868 830.018,364.577 835.54,361.119C847.774,353.458 871.176,352.625 896.19,358.463C916.723,363.256 938.395,372.072 954.836,382.999C967.005,391.087 976.351,400.468 981.229,410.088Z" style="fill:rgb(73,53,35);"/>
                </g>
                <g transform="matrix(0.128831,0,0,0.128831,-6.11599,-1.17596)">
                    <g transform="matrix(1.9726,0,0,1.9726,-696.257,-76.3673)">
                        <path d="M992.558,304.618C988.223,299.754 988.653,292.286 993.517,287.951C998.381,283.616 1005.85,284.046 1010.18,288.91C1026.96,307.738 1034.64,334.084 1037.26,360.615C1040.89,397.34 1034.97,434.146 1034.38,447.267C1034.08,453.775 1028.56,458.821 1022.05,458.526C1015.54,458.232 1010.5,452.709 1010.79,446.2C1011.36,433.592 1017.26,398.231 1013.77,362.939C1011.64,341.459 1006.14,319.862 992.558,304.618Z" style="fill:rgb(73,53,35);"/>
                    </g>
                    <g transform="matrix(1.9726,0,0,1.9726,-902.902,-75.2176)">
                        <path d="M992.803,285.498C990.015,280.446 991.286,273.974 996.02,270.39C1001.22,266.458 1008.62,267.484 1012.56,272.679C1012.87,273.096 1014.51,276.038 1016.46,280.929C1021.78,294.226 1033.91,327.212 1036.88,342.574C1044.43,381.599 1045.6,404.424 1040.21,435.86C1039.1,442.282 1033,446.601 1026.57,445.499C1020.15,444.397 1015.83,438.289 1016.94,431.867C1021.84,403.284 1020.56,382.538 1013.7,347.055C1010.6,330.994 996.561,294.257 993.069,286.103C992.98,285.897 992.874,285.656 992.803,285.498Z" style="fill:rgb(73,53,35);"/>
                    </g>
                </g>
            </g>
            <g transform="matrix(3.01785,0,0,3.01785,766.746,169.493)">
                <g transform="matrix(0.254132,0,0,0.254132,-166.739,-8.30747)">
                    <path d="M917.803,399.97C940.966,386.605 1155.12,385.664 1207.21,390.264C1231.46,392.405 1318.38,399.564 1351.59,412.453C1370.67,419.859 1414.31,466.508 1426.57,512.58C1437.22,552.6 1438.64,611.258 1436.07,656.432C1432.35,721.916 1408.46,785.801 1377.31,830.731C1373.51,836.213 1361.59,849.767 1342.99,860.517C1317.64,875.166 1138.83,876.658 1075.09,873.445C1017.82,870.558 957.156,865.425 947.562,863.932C921.921,859.942 897.297,856.681 883.123,844.008C865.926,828.632 838.285,753.854 826.586,671.968C818.735,617.021 831.041,535.848 839.227,513.216C854.593,470.734 875.57,424.339 917.803,399.97Z" style="fill:rgb(206,186,186);"/>
                    <path d="M902.418,373.306C908.767,369.642 925.267,365.136 948.687,362.76C1018.59,355.665 1167.3,355.835 1209.92,359.598C1235.6,361.866 1327.55,370.103 1362.73,383.754C1373.02,387.748 1389.31,399.318 1405.37,416.807C1426.27,439.561 1447.72,472.339 1456.32,504.666C1467.68,547.38 1469.55,609.965 1466.81,658.179C1462.75,729.61 1436.59,799.262 1402.61,848.272C1397.68,855.376 1382.49,873.241 1358.39,887.171C1349.02,892.587 1322.94,898.283 1288.46,901.062C1221.93,906.423 1119.01,906.483 1073.54,904.191C1014.84,901.232 952.663,895.881 942.829,894.351C910.602,889.336 880.419,882.885 862.605,866.958C855.499,860.605 846.235,847.436 837.522,828.301C821.891,793.976 804.782,737.016 796.111,676.322C787.525,616.235 801.326,527.494 810.278,502.745C827.99,453.776 853.736,401.396 902.418,373.306ZM1328.54,833.301C1341.1,825.841 1349.4,816.956 1352.01,813.19C1380.34,772.34 1401.95,714.222 1405.34,654.684C1407.73,612.552 1406.75,557.82 1396.82,520.494C1390.71,497.534 1374.86,474.611 1360.02,458.45C1352.25,449.984 1345.43,443.086 1340.45,441.153C1309.2,429.025 1227.32,422.944 1204.5,420.929C1168.78,417.774 1055.26,417.358 982.578,421.837C960.112,423.221 935.365,427.011 931.536,427.61C896.894,448.54 880.996,488.243 868.176,523.687C860.756,544.202 849.945,617.808 857.061,667.614C863.705,714.115 875.719,758.21 887.832,789.177C893.933,804.775 898.723,816.661 903.642,821.059C907.415,824.432 912.872,825.892 918.798,827.435C929.006,830.092 940.54,831.684 952.295,833.513C961.649,834.969 1020.8,839.885 1076.64,842.7C1120.4,844.906 1219.48,844.852 1283.52,839.692C1303.28,838.099 1326.07,833.776 1328.54,833.301Z" style="fill:rgb(73,53,35);"/>
                </g>
                <g transform="matrix(0.254132,0,0,0.254132,-166.739,-8.30747)">
                    <path d="M938.959,423.292C1020.26,401.91 1283.32,408.219 1340.13,439.024C1407.53,475.564 1405.79,549.154 1408.46,616.815C1412.39,716.507 1372.39,802.39 1344.25,831.431C1308.52,868.291 928.234,849.363 901.125,825.548C876.07,803.538 838.405,669.202 852.3,567.317C859.943,511.275 884.773,437.542 938.959,423.292Z" style="fill:rgb(237,219,147);"/>
                    <path d="M928.519,383.596C988.213,367.897 1141.3,365.579 1248.23,377.193C1298.92,382.7 1339.92,392.218 1359.7,402.94C1404.72,427.348 1427.13,463.761 1438.25,505.74C1447.31,539.955 1448.02,578.36 1449.47,615.197C1453.97,729.235 1405.92,826.778 1373.72,859.998C1365.93,868.031 1350.27,877.162 1326.65,882.437C1294.34,889.654 1240.27,893.077 1180.72,893.188C1081.57,893.374 966.846,884.826 916.301,873.95C894.115,869.176 879.942,861.574 874.035,856.385C863.538,847.164 849.427,824.929 838.18,792.931C817.692,734.645 801.026,639.524 811.63,561.77C816.982,522.53 830.126,476.053 852.986,441.402C871.859,412.794 897.196,391.834 928.519,383.596ZM927.072,791.477C952.118,794.648 1087.86,811.27 1180.56,811.096C1221.72,811.019 1259.96,809.444 1288.59,805.724C1299.76,804.273 1313.09,800.874 1317.69,799.654C1341.37,772.06 1370.67,700.385 1367.44,618.434C1366.44,593.078 1366.26,566.822 1362.17,542.266C1357.68,515.255 1348.35,490.17 1320.57,475.107C1306.25,467.345 1276.06,462.792 1239.36,458.806C1142.39,448.273 1003.53,448.752 949.398,462.989C933.208,467.246 923.04,482.073 914.712,498.338C902.878,521.452 896.215,549.069 892.97,572.863C884.12,637.749 898.53,717.069 915.627,765.709C918.954,775.175 924.12,785.72 927.072,791.477Z" style="fill:rgb(237,219,147);"/>
                </g>
            </g>
        </g>
    </g>
</svg>
