<?xml version="1.0" encoding="UTF-8" standalone="no"?>
<!DOCTYPE svg PUBLIC "-//W3C//DTD SVG 1.1//EN" "http://www.w3.org/Graphics/SVG/1.1/DTD/svg11.dtd">
<svg width="100%" height="100%" viewBox="0 0 240 240" version="1.1" xmlns="http://www.w3.org/2000/svg" xmlns:xlink="http://www.w3.org/1999/xlink" xml:space="preserve" xmlns:serif="http://www.serif.com/" style="fill-rule:evenodd;clip-rule:evenodd;stroke-linecap:round;stroke-linejoin:round;stroke-miterlimit:1.5;">
    <g transform="matrix(0.128509,0,0,0.128509,-28.0898,-16.3747)">
        <g transform="matrix(1.97618,0,0,1.97618,-1065.72,53.2656)">
            <path d="M826.689,355.803C734.755,447.382 728.514,764.796 787.748,832.112C847.751,900.303 1002.14,955.253 1139.13,954.623C1294.56,953.909 1419.08,891.942 1461.94,851.835C1541.22,777.648 1506.77,489.976 1458.61,394.359C1377.19,232.708 965.737,217.295 826.689,355.803Z" style="fill:rgb(16,24,32);"/>
            <path d="M812.795,341.855C899.778,255.208 1088.63,224.499 1244.43,251.668C1351.05,270.26 1441.34,316.301 1476.19,385.502C1511.01,454.628 1539.32,620.888 1524.83,740.739C1518.16,795.961 1501.8,841.499 1475.39,866.211C1430.72,908.016 1301.23,973.566 1139.22,974.311C996.253,974.968 835.589,916.286 772.967,845.118C761.974,832.626 752.473,812.923 745.464,787.84C736.03,754.075 730.608,709.893 729.704,662.118C728.363,591.26 736.919,512.445 756.173,448.508C769.725,403.503 788.818,365.738 812.795,341.855ZM840.584,369.752C820.431,389.827 805.268,422.034 793.877,459.862C775.715,520.172 767.809,594.535 769.074,661.373C769.907,705.395 774.696,746.131 783.389,777.244C788.466,795.415 794.565,810.056 802.528,819.106C859.913,884.321 1008.03,935.537 1139.04,934.935C1287.89,934.251 1407.44,875.868 1448.49,837.459C1459.12,827.516 1466.96,812.795 1473.05,795.087C1483.4,765.018 1488.23,726.807 1489.21,685.822C1491.7,581.251 1468.99,458.736 1441.03,403.215C1410.74,343.091 1330.3,306.613 1237.66,290.459C1094.6,265.51 920.459,290.186 840.584,369.752Z" style="fill:rgb(16,24,32);"/>
        </g>
        <g transform="matrix(1.32532,0,0,1.10952,-71.0128,-6.60377)">
            <path d="M970.381,284.027C971.122,267.215 1110.95,213.633 1210.03,198.694C1344.82,178.373 1443.95,192.402 1487.55,194.701C1505.84,195.666 1514.38,356.844 1347.51,399.102C1235.87,427.372 1119.3,384.662 1043.75,349.227C986.808,322.521 969.556,302.735 970.381,284.027Z" style="fill:rgb(154,149,0);"/>
            <path d="M935.201,281.814L938.806,264.812L946.524,251.528C950.634,246.396 958.654,239.252 970.699,232.271C1011.99,208.343 1122.44,169.485 1205.62,156.945C1343.31,136.186 1444.56,150.313 1489.1,152.662L1501.96,155.987L1515.25,166.367L1525.03,182.872C1527.34,188.629 1529.44,196.11 1530.75,205.133C1538.35,257.898 1518.22,398.888 1354.81,440.268C1235.81,470.402 1111.4,426.168 1030.87,388.396C989.981,369.217 966.764,351.786 954.488,337.061C951.338,333.282 948.705,329.541 946.5,325.877L940.082,312.641L936.083,297.5L935.201,281.814ZM1032.18,296.792C1039.43,301.244 1047.71,305.88 1056.62,310.058C1127.19,343.156 1235.92,384.342 1340.2,357.937C1430.17,335.154 1458.79,272.957 1461.67,234.97C1411.69,230.922 1325.42,223.712 1214.44,240.443C1158.61,248.861 1078.45,278.432 1032.18,296.792Z" style="fill:rgb(154,149,0);"/>
        </g>
        <g transform="matrix(20.685,0,0,2.34736,-19156.1,-26.2381)">
            <path d="M978.858,94.971C979.258,78.885 981.064,68.684 982.889,72.205C984.715,75.725 985.873,91.643 985.473,107.729C984.448,149.004 985.275,202.812 984.827,241.691C984.638,258.073 982.975,270.022 981.116,268.357C979.257,266.693 977.901,252.041 978.09,235.659C978.561,194.818 977.781,138.33 978.858,94.971Z" style="fill:rgb(16,24,32);"/>
        </g>
    </g>
    <g transform="matrix(1,0,0,1,-9.18986,-0.705937)">
        <ellipse cx="86.948" cy="130.122" rx="24.62" ry="23.106" style="fill:rgb(154,149,0);stroke:rgb(154,149,0);stroke-width:1px;"/>
    </g>
    <g transform="matrix(1,0,0,1,81.8978,1.9729)">
        <ellipse cx="86.948" cy="130.122" rx="24.62" ry="23.106" style="fill:rgb(154,149,0);stroke:rgb(154,149,0);stroke-width:1px;"/>
    </g>
</svg>
