<?xml version="1.0" encoding="UTF-8" standalone="no"?>
<!DOCTYPE svg PUBLIC "-//W3C//DTD SVG 1.1//EN" "http://www.w3.org/Graphics/SVG/1.1/DTD/svg11.dtd">
<svg width="100%" height="100%" viewBox="0 0 240 240" version="1.1" xmlns="http://www.w3.org/2000/svg" xmlns:xlink="http://www.w3.org/1999/xlink" xml:space="preserve" xmlns:serif="http://www.serif.com/" style="fill-rule:evenodd;clip-rule:evenodd;stroke-linejoin:round;stroke-miterlimit:2;">
    <g transform="matrix(0.128598,0,0,0.128598,-29.6904,-15.1573)">
        <g transform="matrix(1.97618,0,0,1.97618,-1065.72,53.2656)">
            <path d="M826.689,355.803C734.755,447.382 728.514,764.796 787.748,832.112C847.751,900.303 1002.14,955.253 1139.13,954.623C1294.56,953.909 1419.08,891.942 1461.94,851.835C1541.22,777.648 1506.77,489.976 1458.61,394.359C1377.19,232.708 965.737,217.295 826.689,355.803Z" style="fill:rgb(241,232,232);"/>
            <clipPath id="_clip1">
                <path d="M826.689,355.803C734.755,447.382 728.514,764.796 787.748,832.112C847.751,900.303 1002.14,955.253 1139.13,954.623C1294.56,953.909 1419.08,891.942 1461.94,851.835C1541.22,777.648 1506.77,489.976 1458.61,394.359C1377.19,232.708 965.737,217.295 826.689,355.803Z"/>
            </clipPath>
            <g clip-path="url(#_clip1)">
                <path d="M911.94,841.62C910.593,840.759 864.018,849.619 847.937,845.599C835.327,842.446 821.124,840.286 809.4,836.378C808.076,835.937 800.151,833.756 800.288,833.928C803.568,838.036 821.83,855.02 831.314,860.599C842.445,867.147 853.152,874.527 864.431,880.806C883.96,891.677 906.783,902.361 927.82,909.769C955.918,919.664 979.058,925.599 1002.72,931.174C1030.26,937.663 1048.68,934.667 1075.08,937.764C1097.9,940.442 1220.69,934.4 1236.51,931.238C1272.7,924.003 1287.04,916.654 1319.31,906.403C1333.43,901.919 1359.7,889.924 1373.31,884.331C1402.82,872.196 1402.41,868.62 1421.74,858.163C1425.58,856.089 1335.62,841.333 1325.18,842.726C1299.41,846.161 1264.64,856.555 1238.83,859.922C1214.32,863.119 1195.21,860.766 1170.53,862.529C1127.12,865.63 1077.55,864.815 1034.88,858.079C1018.75,855.531 1002.76,858.725 986.547,856.698C963.946,853.873 912.886,845.154 911.94,841.62Z" style="fill:rgb(207,101,37);"/>
            </g>
            <path d="M812.804,341.864C899.786,255.22 1088.63,224.513 1244.43,251.681C1351.04,270.273 1441.33,316.311 1476.18,385.508C1511,454.633 1539.31,620.889 1524.82,740.737C1518.14,795.955 1501.79,841.491 1475.38,866.201C1430.71,908.005 1301.23,973.553 1139.22,974.298C996.257,974.955 835.598,916.275 772.977,845.109C761.986,832.618 752.485,812.917 745.477,787.837C736.044,754.072 730.622,709.892 729.718,662.118C728.377,591.261 736.932,512.448 756.186,448.512C769.738,403.51 788.829,365.746 812.804,341.864ZM840.575,369.743C820.42,389.819 805.256,422.028 793.864,459.858C775.702,520.169 767.795,594.534 769.06,661.373C769.893,705.397 774.683,746.134 783.376,777.248C788.453,795.421 794.554,810.064 802.518,819.115C859.905,884.332 1008.03,935.551 1139.04,934.948C1287.89,934.264 1407.45,875.879 1448.5,837.469C1459.13,827.524 1466.97,812.802 1473.07,795.091C1483.41,765.021 1488.24,726.809 1489.22,685.823C1491.72,581.249 1469.01,458.732 1441.04,403.209C1410.75,343.082 1330.31,306.601 1237.67,290.446C1094.59,265.496 920.452,290.174 840.575,369.743Z" style="fill:rgb(43,37,37);"/>
            <g transform="matrix(-0.439836,-0.898078,0.898078,-0.439836,1466.05,1425.71)">
                <path d="M764.891,307.071C757.173,308.456 750.685,356.643 753.307,370.988C756.404,387.93 755.985,393.805 756.229,396.199C757.102,404.767 811.714,419.204 858.537,428.503C875.25,431.823 905.971,435.019 930.415,434.971C950.495,434.931 967.949,429.027 966.893,428.386C966.514,428.156 970.732,419.65 964.455,392.899C957.25,362.189 913.59,332.018 909.545,332.082C885.863,332.457 780.225,304.319 764.891,307.071Z" style="fill:rgb(207,101,37);"/>
            </g>
            <g transform="matrix(-0.485438,0.874271,-0.942554,-0.362462,1659.58,-249.297)">
                <path d="M902.571,320.208C900.892,319.416 869.827,371.424 871.684,395.81C872.557,407.276 871.931,418.974 873.059,419.795C882.677,426.799 901.783,428.952 926.156,428.8C935.874,428.74 977.823,422.51 1002.63,415.854C1027.94,409.06 1082.91,395.945 1078.22,389.41C1077.97,389.052 1079.11,379.373 1079.53,368.075C1080.45,343.443 1101.54,307.559 1087.13,309.103C1083.83,309.457 1039.93,325.392 1000.39,331.482C962.549,337.309 916.437,326.757 902.571,320.208Z" style="fill:rgb(207,101,37);"/>
            </g>
            <g transform="matrix(0.829047,0,0,0.92015,476.929,-41.6959)">
                <path d="M860.298,354.69C869.143,364.878 880.416,466.319 877.829,482.599C875.648,496.332 984.55,505.606 979.623,502.612C979.244,502.382 983.983,442.578 980.334,415.434C975.958,382.871 962.967,368.253 958.995,367.759C935.054,364.777 854.025,347.463 860.298,354.69Z" style="fill:rgb(207,101,37);"/>
            </g>
            <g transform="matrix(0.807113,0,0,1.08156,290.889,-100.657)">
                <path d="M845.069,368.554C848.046,378.006 864.333,397.655 871.734,425.934C877.106,446.46 869.431,463.705 869.995,465.487C871.009,468.688 934.918,466.663 944.972,466.133C952.008,465.763 979.713,468.42 974.786,465.427C974.407,465.196 983.564,443.783 977.288,417.033C970.083,386.322 963.704,355.125 959.669,355.308C934.661,356.436 918.54,358.702 893.137,361.517C887.578,362.133 844.583,367.013 845.069,368.554Z" style="fill:rgb(207,101,37);"/>
            </g>
            <path d="M1346.03,821.305C1347.04,821.735 1357.42,826.114 1366.25,828.305C1387.37,833.543 1416.17,837.412 1436.16,837.871C1442.99,838.028 1448.56,837.986 1451.77,837.019C1460.09,834.519 1468.88,839.244 1471.38,847.564C1473.88,855.883 1469.15,864.667 1460.83,867.167C1445.5,871.775 1393.09,867.398 1358.67,858.858C1340.93,854.458 1327.72,848.025 1323.08,842.843C1317.29,836.369 1317.84,826.41 1324.31,820.617C1330.6,814.992 1340.17,815.35 1346.03,821.305Z" style="fill:rgb(43,37,37);"/>
            <path d="M1374.54,468.213C1371.45,476.332 1362.35,480.415 1354.23,477.325C1346.11,474.236 1342.03,465.136 1345.12,457.016C1354.42,432.582 1369.16,408.809 1385.34,392.843C1401.37,377.019 1426.33,364.659 1444.42,360.03C1452.83,357.876 1461.41,362.96 1463.57,371.376C1465.72,379.792 1460.64,388.373 1452.22,390.527C1438.53,394.03 1419.59,403.273 1407.45,415.248C1394.13,428.394 1382.2,448.095 1374.54,468.213Z" style="fill:rgb(43,37,37);"/>
            <g transform="matrix(0.980892,0.194551,-0.194551,0.980892,186.33,-69.5721)">
                <path d="M1337.07,452.348C1332.36,459.652 1322.62,461.765 1315.31,457.063C1308.01,452.36 1305.89,442.612 1310.6,435.308C1318.43,423.132 1344.09,399.783 1363.55,390.573C1370.64,387.221 1396.65,370.546 1419.87,369.639C1428.55,369.3 1435.87,376.072 1436.21,384.753C1436.55,393.433 1429.78,400.756 1421.1,401.095C1402.71,401.813 1382.63,416.373 1377.02,419.028C1362.41,425.94 1342.95,443.21 1337.07,452.348Z" style="fill:rgb(43,37,37);"/>
            </g>
            <path d="M774.723,833.479C767.517,828.627 765.606,818.837 770.458,811.632C775.309,804.426 785.099,802.514 792.305,807.366C801.899,813.826 822.696,818 837.101,820.045C868.169,824.454 887.901,816.279 906.377,811.112C914.743,808.773 923.434,813.666 925.774,822.032C928.113,830.398 923.22,839.09 914.854,841.429C892.964,847.55 869.487,856.436 832.678,851.212C813.925,848.551 787.213,841.888 774.723,833.479Z" style="fill:rgb(43,37,37);"/>
            <path d="M942.484,410.137C946.414,417.885 943.314,427.365 935.566,431.294C927.819,435.224 918.339,432.124 914.409,424.376C908.111,411.958 886.614,392.86 871.167,385.283C858.449,379.044 842.079,374.548 830.196,373.993C821.518,373.589 814.802,366.215 815.207,357.537C815.612,348.86 822.985,342.143 831.663,342.548C847.125,343.269 868.483,348.903 885.031,357.02C905.765,367.191 934.031,393.469 942.484,410.137Z" style="fill:rgb(43,37,37);"/>
            <g transform="matrix(0.506945,0,0,0.506945,546.85,31.1973)">
                <g transform="matrix(1.9726,0,0,1.9726,-958.21,-90.0887)">
                    <path d="M994.518,294.73C989.832,287.415 991.967,277.672 999.282,272.986C1006.6,268.3 1016.34,270.435 1021.02,277.75C1029.93,291.651 1041.99,323.415 1045.27,342.211C1050.89,374.422 1050.39,401.306 1046.37,422.762C1044.77,431.3 1036.54,436.934 1028,435.334C1019.46,433.735 1013.83,425.504 1015.43,416.966C1018.89,398.493 1019.09,375.35 1014.26,347.618C1011.57,332.211 1001.82,306.125 994.518,294.73Z" style="fill:rgb(43,37,37);"/>
                </g>
                <g transform="matrix(1.9726,0,0,1.9726,-1146.66,-74.2157)">
                    <path d="M980.618,295.923C975.376,288.997 976.743,279.117 983.67,273.874C990.596,268.631 1000.48,269.999 1005.72,276.925C1010.34,283.032 1028.36,321.703 1033.4,338.793C1040.11,361.498 1040.07,406.6 1038.22,418.206C1036.86,426.785 1028.79,432.642 1020.21,431.276C1011.63,429.91 1005.77,421.837 1007.14,413.258C1008.66,403.678 1008.75,366.45 1003.21,347.709C999.004,333.463 984.471,301.014 980.618,295.923Z" style="fill:rgb(43,37,37);"/>
                </g>
            </g>
            <g transform="matrix(1,0,0,1,-91.8732,190.88)">
                <path d="M962.358,407.023C965.289,415.2 961.03,424.219 952.852,427.15C944.674,430.081 935.655,425.822 932.724,417.644C927.734,403.721 911.268,393.359 894.269,387.123C883.417,383.143 872.084,380.982 862.378,381.469C857.638,381.707 853.357,382.461 850.16,384.464C842.797,389.075 833.076,386.841 828.466,379.478C823.855,372.116 826.089,362.395 833.452,357.784C849.574,347.687 878.385,347.766 905.11,357.569C931.304,367.178 954.668,385.568 962.358,407.023Z" style="fill:rgb(43,37,37);"/>
            </g>
            <g transform="matrix(0.506945,0,0,0.506945,632.047,28.0622)">
                <g transform="matrix(1.9726,0,0,1.9726,-696.257,-76.3673)">
                    <path d="M1007.14,431.528C1007.17,431.337 1007.21,431.091 1007.23,430.899C1008.91,417.107 1009.26,365.593 1006.57,345.331C1004.66,330.982 994.728,313.479 991.204,308.824C985.962,301.898 987.329,292.018 994.256,286.775C1001.18,281.532 1011.06,282.899 1016.31,289.826C1021.26,296.368 1035.1,321.019 1037.78,341.185C1040.37,360.728 1040.41,407.064 1039.1,427.63C1038.6,435.359 1037.4,440.583 1036.69,442.236C1033.28,450.224 1024.02,453.937 1016.04,450.522C1008.6,447.343 1004.87,439.098 1007.14,431.528Z" style="fill:rgb(43,37,37);"/>
                </g>
                <g transform="matrix(1.9726,0,0,1.9726,-902.902,-75.2176)">
                    <path d="M1006.13,402.578C1006.22,402.013 1006.9,397.476 1007.09,394.012C1007.84,380.86 1007.05,360.71 1003.21,347.709C998.947,333.271 982.112,291.645 978.208,286.486C972.965,279.559 974.332,269.679 981.259,264.436C988.185,259.194 998.065,260.561 1003.31,267.487C1007.88,273.525 1028.41,321.895 1033.4,338.793C1038.13,354.804 1039.44,379.588 1038.52,395.784C1038.03,404.607 1036.6,411.35 1035.29,414.417C1031.88,422.405 1022.62,426.118 1014.63,422.704C1006.82,419.365 1003.1,410.44 1006.13,402.578Z" style="fill:rgb(43,37,37);"/>
                </g>
            </g>
            <g transform="matrix(3.36253,0,0,3.36253,717.215,121.234)">
                <g transform="matrix(0.254132,0,0,0.254132,-166.739,-8.30747)">
                    <path d="M917.803,399.97C940.966,386.605 1155.12,385.664 1207.21,390.264C1231.46,392.405 1318.38,399.564 1351.59,412.453C1370.67,419.859 1414.31,466.508 1426.57,512.58C1437.22,552.6 1438.64,611.258 1436.07,656.432C1432.35,721.916 1408.46,785.801 1377.31,830.731C1373.51,836.213 1361.59,849.767 1342.99,860.517C1317.64,875.166 1138.83,876.658 1075.09,873.445C1017.82,870.558 957.156,865.425 947.562,863.932C921.921,859.942 897.297,856.681 883.123,844.008C865.926,828.632 838.285,753.854 826.586,671.968C818.735,617.021 831.041,535.848 839.227,513.216C854.593,470.734 875.57,424.339 917.803,399.97Z" style="fill:rgb(206,186,186);"/>
                    <path d="M903.995,376.039C910.168,372.477 926.235,368.21 949.005,365.899C1018.75,358.821 1167.12,358.987 1209.64,362.742C1235.17,364.996 1326.61,373.123 1361.59,386.696C1371.6,390.584 1387.41,401.915 1403.05,418.941C1423.63,441.357 1444.8,473.63 1453.27,505.477C1464.56,547.915 1466.38,610.097 1463.66,658C1459.63,728.821 1433.71,797.882 1400.02,846.474C1395.21,853.412 1380.35,870.834 1356.81,884.439C1347.62,889.75 1322.02,895.192 1288.21,897.917C1221.81,903.267 1119.08,903.327 1073.7,901.039C1015.14,898.087 953.124,892.759 943.315,891.233C911.764,886.323 882.149,880.199 864.708,864.605C857.802,858.431 848.862,845.59 840.394,826.994C824.852,792.864 807.857,736.224 799.234,675.876C790.724,616.315 804.372,528.35 813.245,503.818C830.717,455.514 855.974,403.747 903.995,376.039ZM1329.83,836.207C1343.12,828.385 1351.86,818.949 1354.61,814.989C1383.22,773.719 1405.07,715.01 1408.49,654.863C1410.9,612.419 1409.87,557.285 1399.87,519.683C1393.63,496.242 1377.5,472.815 1362.35,456.316C1354.15,447.389 1346.85,440.249 1341.59,438.211C1310.14,426.005 1227.74,419.813 1204.78,417.786C1168.98,414.624 1055.22,414.199 982.384,418.687C959.199,420.116 933.635,424.136 930.302,424.67C894.758,445.922 878.311,486.389 865.208,522.614C857.71,543.345 846.745,617.727 853.937,668.06C860.619,714.831 872.71,759.18 884.893,790.326C891.243,806.559 896.419,818.834 901.539,823.412C905.65,827.088 911.544,828.807 918.003,830.489C928.306,833.17 939.946,834.786 951.81,836.632C961.189,838.091 1020.5,843.029 1076.48,845.851C1120.33,848.062 1219.61,848.008 1283.77,842.837C1304.27,841.185 1327.95,836.575 1329.83,836.207Z" style="fill:rgb(43,37,37);"/>
                </g>
                <g transform="matrix(0.254132,0,0,0.254132,-166.739,-8.30747)">
                    <path d="M938.959,423.292C1020.26,401.91 1283.32,408.219 1340.13,439.024C1407.53,475.564 1405.79,549.154 1408.46,616.815C1412.39,716.507 1372.39,802.39 1344.25,831.431C1308.52,868.291 928.234,849.363 901.125,825.548C876.07,803.538 838.405,669.202 852.3,567.317C859.943,511.275 884.773,437.542 938.959,423.292Z"/>
                    <path d="M929.589,387.665C988.998,372.041 1141.36,369.817 1247.77,381.376C1297.75,386.805 1338.2,396.069 1357.69,406.639C1401.55,430.417 1423.35,465.921 1434.18,506.818C1443.16,540.746 1443.82,578.834 1445.27,615.363C1449.71,727.93 1402.48,824.278 1370.7,857.069C1363.27,864.732 1348.27,873.299 1325.74,878.331C1293.62,885.503 1239.89,888.87 1180.71,888.981C1081.9,889.166 967.56,880.675 917.186,869.837C896.024,865.283 882.446,858.174 876.812,853.224C866.621,844.272 853.068,822.602 842.149,791.536C821.836,733.744 805.285,639.433 815.799,562.339C821.072,523.674 833.973,477.862 856.498,443.719C874.775,416.014 899.255,395.643 929.589,387.665ZM924.761,795.928C962.99,807.303 1080.43,815.491 1180.57,815.304C1221.93,815.226 1260.37,813.635 1289.13,809.897C1301.31,808.313 1315.94,804.417 1320.12,803.264C1344.33,775.755 1374.96,702.368 1371.65,618.268C1370.64,592.737 1370.44,566.301 1366.32,541.575C1361.62,513.303 1351.65,487.174 1322.58,471.408C1307.98,463.494 1277.23,458.687 1239.82,454.623C1142.34,444.035 1002.75,444.608 948.328,458.92C931.023,463.471 919.868,479.035 910.967,496.421C898.917,519.955 892.105,548.067 888.801,572.295C879.862,637.84 894.387,717.97 911.658,767.104C915.543,778.158 921.91,790.572 924.761,795.928Z"/>
                </g>
            </g>
        </g>
        <g transform="matrix(1.03272,0,0,1.13127,198.077,28.46)">
            <path d="M980.823,306.183C966.923,300.865 965.05,276.522 966.402,263.928C970.475,225.992 1043.91,165.25 1112.69,143.913C1218.05,111.231 1299.38,109.468 1358.96,115.219C1506.15,129.427 1566.29,181.55 1568.09,194.921C1572.67,228.914 1440.29,364.986 1238.17,367.891C1158.92,369.03 1026.12,323.51 980.823,306.183Z" style="fill:rgb(96,117,51);"/>
            <path d="M976.458,315.692C968.134,312.508 962.04,305.241 958.635,295.892C954.716,285.131 954.229,271.601 955.161,262.922C956.968,246.09 970.454,224.879 991.627,204.368C1021.42,175.511 1066.12,147.47 1109.06,134.15C1216.48,100.83 1299.4,99.102 1360.15,104.966C1466.5,115.232 1528.68,145.071 1557.14,166.547C1572.34,178.017 1578.61,188.503 1579.3,193.663C1580.03,199.102 1578.6,206.596 1574.23,215.414C1568.96,226.034 1559.31,239.269 1545.52,253.544C1494.04,306.839 1383.78,376.11 1238.35,378.2C1157.73,379.359 1022.54,333.32 976.458,315.692ZM1556.92,196.595C1556.26,195.726 1550.43,188.237 1542.75,182.441C1516.07,162.306 1457.49,135.098 1357.78,125.473C1299.35,119.834 1219.63,121.632 1116.33,153.676C1076.73,165.96 1035.54,191.895 1008.07,218.511C991.061,234.984 979.094,251.415 977.643,264.933C976.952,271.367 977.165,281.409 980.07,289.386C981.221,292.544 982.377,295.598 985.188,296.673C1029.7,313.7 1160.12,358.7 1237.99,357.581C1375.52,355.604 1479.89,290.305 1528.58,239.905C1540.54,227.515 1549.08,216.127 1553.65,206.91C1555.73,202.719 1557.1,199.264 1556.92,196.595Z" style="fill:rgb(96,117,51);"/>
        </g>
        <g transform="matrix(12.4266,0,0,2.42506,-11050.8,-34.1134)">
            <path d="M976.579,97.706C976.971,81.906 979.793,70.71 982.877,72.721C985.96,74.732 988.145,89.193 987.752,104.994C986.717,146.671 987.738,192.35 987.285,231.607C987.102,247.507 984.434,259.653 981.331,258.714C978.228,257.774 975.858,244.103 976.041,228.202C976.508,187.74 975.512,140.663 976.579,97.706Z" style="fill:rgb(43,37,37);"/>
        </g>
    </g>
</svg>
